<?xml version="1.0" encoding="utf-8"?>
<!-- Generator: Adobe Illustrator 22.1.0, SVG Export Plug-In . SVG Version: 6.00 Build 0)  -->
<svg version="1.1" id="Layer_1" xmlns="http://www.w3.org/2000/svg" xmlns:xlink="http://www.w3.org/1999/xlink" x="0px" y="0px"
	 viewBox="0 0 34 50" style="enable-background:new 0 0 34 50;" xml:space="preserve">
<style type="text/css">
	.st0{fill:none;stroke:#D7DF23;stroke-width:0.25;stroke-miterlimit:10;}
</style>
<path class="st0" d="M13.4,46.1c-0.8-0.3-1.6-0.7-2.3-1.4s-1.2-1.6-1.7-2.8c-0.4-1.2-0.6-2.7-0.6-4.5V12.6C8.8,10.7,9,9.2,9.5,8
	c0.4-1.2,1-2.1,1.7-2.8s1.5-1.1,2.3-1.4c0.8-0.2,1.7-0.4,2.5-0.4h1.9c0.8,0,1.7,0.1,2.5,0.4C21.3,4,22,4.5,22.7,5.2
	C23.5,5.9,24,6.8,24.5,8c0.4,1.2,0.7,2.7,0.7,4.6v3.6h-0.8h-4.6H19v-5.5c0-0.4-0.1-0.7-0.2-0.8S18.4,9.7,18,9.7h-1.9
	c-0.4,0-0.7,0.1-0.8,0.2C15.1,10,15,10.3,15,10.7v28.6c0,0.4,0.1,0.7,0.2,0.8c0.1,0.1,0.4,0.2,0.8,0.2h1.9c0.4,0,0.7-0.1,0.8-0.2
	c0.1-0.1,0.2-0.4,0.2-0.8V24.8h-1.2H17V24v-4.6v-0.8h0.8h6.6h0.8v0.8v26.3v0.8h-0.8h-1h-3.6H19h-2.1h-0.8h-0.2
	C15.1,46.5,14.2,46.4,13.4,46.1z"/>
</svg>
