<?xml version="1.0" encoding="UTF-8"?>
<svg viewBox="0 0 640 480" xmlns="http://www.w3.org/2000/svg">
 <path d="m276.4 425.32c-1.9066-1.277-5.5182-1.4174-3.964-4.3106 0.18808-2.8558-0.3266-7.1243-0.34784-9.9554 0.18817-2.1402-0.38532-4.1364-0.61456-6.1606-1.2956-3.0032 3.8554-3.7983 6.0573-5.0376 3.2051-0.94159 6.8911-1.8804 10.155-1.2439 3.8886 0.26596 7.9102-0.026978 11.849 0.12799 2.7931 0.22885 5.4304 1.0519 8.1505 1.4457 2.7687 0.56943 5.5843 1.1471 8.1446 2.2726 2.5196 0.77899 4.5977 2.4983 5.644 4.505-0.30032 2.1222-1.4747 4.2431-1.152 6.4868-0.15903 2.5718 0.03006 6.6181 0.64017 9.1385-0.5289 0.79575-1.4474 1.3848-2.3502 1.9845-7.9226 2.581-12.59 3.7884-18.758 3.8043-8.5397 0.021851-15.4-0.81662-23.454-3.0574h3.1e-5z"/>
 <path d="m498.86 437.28c-10.796 2.9654-22.159-0.55447-32.957-1.6746-9.9541-2.4614-21.708-2.1509-29.607-8.2419-8.3734-4.0771-10.544-7.8068-8.4028-15.43 0.11264-15.772 0.77814-31.65-1.2378-47.319-1.0241-11.482-2.0808-22.993-4.1079-34.444-2.27-16.388-4.6755-32.845-7.0567-49.223 0.069611-13.242-28.492-9.0544-20.188-24.511 0.75223-11.421-1.3062-22.554-1.3911-33.877 0.75232-8.5596-1.5411-16.543-2.458-24.639-5.1816-12.011 15.419-15.191 24.226-20.147 12.818-3.7658 27.56-7.5203 40.613-4.9747 15.552 1.0637 31.636-0.1079 47.389 0.51189 11.171 0.91522 21.719 4.2068 32.597 5.7818 11.073 2.2774 22.334 4.5878 32.574 9.0893 10.077 3.1155 18.388 9.9917 22.573 18.017-1.2012 8.4878-5.898 16.97-4.607 25.944-0.63586 10.286 0.12024 20.529 2.5602 30.61-5.6014 8.427-22.126 11.059-19.49 24.027-2.107 11.578-3.9431 23.153-4.0831 34.801 0.042114 9.1494-2.439 18.082-1.25 27.283-0.46655 10.434-2.0557 20.78-1.4779 31.257-1.4358 9.3162-1.7701 18.715-4.0824 27.946 1.3153 10.899-6.6246 17.303-17.232 21.54-10.225 3.5428-20.535 6.1904-31.316 7.4053-3.8212 0.54599-7.734 0.14841-11.588 0.26987v-3.1e-5z"/>
 <path d="m500.18 435c-10.306-0.23718-20.787 0.96042-30.82-1.7528-10.104-1.3368-19.806-4.3451-29.045-8.0505-11.955-2.5045-5.4318-12.661-7.1499-20.257 0.13098-12.104 0.24414-24.217-0.027954-36.322-1.7972-6.5279-1.4373-13.455-2.3146-20.005-1.3224-8.2023-3.3694-16.296-4.2554-24.564-1.1032-8.7965-3.2085-17.417-3.6372-26.278-0.74875-5.2025-5-15.676 5.8132-13.109 9.8878 1.9064 20.002 3.3786 30.159 3.7713 9.7195 1.1532 19.477 2.2333 29.288 1.9402 10.354 1.6191 20.903 1.6546 31.282 0.15646 9.2253-2.5655 18.795-0.80914 28.117 0.37167 9.2128 1.8754 4.6816 12.699-3.7007 11.833-16.139 5.6598-33.665 6.8038-50.781 8.2337-14.117 0.17685-28.382-0.70624-42.144-3.4718-7.0875-0.088074-14.883-6.0254-21.622-2.6459 1.6047 11.688 5.4792 23.161 5.1661 35.006 1.3869 6.8142 2.0108 13.678 1.2126 20.581-0.57217 3.4546 2.4576 4.5545 1.5716 0.56885-0.62363 6.5974 2.7681 12.38 1.9448 19.184 0.582 9.546 1.3749 19.082 1.9116 28.63 6.3621 4.5052 14.87 6.7341 22.593 8.4373 8.5985 2.2637 17.478 1.9654 26.344 1.8077 9.4218 0.97943 16.612-1.3879 25.347-1.0179 8.2444-1.6527 16.825-3.757 24.579-7.2683 9.367-4.3717 2.2622 9.1818 0.92712 12.417-5.4344 6.9571-15.702 8.6836-24.514 10.38-5.4104 0.48474-10.847 0.95728-16.242 1.4261z" fill="#ff7f00"/>
 <path d="m506.73 415.65c-7.9865-0.068665-15.976 0.13538-23.96-0.10028-5.7068-1.897-12.104-0.39426-17.827-2.4715-6.5094-1.4806-14.373-1.7885-18.958-6.6067-2.5047-4.5396-1.7608-9.9446-2.3302-14.956 0.26578-6.2094 0.4682-12.464-1.094-18.566-0.71048-6.498 1.0772-13.231-1.4272-19.545 0.38428-6.3902-1.2048-12.775-2.074-19.078-1.703-7.4615-2.0665-15.105-4.3161-22.457-0.68631-6.6202 9.4246-0.38626 13.745-0.64899 8.0712 2.1399 16.471 2.6646 24.77 3.7637 8.8166 0.71143 18.02 0.95904 26.757-0.12503 6.6894-0.60455 13.423-0.5376 20-1.8937 14.744-1.9875 29.063-5.7573 43.125-10.011-1.308 6.6589-1.0148 13.477-2.2132 20.086-0.87305 6.5057 0.20398 13.088-1.574 19.501-0.26941 6.606 0.038086 13.232-1.3995 19.768 0.1872 6.583-1.6455 13.01-1.4568 19.62 0.78845 5.1506-0.018677 10.458-3.4302 14.849-3.5693 7.3722-13.592 8.6546-20.711 12.356-6.2009 1.8829-12.112 4.4942-18.686 5.3801-2.4353 0.016602-4.6375 0.83203-6.9389 1.1356z" fill="#f00"/>
 <path d="m506.73 282.46c-9.2702-0.26718-18.69 0.55026-27.864-0.43796-5.5978-1.2282-11.505-0.22144-17.059-1.7381-8.0381-0.89145-15.949-1.9773-23.996-3.0184-5.5085-2.1415-11.538-2.4402-17.075-4.2402-6.0595-2.5097-12.7-3.3383-18.576-6.4234-7.568-2.422-0.86041-10.346-3.0151-15.779 0.022491-8.9203 0.11414-17.842-0.11722-26.761-0.82809-4.7584-3.9528-14.969-2.278-16.835 5.2243 3.7317 9.9997 8.1527 16.412 9.9765 5.6618 3.7592 13.086 4.1333 19.591 6.3832 7.0471-0.61978 13.411 2.5371 20.432 3.1518 6.3631 1.4687 13.558 1.9962 19.955 3.3472 9.1427-0.03862 18.288 0.14624 27.428-0.1035 6.1791-1.6678 12.859-1.5834 18.969-3.289 6.5756-0.59541 12.998-1.7558 19.516-2.8432 6.0956-1.2862 12.77-1.2816 18.709-2.888 7.5218-0.19397 14.62-2.063 21.588-3.8953 3.9214-1.8294 6.2125-1.4975 3.3771 2.5044-0.12103 6.0371-3.6602 11.686-2.5316 18.027-0.37134 6.5841 1.1798 13.109 2.1268 19.332 3.983 6.8486-4.7261 8.6494-9.8914 10.998-5.2933 3.0717-11.499 4.5361-17.22 6.8834-8.0506 1.7683-15.967 4.4833-24.374 4.4538-7.477 2.01-15.194 2.2184-22.836 3.2768l-1.2678-0.0829z" fill="#bfbfbf"/>
 <path d="m545.59 271.97v-9.8559 9.8559z"/>
 <path d="m542.15 272.22l1.3118-26.182v-1.1383 27.32h-1.3118z"/>
 <path d="m548.71 271.08l-1.3118-1.1383v-2.2766l1.3118-29.597v33.012z"/>
 <path d="m555.27 271.08l1.3118-15.937-1.3118 15.937z"/>
 <path d="m561.83 268.8l1.3118-28.458 1.3119 26.182-2.6237 2.2766z"/>
 <path d="m416.22 267.67l-1.3119-20.49 1.3119 20.49z"/>
 <ellipse transform="matrix(-1.3119 0 0 1.1383 504.29 139.47)" cx="-48.864" cy="97.622" rx="1" ry="13"/>
 <path d="m426.71 263.11v-29.597l1.3119 29.597h-1.3119z"/>
 <path d="m422.07 258.42v-36.96 36.96z"/>
 <path d="m409.66 258.56h-1.3118v-37.565l1.3118 37.565z"/>
 <path d="m404.41 257.42v-19.352l1.3119 18.213-1.3119 2.2766v-1.1383z"/>
 <ellipse transform="matrix(-1.3119 0 0 1.1383 504.29 139.47)" cx="-52.864" cy="94.622" rx="1" ry="8"/>
 <path d="m414.97 241.17v-24.64 24.64z"/>
 <path d="m489.68 225.55c-5.9511 1.9426-12.767 1.4069-18.742 0.090164-7.8349 0.33244-15.005-2.2932-22.858-2.5838-5.598-2.3923-11.94-2.5928-17.873-3.5312-5.4985-1.0661-9.8556-4.3267-15.149-5.6384-5.3938-2.5554-10.884-5.3559-15.119-9.289-4.5794-2.6063-7.7122-11.879-2.1025-13.835 5.9644-4.1405 13.68-5.6255 20.291-9.0036 7.1009-2.074 14.292-4.3305 21.705-5.2576 5.3073-2.0129 13.051 0.28957 17.311-2.0799 6.0778 1.9366 12.7 0.059326 19.066 0.10376 7.613 0.90082 15.553 0.97868 23.222 2.0763 7.8039-0.73256 14.941 2.2636 22.559 2.2483 6.3747 0.23488 12.316 2.0924 18.466 3.4635 6.3809 0.51302 12.198 3.5625 18.22 5.3915 5.9111 1.1258 10.118 4.8453 15.361 6.8929 3.9607 3.1818 12.027 5.4831 11.407 11.204-0.65448 6.6819-11.826 6.2004-17.56 8.9033-5.7035 1.2688-11.108 2.4072-16.903 3.9442-5.1144 1.3319-10.591 2.7619-16.102 2.3163-6.9645-0.094406-13.233 2.9337-20.27 2.2964-8.1799 1.4029-16.384 2.505-24.931 2.2874z" fill="#3f3f3f"/>
 <path d="m526.41 218.72c-9.183-0.37944-18.366-0.75888-27.549-1.1383 2.4679-3.2806 7.4745-2.6705 11.307-3.5076 5.0792-1.1104 10.451-1.2848 15.297-3.1329 3.6822-0.17668 6.9789 3.4859 10.647 1.5876 3.8882-0.8719 8.0287-1.3034 11.87-2.5011 4.4484-0.86383 8.9727-2.1029 12.408-4.8155 3.0682-1.1755 7.403-5.9855 2.801-7.7716-3.6481-0.92653-7.1837-2.055-10.597-3.5228-12.43-4.0373-25.786-5.0692-38.491-8.2664-3.9894-0.93535-8.1322-1.291-12.185-2.0044-4.188-0.61751-9.1432-0.002396-12.356-2.9496-0.056458-3.6631 6.1596-1.2672 8.8419-1.1458 4.4589 0.82918 8.5125 3.1328 13.191 3.0571 6.5326 0.91513 12.733 3.0999 19.284 3.9435 3.6006 1.2244 7.2369 2.4077 11.164 2.3756 4.4833 0.30158 8.9999 0.98265 13.043 2.7537 3.8266 1.1605 7.4264 2.8422 11.013 4.4297 3.3353 2.395 3.3826 7.4279 0.51001 10.106-5.2552 3.5846-11.423 6.5768-18.213 7.0592-5.782 1.0194-11.623 1.7561-17.453 2.5313-1.7358 0.68236-3.0383 1.925-4.5323 2.912z"/>
 <path d="m481.81 218.72c-4.6152-1.9196-10.027-0.56889-14.692-2.3762-5.0721-1.2514-10.452-1.0792-15.496-2.4687-7.8745-1.6976-15.758-3.4749-23.377-5.9032-6.2447-2.5056-11.746-6.141-17.29-9.6248-2.2995-3.0064-1.7212-7.0383-0.094604-10.161 2.5037-2.892 6.7716-3.8071 10.312-5.3864 5.1256-1.3449 10.477-1.8956 15.695-2.8684 3.5784-0.23108 7.1815 0.49983 10.741-0.060349 2.5726-2.7138 6.694-1.9944 10.045-1.2358 5.1861 0.46872 10.399 0.78354 15.539 1.5722 3.6527 1.6181-0.46564 5.5764-3.3467 4.1282-5.3932 0.93211-10.743 2.1641-16.244 2.5241-0.43411-3.7135-5.4518-4.652-9.0154-4.601-4.3239-0.22224-8.6407 0.26779-12.808 1.2525-5.6272 1.0186-11.907 1.6067-16.317 5.1168-2.5488 2.5498-3.9061 6.3807-2.5344 9.6108 2.4703 2.988 6.8147 3.9744 10.54 5.2913 5.2464 1.1534 9.7252 4.0527 15.023 5.1131 9.9193 2.4999 20.166 3.8114 30.189 5.9458 5.2509 1.0029 10.502 2.0062 15.757 2.9927-1.4085-0.91098-1.2135 1.9896-2.6237 1.1383v-3.1e-5z"/>
 <g fill="#f00">
  <path d="m300 425.88c-2.1515-0.062012-4.3377 0.12772-6.467-0.10162-1.2992-0.28506-2.6702-0.051392-3.9593-0.40338-1.8654-0.20691-3.7015-0.45892-5.5692-0.70053-1.2784-0.49701-2.6777-0.56634-3.9628-0.9841-1.4063-0.58246-2.9474-0.77475-4.3113-1.4908-1.7564-0.5621-0.19962-2.4012-0.69974-3.662 0.005188-2.0703 0.02652-4.1409-0.027161-6.2108-0.19217-1.1043-0.91736-3.474-0.52866-3.907 1.2124 0.86606 2.3208 1.8921 3.809 2.3154 1.314 0.87244 3.0371 0.95929 4.5467 1.4814 1.6355-0.14383 3.2372 2.1052 4.8667 2.2478 1.4768 0.34091 3.0217-1.053 4.5064-0.73947 2.1219-0.008972 4.2444 0.033905 6.3657-0.024048 1.4341-0.38705 2.9844-0.36746 4.4023-0.76331 1.5261-0.13818 3.0166-0.4075 4.5294-0.65985 1.4147-0.29852 2.9638-0.29746 4.3421-0.67026 1.7457-0.045013 3.3932-0.47879 5.0102-0.90405 0.91022-0.42456 1.4418-0.34753 0.78378 0.58124-0.028137 1.4011-0.84949 2.7122-0.58752 4.1838-0.086151 1.528 0.2738 3.0425 0.49359 4.4868 0.92447 1.5894-1.0968 2.0074-2.2956 2.5525-1.2284 0.71289-2.6688 1.0528-3.9965 1.5975-1.8684 0.4104-3.7057 1.0405-5.6569 1.0337-1.7353 0.46649-3.5262 0.51486-5.2999 0.7605l-0.2942-0.0193z"/>
  <path d="m296.05 411.84c-1.3811 0.45084-2.963 0.32654-4.3497 0.020935-1.8183 0.077148-3.4824-0.53223-5.3048-0.59967-1.2992-0.55521-2.7712-0.60175-4.148-0.81952-1.2761-0.24744-2.2873-1.0042-3.5158-1.3086-1.2518-0.59305-2.5259-1.243-3.5089-2.1558-1.0628-0.60486-1.7899-2.7569-0.48795-3.2109 1.3842-0.96094 3.1748-1.3056 4.7091-2.0896 1.6481-0.48132 3.3169-1.005 5.0376-1.2202 1.2317-0.46716 3.0288 0.0672 4.0177-0.48273 1.4105 0.44946 2.9474 0.013763 4.4247 0.024078 1.7199 0.059814 4.0073 0.093262 4.8346 0.27109 2.0635 0.44366 0.90701 1.2203 2.1775 1.4022 1.8112-0.17001 1.8449-0.66605 3.6129-0.66962 1.4795 0.054504 2.8584 0.4856 4.2857 0.80383 1.4809 0.11905 2.831 0.82678 4.2286 1.2513 1.372 0.26126 2.3483 1.1245 3.5651 1.5997 0.91919 0.73846 2.7914 1.2725 2.6474 2.6004-0.15186 1.5508-2.7447 1.439-4.0754 2.0663-1.3236 0.29446-2.5781 0.55868-3.9229 0.91538-1.1869 0.30908-2.458 0.64096-3.7369 0.53757-1.6163-0.021912-3.0711 0.68088-4.7044 0.53296-1.8984 0.32559-3.8024 0.58139-5.7861 0.53088z"/>
 </g>
 <g fill="none" stroke="#000" stroke-width="1.419">
  <path d="m299.03 400.17c-12.732 10.723-12.732 11.481-12.732 11.481"/>
  <path d="m302.53 400.5c-12.732 10.723-12.732 11.481-12.732 11.481"/>
 </g>
 <path d="m367.49 402.34c1.706-1.0787 4.9377-1.1973 3.547-3.6412-0.16827-2.4123 0.29224-6.0179 0.31119-8.4093-0.1683-1.8078 0.34482-3.494 0.54996-5.2038 1.1592-2.5368-3.4497-3.2084-5.42-4.2553-2.8679-0.79535-6.166-1.5883-9.0863-1.0507-3.4795 0.22467-7.0779-0.022766-10.602 0.10815-2.4992 0.19327-4.8591 0.88849-7.2929 1.2211-2.4774 0.48102-4.9968 0.96896-7.2877 1.9197-2.2545 0.65802-4.114 2.1103-5.0502 3.8054 0.26877 1.7927 1.3196 3.5842 1.0308 5.4794 0.1423 2.1724-0.026886 5.5903-0.57284 7.7193 0.47333 0.67218 1.2952 1.1698 2.103 1.6763 7.0889 2.1802 11.265 3.2001 16.784 3.2135 7.6412 0.018463 13.779-0.68979 20.987-2.5826z"/>
 <g fill="#fff">
  <path d="m346.37 402.82c1.925-0.052399 3.8813 0.10788 5.7865-0.085876 1.1624-0.24075 2.3892-0.043396 3.5427-0.34073 1.6692-0.17477 3.312-0.38763 4.9832-0.59174 1.1439-0.41983 2.3961-0.47836 3.5459-0.83124 1.2583-0.492 2.6373-0.65445 3.8576-1.2593 1.5716-0.47479 0.17865-2.0283 0.62616-3.0933-0.00473-1.7488-0.023743-3.4978 0.024292-5.2463 0.17203-0.93283 0.82086-2.9345 0.47308-3.3003-1.0849 0.73157-2.0766 1.5983-3.4083 1.9558-1.1758 0.73697-2.7176 0.81027-4.0683 1.2513-1.4634-0.12149-2.8967 1.7782-4.3546 1.8987-1.3214 0.28793-2.7038-0.8895-4.0323-0.6246-1.8986-0.007629-3.7978 0.028656-5.6959-0.020325-1.2832-0.32694-2.6705-0.31036-3.9391-0.64478-1.3655-0.11673-2.6992-0.34424-4.0528-0.55737-1.2658-0.25217-2.6519-0.25125-3.8852-0.56616-1.562-0.038025-3.0362-0.40442-4.4832-0.76364-0.81433-0.35864-1.2901-0.29358-0.7012 0.49097 0.025024 1.1836 0.76001 2.291 0.52564 3.534 0.077118 1.2907-0.245 2.57-0.44165 3.79-0.82712 1.3426 0.98144 1.6957 2.0541 2.1562 1.0992 0.60217 2.388 0.88925 3.576 1.3494 1.6718 0.34665 3.3158 0.87891 5.0617 0.87314 1.5527 0.39404 3.1552 0.43491 4.7423 0.64236l0.2633-0.0162z"/>
  <path d="m349.91 390.96c1.2358 0.38083 2.6513 0.27582 3.892 0.01767 1.627 0.065186 3.1161-0.44955 4.7468-0.50653 1.1625-0.46899 2.4795-0.5083 3.7116-0.69226 1.1418-0.20898 2.0466-0.84821 3.1458-1.1054 1.1201-0.50098 2.2601-1.05 3.1397-1.821 0.95096-0.51092 1.6016-2.3287 0.43658-2.7122-1.2386-0.81168-2.8408-1.1028-4.2137-1.7651-1.4746-0.40659-2.9679-0.84894-4.5074-1.0307-1.1022-0.39459-2.7101 0.056793-3.595-0.40774-1.2622 0.37967-2.6374 0.011627-3.9592 0.020325-1.539 0.050537-3.5857 0.078796-4.3259 0.22897-1.8465 0.37479-0.81162 1.0308-1.9484 1.1844-1.6206-0.14365-1.6507-0.56262-3.2328-0.56561-1.3238 0.046051-2.5576 0.41019-3.8349 0.67899-1.325 0.10059-2.533 0.6984-3.7836 1.057-1.2275 0.2207-2.1012 0.94989-3.1899 1.3513-0.82254 0.62378-2.4976 1.0749-2.3688 2.1966 0.13586 1.3099 2.4558 1.2155 3.6465 1.7454 1.1844 0.24875 2.3068 0.47192 3.5101 0.77322 1.0621 0.26114 2.1994 0.54147 3.3438 0.4541 1.4463-0.018494 2.7479 0.5751 4.2093 0.4502 1.6987 0.27502 3.4023 0.49109 5.1773 0.44842z"/>
 </g>
 <g fill="none" stroke="#000" stroke-width="1.234">
  <path d="m347.24 381.1c11.392 9.0574 11.392 9.6978 11.392 9.6978"/>
  <path d="m344.11 381.38c11.392 9.0574 11.392 9.6978 11.392 9.6978"/>
 </g>
 <path d="m349.62 427.42c-2.0325-1.3614-5.8828-1.511-4.2259-4.5954 0.20056-3.0444-0.34818-7.5949-0.37073-10.613 0.20047-2.2816-0.41083-4.4096-0.65521-6.5675-1.3811-3.2016 4.11-4.0492 6.4574-5.3703 3.4168-1.0038 7.3463-2.0046 10.826-1.326 4.1454 0.28354 8.4326-0.028748 12.632 0.13648 2.9776 0.24393 5.7892 1.1213 8.6889 1.5411 2.9515 0.60706 5.9532 1.2229 8.6826 2.4228 2.686 0.83048 4.9014 2.6633 6.0168 4.8026-0.32019 2.2624-1.5721 4.5234-1.228 6.9153-0.16946 2.7416 0.032043 7.0552 0.68243 9.7422-0.56387 0.8483-1.543 1.4763-2.5054 2.1156-8.4459 2.7515-13.422 4.0387-19.996 4.0555-9.1038 0.023315-16.417-0.87054-25.004-3.2593z"/>
 <g fill="#ff0">
  <path d="m374.78 428.02c-2.2936-0.066132-4.6242 0.13614-6.8941-0.10837-1.385-0.30389-2.8465-0.054779-4.2207-0.43002-1.9887-0.22058-3.946-0.48923-5.9371-0.7468-1.3629-0.52985-2.8547-0.60376-4.2246-1.0491-1.4992-0.62091-3.1421-0.82593-4.5961-1.5892-1.8724-0.59924-0.21289-2.5598-0.74597-3.9039 0.005585-2.207 0.02829-4.4144-0.029022-6.6211-0.20483-1.1773-0.97794-3.7034-0.56357-4.1651 1.2925 0.92328 2.4741 2.0171 4.0606 2.4683 1.4008 0.93008 3.2377 1.0226 4.847 1.5793 1.7435-0.15332 3.4511 2.2442 5.1882 2.3963 1.5743 0.36337 3.2213-1.1226 4.8041-0.78836 2.262-0.009552 4.5248 0.036163 6.7861-0.025604 1.5288-0.41266 3.1816-0.39175 4.6932-0.81375 1.6268-0.14731 3.2158-0.43442 4.8285-0.70343 1.5082-0.31824 3.1596-0.31711 4.6289-0.71454 1.861-0.048004 3.6173-0.51041 5.3412-0.96374 0.97018-0.45264 1.537-0.37051 0.83551 0.61963-0.029938 1.4936-0.90558 2.8914-0.62631 4.4601-0.091858 1.629 0.2919 3.2435 0.52615 4.7831 0.9855 1.6944-1.1693 2.14-2.4472 2.7211-1.3097 0.75998-2.8451 1.1223-4.2606 1.7031-1.9918 0.4375-3.9504 1.1092-6.0305 1.1019-1.8499 0.49731-3.7592 0.54886-5.6501 0.81073l-0.3137-0.0205z"/>
  <path d="m370.56 413.06c-1.4724 0.48062-3.1588 0.34808-4.637 0.022308-1.9384 0.082245-3.7125-0.56738-5.6553-0.63928-1.385-0.59189-2.9542-0.64151-4.4221-0.87366-1.3604-0.26376-2.4384-1.0705-3.748-1.395-1.3345-0.63223-2.6928-1.3251-3.7407-2.2982-1.1331-0.64484-1.9081-2.939-0.52023-3.423 1.4757-1.0244 3.3846-1.3918 5.0203-2.2276 1.7569-0.51315 3.536-1.0714 5.3703-1.3008 1.313-0.49802 3.2288 0.071655 4.283-0.51459 1.5038 0.47916 3.1422 0.014679 4.7171 0.025665 1.8335 0.063751 4.272 0.099396 5.1538 0.289 2.1999 0.47296 0.96698 1.3009 2.3214 1.4948 1.9308-0.18124 1.9667-0.71005 3.8515-0.71384 1.5772 0.058105 3.0472 0.51767 4.5688 0.85693 1.5788 0.12692 3.018 0.88138 4.5079 1.3339 1.4625 0.27853 2.5033 1.1988 3.8005 1.7054 0.97998 0.78723 2.9757 1.3566 2.8223 2.7722-0.16199 1.6532-2.926 1.5341-4.3446 2.2028-1.4111 0.3139-2.7483 0.59558-4.182 0.97586-1.2654 0.32953-2.6203 0.68332-3.9838 0.57309-1.7231-0.023376-3.2739 0.72583-5.0151 0.56815-2.0238 0.34711-4.0536 0.61978-6.1682 0.56595z"/>
 </g>
 <g fill="none" stroke="#000" stroke-width="1.513">
  <path d="m373.74 400.62c-13.573 11.431-13.573 12.239-13.573 12.239"/>
  <path d="m377.47 400.96c-13.573 11.431-13.573 12.239-13.573 12.239"/>
 </g>
</svg>
