<svg xmlns="http://www.w3.org/2000/svg" viewBox="0 0 34 50"><path d="M13.4 46.1c-.8-.3-1.6-.7-2.3-1.4s-1.2-1.6-1.7-2.8c-.4-1.2-.6-2.7-.6-4.5V12.6c0-1.9.2-3.4.7-4.6.4-1.2 1-2.1 1.7-2.8s1.5-1.1 2.3-1.4c.8-.2 1.7-.4 2.5-.4h1.9c.8 0 1.7.1 2.5.4.9.2 1.6.7 2.3 1.4.8.7 1.3 1.6 1.8 2.8.4 1.2.7 2.7.7 4.6v3.6H19v-5.5c0-.4-.1-.7-.2-.8s-.4-.2-.8-.2h-1.9c-.4 0-.7.1-.8.2-.2.1-.3.4-.3.8v28.6c0 .4.1.7.2.8.1.1.4.2.8.2h1.9c.4 0 .7-.1.8-.2.1-.1.2-.4.2-.8V24.8H17v-6.2h8.2v27.9h-9.3c-.8 0-1.7-.1-2.5-.4z" fill="none" stroke="#d7df23" stroke-width=".25" stroke-miterlimit="10"/></svg>