<svg xmlns="http://www.w3.org/2000/svg"><defs><font id="GTWalsheimBold" horiz-adv-x="613"><font-face font-family="GT Walsheim Bold" font-weight="700" panose-1="2 0 5 3 4 0 0 2 0 3" ascent="750" descent="-250" x-height="482" cap-height="700" bbox="-150 -321 1242 1002" underline-thickness="50" underline-position="-200" unicode-range="U+0020-FB04"/><glyph glyph-name="IJ" unicode="IJ" horiz-adv-x="881" d="M67 0v700h164V0H67zm755 700V241q0-124-67.5-191T565-17 376.5 55.5 310 242h162q0-54 24-87t69-33q46 0 70.5 31.5T660 241v459h162z"/><glyph glyph-name="ij" unicode="ij" horiz-adv-x="561" d="M321 642q0 41 28.5 69t69.5 28q42 0 70.5-28t28.5-69q0-40-28.5-68.5T419 545q-41 0-69.5 28.5T321 642zm-278 0q0 41 28.5 69t69.5 28q42 0 70.5-28t28.5-69q0-40-28.5-68.5T141 545q-41 0-69.5 28.5T43 642zm22-160h153V0H65v482zm431 0V-75q0-87-34.5-121T367-230q-65 0-103 12v114q22-6 39-6 40 0 40 48v544h153z"/><glyph glyph-name="uniFB00" unicode="ff" horiz-adv-x="761" d="M748 698V588q-24 6-47 6-31 0-48-11.5T636 533v-51h112V368H636V0H483v368h-86v114h86v42q0 50 12 86.5t29.5 55.5 44.5 29.5 47.5 13T665 711q51 0 83-13zm-380 0V588q-24 6-47 6-32 0-49-11.5T255 533v-51h113V368H256V0H103v368H16v114h87v42q0 50 12 86.5t29.5 55.5 44.5 29.5 47.5 13T285 711q50 0 83-13z"/><glyph glyph-name="fi" unicode="fi" horiz-adv-x="698" d="M443 641q0 40 27.5 67.5T538 736t68-27.5 28-67.5q0-39-28-66.5T538 547t-67.5 27.5T443 641zm-76 57V588q-24 6-47 6-31 0-48-11.5T255 533v-51h112V368H255V0H102v368H16v114h86v42q0 50 12 86.5t29.5 55.5 44.5 29.5 47.5 13T284 711q51 0 83-13zM462 0v482h153V0H462z"/><glyph glyph-name="fl" unicode="fl" horiz-adv-x="662" d="M444 0v700h153V0H444zm-77 698V588q-24 6-47 6-31 0-48-11.5T255 533v-51h112V368H255V0H102v368H16v114h86v42q0 50 12 86.5t29.5 55.5 44.5 29.5 47.5 13T284 711q51 0 83-13z"/><glyph glyph-name="uniFB03" unicode="ffi" horiz-adv-x="1080" d="M822 642q0 41 28.5 69t69.5 28 69.5-28 28.5-69q0-40-28.5-68.5T920 545t-69.5 28.5T822 642zm-74 56V588q-24 6-47 6-31 0-48-11.5T636 533v-51h112V368H636V0H483v368h-86v114h86v42q0 50 12 86.5t29.5 55.5 44.5 29.5 47.5 13T665 711q51 0 83-13zm-380 0V588q-24 6-47 6-32 0-49-11.5T255 533v-51h113V368H256V0H103v368H16v114h87v42q0 50 12 86.5t29.5 55.5 44.5 29.5 47.5 13T285 711q50 0 83-13zM844 0v482h153V0H844z"/><glyph glyph-name="uniFB04" unicode="ffl" horiz-adv-x="1041" d="M826 0v700h153V0H826zm-78 698V588q-24 6-47 6-31 0-48-11.5T636 533v-51h112V368H636V0H483v368h-86v114h86v42q0 50 12 86.5t29.5 55.5 44.5 29.5 47.5 13T665 711q51 0 83-13zm-380 0V588q-24 6-47 6-32 0-49-11.5T255 533v-51h113V368H256V0H103v368H16v114h87v42q0 50 12 86.5t29.5 55.5 44.5 29.5 47.5 13T285 711q50 0 83-13z"/><glyph glyph-name=".notdef" horiz-adv-x="800" d="M400 717q162 0 262-109t100-258T662 92 400-17 138 92 38 350t100 258 262 109zm0-22q-76 0-143-29-60-27-106-76-45-50-67-110-24-63-24-130 0-68 24-129 22-62 67-110 46-50 106-76Q324 6 400 6t142 29q60 26 106 76 45 48 67 110 24 61 24 129 0 67-24 130-22 60-67 110-46 49-106 76-66 29-142 29zM201 500q0 18 12.5 30.5T243 543q18 0 30.5-12.5T286 500q0-17-12.5-30T243 457q-17 0-29.5 13T201 500zm297 0q0 18 12.5 30.5T540 543q18 0 30.5-12.5T583 500q0-17-12.5-30T540 457q-17 0-29.5 13T498 500zm-32-241H219l179 268-110-243h178v-25zm-318-52h-16q0 6 2 20 4 14 9 20 2 3 9 8l11 7q5 3 24 10 1 0 1 1 4 1 9 8 4 6 4 10 0 6-2 18l-3 20 17 2q0-6 2-20 2-12 2-20 0-9-7-20-7-9-14-13h-2l-2-1q-17-7-21-10-4-1-10-5-4-4-6-5-3-5-5-13-2-12-2-17zm468-50l-16 4q2 7 2 18-2 9-4 13-1 3-3 5-1 0-3 2-2 0-4 2l-14 5q-25 13-33 19-10 7-18 20l-4 11q0 1-1.5 6t-1.5 8q-4 20-4 31 3 18 3 19l15-5q0-1-.5-4.5t-.5-5.5v-13q2-20 4-27l5-12q5-9 19-20 4-2 8.5-4.5t9.5-5 8-3.5l15-6q3-1 7-5 6-4 7-9 5-9 6-19 0-16-2-24zm-448 71q82-49 116-60 35-11 72-11 148 0 220 37 1 0 3 2-26-57-107-99-57-31-106-31-102 0-198 162zm62-59q26-39 67.5-58T366 92q71 0 161 63-119-23-169-23-90 0-128 37z"/><glyph glyph-name=".null" horiz-adv-x="0"/><glyph glyph-name="nonmarkingreturn" horiz-adv-x="333"/><glyph glyph-name="space" horiz-adv-x="243"/><glyph glyph-name="exclam" unicode="!" horiz-adv-x="338" d="M87 242v458h164V242H87zM65 87q0 42 30 72t73 30q44 0 74.5-30T273 87t-30.5-72.5T168-16q-43 0-73 30.5T65 87z"/><glyph glyph-name="quotedbl" unicode="&quot;" horiz-adv-x="418" d="M273 432l-33 154v125h129V586l-33-154h-63zm-192 0L49 586v125h128V586l-32-154H81z"/><glyph glyph-name="numbersign" unicode="#" horiz-adv-x="590" d="M256 412l-17-124h103l17 124H256zM302 0l24 180H224L198 0H87l25 180H26v108h101l17 124H56v108h103l25 180h112l-25-180h103l25 180h111l-25-180h80V412h-95l-17-124h82V180h-97L413 0H302z"/><glyph glyph-name="dollar" unicode="$" horiz-adv-x="606" d="M373 822V715q100-12 153-73.5T579 495H417q0 47-22.5 74T330 596q-36 0-60.5-19T245 524q0-32 25.5-53.5T345 432q33-11 50.5-17.5t48-20T491 370t39-28.5 33-36.5 19.5-44.5T591 206q0-95-59-152.5T373-15v-107h-89v107Q185-3 124.5 62T64 232h162q0-56 31-88.5t81-32.5q40 0 66 23t26 59q0 20-7.5 35t-25 27-32.5 18.5-44 17.5q-50 18-75.5 28.5t-62 31.5-54.5 42-31.5 54T84 521q0 81 56.5 132T284 715v107h89z"/><glyph glyph-name="percent" unicode="%" horiz-adv-x="955" d="M219 0l399 754 106-53L324-53zm8 306q-70 0-112.5 40.5T72 445v125q0 58 42.5 98.5T227 709q69 0 112-40.5t43-98.5V445q0-58-43-98.5T227 306zm48 139v125q0 22-13.5 37T227 622t-34.5-15-13.5-37V445q0-22 13.5-37t34.5-15 34.5 15 13.5 37zm607-190V130q0-58-43-98.5T727-9q-70 0-112.5 40.5T572 130v125q0 58 42.5 98.5T727 394q69 0 112-40.5t43-98.5zM679 130q0-22 13.5-37T727 78t34.5 15 13.5 37v125q0 22-13.5 37T727 307t-34.5-15-13.5-37V130z"/><glyph glyph-name="ampersand" unicode="&amp;" horiz-adv-x="633" d="M346 231v126h265V231h-46q-2-112-72.5-179T298-15q-103 0-180.5 57.5T40 201q0 110 115 163Q51 410 51 519q0 93 70.5 144.5T294 715q123 0 185.5-64T542 491H380q0 102-88 102-37 0-59-20t-22-58q0-86 100-86V304q-109 0-109-99 0-37 27.5-63.5T303 115q42 0 72 31.5t31 84.5h-60z"/><glyph glyph-name="quotesingle" unicode="'" horiz-adv-x="224" d="M80 432L48 586v125h128V586l-32-154H80z"/><glyph glyph-name="parenleft" unicode="(" horiz-adv-x="399" d="M362 775V637q-58 0-93.5-40T233 499V45q0-58 35.5-98T362-93v-138q-128 0-207 80T76 45v454q0 116 79 196t207 80z"/><glyph glyph-name="parenright" unicode=")" horiz-adv-x="399" d="M36 637v138q129 0 208-80t79-196V45q0-116-79-196T36-231v138q59 0 94.5 40T166 45v454q0 58-35.5 98T36 637z"/><glyph glyph-name="asterisk" unicode="*" horiz-adv-x="466" d="M153 339l-75 53 96 118-134 35 28 83 131-53-11 142h91l-11-142 130 53 28-83-134-35 96-118-75-53-80 131z"/><glyph glyph-name="plus" unicode="+" d="M372 71H241v152H93v123h148v152h131V346h148V223H372V71z"/><glyph glyph-name="comma" unicode="," horiz-adv-x="309" d="M46 90q0 42 29.5 71.5T146 191q50 0 81.5-35.5T259 63q0-111-52.5-159T51-145v62q56 0 91 26 27 22 30 56-8-8-26-8-45 0-72.5 28.5T46 90z"/><glyph glyph-name="hyphen" unicode="-" horiz-adv-x="317" d="M285 358V236H32v122h253z"/><glyph glyph-name="period" unicode="." horiz-adv-x="302" d="M50 91q0 41 29 70.5t72 29.5 72-29.5T252 91t-29-70.5T151-9 79 20.5 50 91z"/><glyph glyph-name="slash" unicode="/" horiz-adv-x="491" d="M8-19l351 816 124-53L132-72z"/><glyph glyph-name="zero" unicode="0" horiz-adv-x="616" d="M41 235v230q0 105 73.5 177.5T307 715t193.5-73T575 465V235q0-104-74.5-177T307-15 114.5 57.5 41 235zm372 0v230q0 47-29.5 80T307 578t-75.5-33-28.5-80V235q0-47 28.5-80t75.5-33 76.5 33 29.5 80z"/><glyph glyph-name="one" unicode="1" horiz-adv-x="405" d="M29 463v114q98 0 132 28t34 95h143V0H173v463H29z"/><glyph glyph-name="two" unicode="2" horiz-adv-x="577" d="M45 0q0 82 12.5 141.5T98 242t56.5 66 75.5 54q87 52 108 72 39 35 39 80 0 40-22 59.5T297 593q-40 0-64.5-25T208 491H47q0 98 66.5 161T296 715q104 0 172-53.5T536 503q0-42-17.5-79t-50-66.5T412 311t-59-38q-76-51-99-76.5T231 131h300V0H45z"/><glyph glyph-name="three" unicode="3" horiz-adv-x="601" d="M32 235h162q0-56 29-88t76-32q43 0 68 27t25 65q0 97-103 97h-63v125h63q51 0 72 22.5t21 63.5q0 38-21.5 58T302 593q-49 0-69-26.5T213 491H51q0 97 62 160.5T298 715q103 0 173.5-51T542 519q0-57-29.5-98.5T439 364q50-18 82-61.5T553 195q0-96-73.5-153T301-15q-127 0-198 68.5T32 235z"/><glyph glyph-name="four" unicode="4" horiz-adv-x="611" d="M337 0v193H57v507h162V330h118v193h161V330h85V193h-85V0H337z"/><glyph glyph-name="five" unicode="5" horiz-adv-x="635" d="M69 295v405h473V574H218V418q19 31 59.5 47.5T360 482q110 0 169.5-71.5T589 240q0-108-73.5-181.5T320-15q-121 0-194 73.5T53 238h157q0-50 30.5-84.5T320 119q50 0 81 35t31 86q0 49-30.5 84T321 359q-69 0-101-64H69z"/><glyph glyph-name="six" unicode="6" horiz-adv-x="600" d="M298-14q-121 0-194 73.5T31 240q0 78 43 145l202 315h182L318 490q21-3 42-11 94-12 150-79.5T566 240q0-107-73-180.5T298-14zm0 135q50 0 81 34.5t31 84.5q0 51-31 85t-81 34q-49 0-79.5-34T188 240q0-50 30.5-84.5T298 121z"/><glyph glyph-name="seven" unicode="7" horiz-adv-x="531" d="M35 700h503L240 0H67l243 564H35v136z"/><glyph glyph-name="eight" unicode="8" horiz-adv-x="616" d="M309-15q-121 0-192.5 61.5T45 200q0 57 32 104t81 61q-44 17-69.5 58.5T63 514q0 86 66.5 143.5T309 715q112 0 178.5-58T554 514q0-49-25.5-90.5T459 365q49-16 80.5-63T571 199q0-90-70.5-152T309-15zm0 434q41 0 66 25.5t25 61.5-25 61.5-66 25.5q-43 0-68-25t-25-62q0-36 25-61.5t68-25.5zm0-312q48 0 77 28.5t29 67.5q0 40-28.5 68.5T309 300q-50 0-78.5-28T202 203q0-40 29-68t78-28z"/><glyph glyph-name="nine" unicode="9" horiz-adv-x="600" d="M324 0H142l140 209q-114 7-181 76.5T34 460q0 107 73 180.5T302 714q121 0 194-73.5T569 460q0-77-43-145zm-22 579q-50 0-81-34.5T190 460q0-51 31-85t81-34q49 0 79.5 34t30.5 85q0 50-30.5 84.5T302 579z"/><glyph glyph-name="colon" unicode=":" horiz-adv-x="303" d="M50 412q0 42 29 71t72 29 72-29 29-71-29-71-72-29-72 29-29 71zm0-321q0 41 29.5 70.5T151 191q43 0 72.5-29.5T253 91t-29.5-70.5T151-9q-42 0-71.5 29.5T50 91z"/><glyph glyph-name="semicolon" unicode=";" horiz-adv-x="309" d="M50 412q0 42 29 71t72 29 72-29 29-71-29-71-72-29-72 29-29 71zm0-322q0 42 29 71.5t70 29.5q51 0 82.5-35.5T263 63q0-110-53-158.5T55-145v62q56 0 91 26 25 22 30 56-8-8-27-8-45 0-72 28.5T50 90z"/><glyph glyph-name="less" unicode="&lt;" d="M566 46L41 224v120l525 177V383l-324-99 324-99V46z"/><glyph glyph-name="equal" unicode="=" d="M520 313H93v122h427V313zm0-181H93v122h427V132z"/><glyph glyph-name="greater" unicode="&gt;" d="M572 224L48 46v139l323 99-323 99v138l524-177V224z"/><glyph glyph-name="question" unicode="?" horiz-adv-x="542" d="M176 218q1 68 19 109t69 75q26 18 40.5 30t29.5 35.5 15 49.5q0 37-23 56.5T265 593t-62-25-24-77H19q0 98 65.5 161T265 715q102 0 172-52.5T507 517q0-16-2-31.5t-7.5-28.5-10-24-13.5-22-14-18-16.5-17-15.5-13.5-15.5-12.5-12.5-10q-40-32-52-54t-12-68H176zM152 87q0 42 30 72t74 30q43 0 73.5-30T360 87t-30.5-72.5T256-16q-44 0-74 30.5T152 87z"/><glyph glyph-name="at" unicode="@" horiz-adv-x="871" d="M470-194q-107 0-194 34.5T134-66 49.5 67.5 20 224q0 188 126.5 303.5T453 643q184 0 299.5-98.5T868 279q0-294-198-294-55 0-93.5 28.5T522 88q-15-27-49-46.5T402 22q-85 0-140 58t-55 144 56 144.5T402 427q37 0 71-19t49-46v56h116V182q0-51 12.5-73T690 87q63 0 63 195 0 118-83 187.5T453 539q-136 0-227-85t-91-230q0-130 87.5-222.5T470-91q112 0 201 47l43-89q-108-61-244-61zm-46 315q43 0 71 30t28 73q0 44-28 74t-71 30q-42 0-68.5-30T329 224q0-43 26.5-73t68.5-30z"/><glyph glyph-name="A" unicode="A" horiz-adv-x="660" d="M413 212l-84 288-86-288h170zM656 0H480l-27 85H204L177 0H4l250 700h149z"/><glyph glyph-name="B" unicode="B" horiz-adv-x="633" d="M63 0v700h290q55 0 97-13t66-32.5 39-46 20-49.5 5-48q0-61-37.5-103T458 355q41-1 84.5-44.5T586 196q0-25-5-49t-20.5-51.5-40-48-67-34T356 0H63zm161 415h97q53 0 75 25.5t22 58.5q0 32-21 57t-76 25h-97V415zm102-119H224V124h101q54 0 75.5 25t21.5 61q0 32-22 59t-74 27z"/><glyph glyph-name="C" unicode="C" horiz-adv-x="788" d="M585 251h172Q736 135 642 58.5T408-18Q237-18 134.5 89.5T32 351q0 150 101 258.5T399 718q156 0 248.5-81.5T756 428H587q-12 64-58.5 104T409 572q-98 0-155-65t-57-156q0-96 59-159.5T417 128q59 0 106.5 35t61.5 88z"/><glyph glyph-name="D" unicode="D" horiz-adv-x="720" d="M67 700h257q166 0 265-104t99-246q0-92-41.5-170.5t-126-129T324 0H67v700zm249-140h-87V140h87q94 0 150.5 62T523 350t-56.5 148T316 560z"/><glyph glyph-name="E" unicode="E" horiz-adv-x="555" d="M494 570H229V411h265V284H229V130h265V0H67v700h427V570z"/><glyph glyph-name="F" unicode="F" horiz-adv-x="550" d="M494 564H229V375h265V242H229V0H67v700h427V564z"/><glyph glyph-name="G" unicode="G" horiz-adv-x="835" d="M455 249v121h363V249h-72Q724 126 634.5 54T399-18q-113 0-198 51.5t-127 134T32 350q0 150 101 259t266 109q134 0 224-71t99-174H549q-8 44-49 74.5T398 578q-94 0-147-67t-53-162q0-99 55-164.5T412 119q70 0 114 37t53 93H455z"/><glyph glyph-name="H" unicode="H" horiz-adv-x="699" d="M471 0v278H229V0H67v700h162V417h242v283h161V0H471z"/><glyph glyph-name="I" unicode="I" horiz-adv-x="298" d="M67 0v700h164V0H67z"/><glyph glyph-name="J" unicode="J" horiz-adv-x="583" d="M523 700V241q0-124-67.5-191T267-17Q145-17 78.5 55.5T12 242h162q0-54 24-87t69-33q46 0 70.5 31.5T362 241v459h161z"/><glyph glyph-name="K" unicode="K" horiz-adv-x="659" d="M455 0L229 296V0H67v700h162V403l226 297h195L373 350 650 0H455z"/><glyph glyph-name="L" unicode="L" horiz-adv-x="453" d="M229 140h199V0H67v700h162V140z"/><glyph glyph-name="M" unicode="M" horiz-adv-x="877" d="M810 700V0H652v434L501 0H381L225 434V0H67v700h187l187-487 185 487h184z"/><glyph glyph-name="N" unicode="N" horiz-adv-x="717" d="M236 700l253-456v456h161V0H481L229 450V0H67v700h169z"/><glyph glyph-name="O" unicode="O" horiz-adv-x="805" d="M403-18Q235-18 133.5 90.5T32 350t101.5 259.5T403 718q167 0 268.5-108.5T773 350 671.5 90.5 403-18zm0 146q92 0 148.5 66T608 350t-56.5 156T403 572t-148.5-65.5T198 350t56.5-156.5T403 128z"/><glyph glyph-name="P" unicode="P" horiz-adv-x="635" d="M67 0v700h293q113 0 184-74t71-179-71-179-184-74H229V0H67zm273 326q50 0 81 35.5t31 85.5-31 85.5-81 35.5H229V326h111z"/><glyph glyph-name="Q" unicode="Q" horiz-adv-x="805" d="M773 350q0-107-54.5-197T568 21l60-81-142-72-84 114Q234-17 133 91T32 350t101.5 259.5T403 718q167 0 268.5-108.5T773 350zM403 128q92 0 148.5 66T608 350t-56.5 156T403 572t-148.5-65.5T198 350t56.5-156.5T403 128z"/><glyph glyph-name="R" unicode="R" horiz-adv-x="654" d="M340 326q50 0 81 35.5t31 85.5-31 85.5-81 35.5H229V326h111zM67 0v700h294q113 0 184-74t71-179q0-74-37-134.5T477 221L617 0H429L305 194h-76V0H67z"/><glyph glyph-name="S" unicode="S" horiz-adv-x="606" d="M38 232h162q0-56 31-88.5t81-32.5q40 0 66 23t26 59q0 20-7.5 35t-25 27-32.5 18.5-44 17.5q-50 18-75.5 28.5t-62 31.5-54.5 42-31.5 54T58 521q0 92 72 144.5T304 718q119 0 184-64t65-159H391q0 47-22.5 74T304 596q-36 0-60.5-19T219 524q0-32 25.5-53.5T319 432q33-11 50.5-17.5t48-20T465 370t39-28.5 33-36.5 19.5-44.5T565 206q0-106-72.5-165T302-18q-116 0-190 66.5T38 232z"/><glyph glyph-name="T" unicode="T" horiz-adv-x="509" d="M173 0v560H15v140h479V560H335V0H173z"/><glyph glyph-name="U" unicode="U" horiz-adv-x="657" d="M56 239v461h162V240q0-49 31-83.5t79-34.5q49 0 80 34.5t31 83.5v460h162V239q0-111-75-184T328-18 130.5 55.5 56 239z"/><glyph glyph-name="V" unicode="V" horiz-adv-x="644" d="M648 700L395 0H246L-4 700h173l152-494 151 494h176z"/><glyph glyph-name="W" unicode="W" horiz-adv-x="1035" d="M657 0L518 440 379 0H246L-1 700h171l143-459 142 459h125l143-459 142 459h171L789 0H657z"/><glyph glyph-name="X" unicode="X" horiz-adv-x="609" d="M304 474l122 226h179L397 350 605 0H426L304 225 182 0H4l208 350L4 700h178z"/><glyph glyph-name="Y" unicode="Y" horiz-adv-x="647" d="M649 700L302 0H123l129 263L4 700h189l149-275 128 275h179z"/><glyph glyph-name="Z" unicode="Z" horiz-adv-x="632" d="M45 564v136h572L274 136h332V0H17l342 564H45z"/><glyph glyph-name="bracketleft" unicode="[" horiz-adv-x="385" d="M325-223H67v998h258V642H220V-91h105v-132z"/><glyph glyph-name="backslash" unicode="\" horiz-adv-x="491" d="M132 797L483-19 359-72 8 744z"/><glyph glyph-name="bracketright" unicode="]" horiz-adv-x="385" d="M318-223H60v132h105v732H60v134h258v-998z"/><glyph glyph-name="asciicircum" unicode="^" horiz-adv-x="636" d="M594 300H445L318 571 188 300H42l232 450h87z"/><glyph glyph-name="underscore" unicode="_" horiz-adv-x="583" d="M562-132H22v92h540v-92z"/><glyph glyph-name="grave" unicode="`" horiz-adv-x="513" d="M359 503L83 631l48 106 276-128z"/><glyph glyph-name="a" unicode="a" horiz-adv-x="635" d="M302 118q51 0 83 36t32 87-32 87-83 36-83-36-32-87 32-87 83-36zm115 364h153V0H417v68q-18-34-59.5-57T270-12q-103 0-169 72T35 241t66 181 169 72q46 0 87.5-23.5T417 413v69z"/><glyph glyph-name="b" unicode="b" horiz-adv-x="637" d="M218 68V0H65v700h153V413q18 34 60 57.5t88 23.5q103 0 169-72t66-181-66-181-169-72q-46 0-88 23t-60 57zm116 50q50 0 82 36t32 87-32 87-82 36q-51 0-83.5-36T218 241q0-52 32.5-87.5T334 118z"/><glyph glyph-name="c" unicode="c" horiz-adv-x="575" d="M541 293H388q-10 72-95 72-52 0-79.5-35.5T186 241q0-54 28-89t85-35q70 0 90 64h153q-12-86-76-140T292-13q-121 0-190 74T33 241t69 180 190 74q115 0 178-58t71-144z"/><glyph glyph-name="d" unicode="d" horiz-adv-x="635" d="M302 118q51 0 83 36t32 87-32 87-83 36-83-36-32-87 32-87 83-36zM417 0v68q-18-34-59.5-57T270-12q-103 0-169 72T35 241t66 181 169 72q46 0 87.5-23.5T417 413v287h153V0H417z"/><glyph glyph-name="e" unicode="e" horiz-adv-x="577" d="M533 204H186q6-107 107-107 71 0 89 55h150q-11-71-74.5-118T294-13q-124 0-192 69.5T34 241q0 110 67.5 182T290 495q110 0 179-64.5T538 275q0-42-5-71zM289 393q-46 0-74.5-26.5T186 292h202q0 46-27.5 73.5T289 393z"/><glyph glyph-name="f" unicode="f" horiz-adv-x="380" d="M368 698V588q-24 6-47 6-32 0-49-11.5T255 533v-51h113V368H256V0H103v368H16v114h87v42q0 50 12 86.5t29.5 55.5 44.5 29.5 47.5 13T285 711q50 0 83-13z"/><glyph glyph-name="g" unicode="g" horiz-adv-x="633" d="M302 364q-50 0-82-36t-32-87 32-87 82-36q51 0 83.5 35.5T418 241q0 51-32.5 87T302 364zm269 118V3q0-124-76-182-69-52-195-52-123 0-189 56-67 57-70 138h153q3-33 31-57t75-24q56 0 87 27t31 82v81q-20-33-60.5-54T271-3Q167-3 101 65.5T35 241q0 110 65 181.5T269 494q47 0 88-22t61-59v69h153z"/><glyph glyph-name="h" unicode="h" horiz-adv-x="597" d="M65 0v700h148V412q44 82 156 82 89 0 131-55 39-48 39-154V0H391v247q0 117-85 117-45 0-69-32.5T213 242V0H65z"/><glyph glyph-name="i" unicode="i" horiz-adv-x="283" d="M43 642q0 41 28.5 69t69.5 28q42 0 70.5-28t28.5-69q0-40-28.5-68.5T141 545q-41 0-69.5 28.5T43 642zM65 0v482h153V0H65z"/><glyph glyph-name="j" unicode="j" horiz-adv-x="283" d="M43 642q0 41 28.5 69t69.5 28q42 0 70.5-28t28.5-69q0-40-28.5-68.5T141 545q-41 0-69.5 28.5T43 642zm175-160V-75q0-87-36.5-121T82-230q-60 0-96 12v117q18-3 39-3 40 0 40 49v537h153z"/><glyph glyph-name="k" unicode="k" horiz-adv-x="554" d="M549 482L361 241 548 0H366L218 202V0H65v700h153V278l149 204h182z"/><glyph glyph-name="l" unicode="l" horiz-adv-x="283" d="M65 0v700h153V0H65z"/><glyph glyph-name="m" unicode="m" horiz-adv-x="878" d="M818 0H671v260q0 104-74 104-81 0-81-122V0H368v261q0 103-72 103-83 0-83-125V0H65v482h148v-70q17 36 54 59t85 23q110 0 146-87 19 39 59 63t92 24q50 0 85-16t52.5-45 24.5-61.5 7-74.5V0z"/><glyph glyph-name="n" unicode="n" horiz-adv-x="607" d="M65 0v482h153v-70q43 82 158 82 93 0 135-55 38-47 38-153V0H396v247q0 117-85 117-45 0-69-32.5T218 242V0H65z"/><glyph glyph-name="o" unicode="o" horiz-adv-x="599" d="M299-13q-121 0-194 73.5T32 241t73 180.5T299 495q122 0 195-73.5T567 241 494 60.5 299-13zm0 131q51 0 83.5 35.5T415 241t-32.5 87.5T299 364t-82.5-35.5T185 241t31.5-87.5T299 118z"/><glyph glyph-name="p" unicode="p" horiz-adv-x="637" d="M334 364q-51 0-83.5-35.5T218 241t32.5-87.5T334 118q50 0 82 36t32 87-32 87-82 36zM218 482v-69q18 34 60 57.5t88 23.5q103 0 169-72t66-181-66-181-169-72q-46 0-88 23.5T218 69v-287H65v700h153z"/><glyph glyph-name="q" unicode="q" horiz-adv-x="637" d="M419 413v69h152v-700H419V69q-18-34-60-57.5T271-12q-103 0-169 72T36 241t66 181 169 72q46 0 88-23.5t60-57.5zm-116-49q-50 0-82-36t-32-87 32-87 82-36q51 0 83.5 35.5T419 241t-32.5 87.5T303 364z"/><glyph glyph-name="r" unicode="r" horiz-adv-x="417" d="M411 482V343q-29 7-54 7-139 0-139-162V0H65v482h153v-78q17 36 58 61t89 25q27 0 46-8z"/><glyph glyph-name="s" unicode="s" horiz-adv-x="510" d="M318 284q40-12 61.5-20.5t46.5-24 36-39.5 11-58q0-81-60-118T255-13Q151-13 92 32.5T33 161h150q0-71 77-71 63 0 63 45 0 6-1.5 11t-4.5 9.5-7 8-11 7-13.5 6-18 6.5-20.5 7-25 8-28 9q-31 10-47 15.5T108 240t-34.5 25.5-20 34.5-8.5 48q0 73 56.5 110T258 495q101 0 154.5-45.5T466 332H315q0 63-63 63-25 0-41-11t-16-32q0-7 2-13t8.5-11 12-8.5 18-8.5 22-8l28.5-9 32-10z"/><glyph glyph-name="t" unicode="t" horiz-adv-x="383" d="M366 117V0q-46-8-102-8-27 0-46 2T173.5 5.5t-41.5 27T104.5 83 93 162v206H17v114h76v143h152V482h110V368H245V196q0-49 16.5-65.5T311 114q34 0 55 3z"/><glyph glyph-name="u" unicode="u" horiz-adv-x="607" d="M389 482h153V0H389v69q-43-81-158-81-93 0-135 55-37 46-37 153v286h152V235q0-117 85-117 46 0 69.5 32.5T389 240v242z"/><glyph glyph-name="v" unicode="v" horiz-adv-x="551" d="M-2 482h160l117-303 118 303h160L335 0H213z"/><glyph glyph-name="w" unicode="w" horiz-adv-x="803" d="M500 0l-98 307L303 0H179L-1 482h158l89-287 85 287h141l85-287 89 287h158L624 0H500z"/><glyph glyph-name="x" unicode="x" horiz-adv-x="514" d="M348 243L513 0H336l-79 140L178 0H1l166 243L4 482h177l76-136 76 136h177z"/><glyph glyph-name="y" unicode="y" horiz-adv-x="615" d="M303-231q-117 0-178 50-66 56-66 144h153q2-40 28-62t65-22q47 0 70.5 22.5T399-22v99Q357-4 245-4q-95 0-139 58-37 46-37 149v279h152V235q0-117 85-117 46 0 69.5 32.5T399 240v242h153V-12q0-111-67-167-62-52-182-52z"/><glyph glyph-name="z" unicode="z" horiz-adv-x="480" d="M31 482h436L255 130h205V0H18l213 352H31v130z"/><glyph glyph-name="braceleft" unicode="{" horiz-adv-x="477" d="M309 775h101V651h-42q-36 0-52-23.5T300 570V382q0-56-32.5-83.5T201 268q15-2 29-7.5t31.5-17.5 28-36.5T300 148V-19q0-34 16-57.5t52-23.5h42v-123H309q-71 0-116.5 42T147-64v179q0 43-27 64t-60 21v135q33 0 60 20t27 60v200q0 76 45.5 118T309 775z"/><glyph glyph-name="bar" unicode="|" horiz-adv-x="287" d="M208-223H81v998h127v-998z"/><glyph glyph-name="braceright" unicode="}" horiz-adv-x="477" d="M67 775h101q71 0 116.5-42T330 615V415q0-40 26.5-60t60.5-20V200q-34 0-60.5-21T330 115V-64q0-75-45.5-117T168-223H67v123h41q68 0 68 81v167q0 34 10.5 58.5t28 36.5 31.5 17.5 29 7.5q-34 3-66.5 30.5T176 382v188q0 81-68 81H67v124z"/><glyph glyph-name="asciitilde" unicode="~" horiz-adv-x="562" d="M35 193v120q50 59 122 59 45 0 130-32 8-3 25.5-9.5t27-10 23-8 24-6.5 19.5-2q59 0 120 55V239q-48-59-122-59-48 0-118 33-74 35-134 35-54 0-117-55z"/><glyph glyph-name="nonbreakingspace" horiz-adv-x="250"/><glyph glyph-name="exclamdown" unicode="¡" horiz-adv-x="338" d="M68 394q0 42 30 71.5t72 29.5 72-29.5 30-71.5-30-71.5-72-29.5-72 29.5T68 394zm20-612v455h164v-455H88z"/><glyph glyph-name="cent" unicode="¢" horiz-adv-x="606" d="M553 370H400q-10 72-95 72-52 0-79.5-35.5T198 318q0-54 28-89t85-35q69 0 90 64h153q-11-77-63.5-128.5T349 67V-42h-89V67q-102 14-158.5 84.5T45 318q0 95 57 166t158 85v110h89V569q94-11 145.5-67T553 370z"/><glyph glyph-name="sterling" unicode="£" horiz-adv-x="628" d="M266 500q0-4 .5-47t.5-60h145v-88H267q-2-73-6-98-5-59-19-76h315V0H61v110q30 30 36 92 6 33 8 103H35v88h70q0 15-.5 58t-.5 49q0 93 71.5 154T354 715q110 0 180-66t70-167H442q0 44-22.5 70T351 578q-38 0-61.5-20.5T266 500z"/><glyph glyph-name="currency" unicode="¤" horiz-adv-x="757" d="M575 81l-73 73q-61-38-143-38-80 0-142 39l-74-74-70 70 73 72q-46 67-46 147 0 79 45 147l-71 72 69 70 73-74q63 41 143 41 79 0 142-41l74 74 70-70-73-73q47-64 47-146 0-85-46-148l71-71zM359 247q51 0 83.5 35.5T475 370t-32.5 87.5T359 493t-82.5-35.5T245 370t31.5-87.5T359 247z"/><glyph glyph-name="yen" unicode="¥" horiz-adv-x="630" d="M-23 700h188l151-275 149 275h188L416 306h116v-88H394v-57h138V73H394V0H240v73H104v88h136v57H104v88h110z"/><glyph glyph-name="brokenbar" unicode="¦" horiz-adv-x="287" d="M208 341H80v434h128V341zM80 217h128v-440H80v440z"/><glyph glyph-name="section" unicode="§" horiz-adv-x="575" d="M412 258q0 41-41 66-27 15-109 41-40-2-67.5-24.5T167 280q0-44 48-72 33-18 100-38 40 2 68.5 27t28.5 61zM269 60q-43 15-67.5 24.5t-60.5 28T86 150t-33.5 48T38 262q0 116 111 155-78 50-78 144 0 83 66.5 131T299 740q103 0 165-57.5T526 537H389q0 45-25 71.5T298 635q-39 0-64.5-18.5T208 564q0-32 25.5-52t71.5-35q31-10 42.5-14.5t40-15 41-18 35-20.5 33-26 23-29.5T537 317t5-43q0-59-33-101.5T429 119q80-52 80-144 0-84-66-135t-166-51q-101 0-167 58T44 0h139q0-46 27-74t70-28q39 0 65 19.5T371-29q0 32-26 52t-76 37z"/><glyph glyph-name="dieresis" unicode="¨" horiz-adv-x="582" d="M81 616q0 38 26.5 65t64.5 27q39 0 66-27t27-65q0-37-27-63.5T172 526q-38 0-64.5 26.5T81 616zm240 0q0 38 26.5 65t65.5 27 65.5-27 26.5-65q0-37-26.5-63.5T413 526t-65.5 26.5T321 616z"/><glyph glyph-name="copyright" unicode="©" horiz-adv-x="808" d="M404-18Q236-18 134.5 90.5T33 350t101.5 259.5T404 718t269.5-108.5T775 350 673.5 90.5 404-18zm0 83q123 0 197.5 84.5T676 350t-74.5 200.5T404 635t-197.5-84.5T132 350t74.5-200.5T404 65zm97 230h96q-12-62-62.5-102.5T410 152q-93 0-148 57.5T207 351q0 81 54 139t144 58q84 0 133-43.5T596 392h-94q-18 75-97 75-48 0-76.5-34T300 351q0-50 30-83.5t80-33.5q33 0 57.5 17.5T501 295z"/><glyph glyph-name="ordfeminine" unicode="ª" horiz-adv-x="635" d="M302 118q51 0 83 36t32 87-32 87-83 36-83-36-32-87 32-87 83-36zm115 364h153V0H417v68q-18-34-59.5-57T270-12q-103 0-169 72T35 241t66 181 169 72q46 0 87.5-23.5T417 413v69z"/><glyph glyph-name="guillemotleft" unicode="«" horiz-adv-x="512" d="M250 211V78L37 251v80l213 173V371l-103-80zm220 0V78L257 251v80l213 173V371l-103-80z"/><glyph glyph-name="logicalnot" unicode="¬" d="M390 134v179H93v122h427V134H390z"/><glyph glyph-name="softhyphen" unicode="­" horiz-adv-x="294" d="M264 333v-97H30v97h234z"/><glyph glyph-name="registered" unicode="®" horiz-adv-x="808" d="M404-18Q236-18 134.5 90.5T33 350t101.5 259.5T404 718t269.5-108.5T775 350 673.5 90.5 404-18zm0 83q123 0 197.5 84.5T676 350t-74.5 200.5T404 635t-197.5-84.5T132 350t74.5-200.5T404 65zm-48 286h65q26 0 42 18.5t16 44.5q0 27-16 46t-42 19h-65V351zm0-187h-96v392h177q63 0 102.5-41.5T579 414q0-41-20.5-75T501 288l78-124H470l-70 109h-44V164z"/><glyph glyph-name="macron" unicode="¯" horiz-adv-x="519" d="M443 820V705H75v115h368z"/><glyph glyph-name="degree" unicode="°" horiz-adv-x="344" d="M324 574q0-64-44-108t-108-44-108 44-44 108 44 108 108 44 108-44 44-108zm-94 0q0 23-17.5 41T172 633t-40.5-18-17.5-41q0-24 17.5-41t40.5-17 40.5 17 17.5 41z"/><glyph glyph-name="plusminus" unicode="±" d="M347 219H217v153H68v122h149v153h130V494h149V372H347V219zM496 0H68v122h428V0z"/><glyph glyph-name="twosuperior" unicode="²" horiz-adv-x="397" d="M54 315q0 88 24.5 130t76.5 73q35 20 48 28.5t24.5 22T239 598q0 37-36 37-40 0-40-51H56q0 53 37 89t110 36q60 0 100.5-29t40.5-88q0-68-98-126-42-25-55.5-37T177 398h164v-83H54z"/><glyph glyph-name="threesuperior" unicode="³" horiz-adv-x="404" d="M47 445h107q0-58 47-58 20 0 31 13t11 32q0 45-48 45h-41v79h41q45 0 45 40 0 39-37 39-40 0-40-51H56q0 54 34 89.5T203 709q62 0 102.5-27t40.5-82q0-31-18-55t-42-31q27-9 45.5-34t18.5-59q0-55-42.5-85T205 306q-81 0-119.5 38T47 445z"/><glyph glyph-name="acute" unicode="´" horiz-adv-x="513" d="M381 631L105 503 57 609l276 128z"/><glyph glyph-name="uni00B5" unicode="µ" d="M65-218v700h152V233q2-115 85-115 46 0 69.5 32.5T395 240v242h153V0H395v69Q356-2 258-10q-23 0-41 6v-214H65z"/><glyph glyph-name="paragraph" unicode="¶" horiz-adv-x="679" d="M238-166v464q-97 0-160.5 55.5T14 505q0 58 23.5 101t62 66 78.5 34 82 11h363V610h-56v-776H447v776h-88v-776H238z"/><glyph glyph-name="periodcentered" unicode="·" horiz-adv-x="296" d="M47 312q0 41 29 70.5t71 29.5q43 0 72.5-29t29.5-71-29.5-71-72.5-29q-42 0-71 29.5T47 312z"/><glyph glyph-name="cedilla" unicode="¸" horiz-adv-x="473" d="M144-111V12h78v-67q13 15 42 15 34 0 58.5-25.5T347-129q0-41-29-71t-80-30q-37 0-70.5 22T129-137h74q7-30 35-30 15 0 24.5 10.5T272-129q0 15-9.5 24.5T239-95q-21 0-30-16h-65z"/><glyph glyph-name="onesuperior" unicode="¹" horiz-adv-x="298" d="M46 558v72q55 0 75 16.5t20 53.5h92V315H125v243H46z"/><glyph glyph-name="ordmasculine" unicode="º" horiz-adv-x="599" d="M299-13q-121 0-194 73.5T32 241t73 180.5T299 495q122 0 195-73.5T567 241 494 60.5 299-13zm0 131q51 0 83.5 35.5T415 241t-32.5 87.5T299 364t-82.5-35.5T185 241t31.5-87.5T299 118z"/><glyph glyph-name="guillemotright" unicode="»" horiz-adv-x="512" d="M262 78v133l102 80-102 80v133l213-173v-80zM42 78v133l102 80-102 80v133l213-173v-80z"/><glyph glyph-name="onequarter" unicode="¼" horiz-adv-x="955" d="M161 0l399 754 106-53L266-53zM56 558v72q56 0 76 16.5t20 53.5h92V315H135v243H56zM733 0v100H570v285h107V188h56v100h107V188h42v-88h-42V0H733z"/><glyph glyph-name="onehalf" unicode="½" horiz-adv-x="955" d="M166 0l400 754 105-53L272-53zM62 558v72q56 0 76 16.5t20 53.5h91V315H141v243H62zM573 0q0 88 24.5 130t76.5 73q35 20 48 28.5t24.5 22T758 283q0 37-36 37-41 0-41-51H574q0 53 37 89t110 36q60 0 100.5-29t40.5-88q0-68-98-126-42-25-55-37t-13-31h164V0H573z"/><glyph glyph-name="threequarters" unicode="¾" horiz-adv-x="955" d="M173 0l400 754 105-53L279-53zM33 445h107q0-58 47-58 20 0 30.5 13t10.5 32q0 45-47 45h-41v79h40q26 0 36 10t10 30q0 39-37 39-40 0-40-51H42q0 54 34 89.5T188 709q62 0 102.5-27t40.5-82q0-31-18-55t-42-31q28-9 46-33.5t18-59.5q0-55-42-85t-102-30q-81 0-119.5 38T33 445zM738 0v100H575v285h107V188h56v100h107V188h42v-88h-42V0H738z"/><glyph glyph-name="questiondown" unicode="¿" horiz-adv-x="542" d="M390 398q0-42-30-72.5T286 295q-43 0-73.5 30.5T182 398t30.5 72.5T286 501q44 0 74-30.5t30-72.5zm-24-132q-1-68-19-108t-69-75q-27-19-40.5-30t-29-35.5T193-33q0-37 23-56t61-19 62 25 24 76h160q0-98-65.5-160.5T277-230q-102 0-172 52.5T35-32q0 16 2 31.5T44.5 28t10 24T68 74t14 18 16.5 17 15.5 13.5 15.5 12.5 12.5 10q40 32 52 54t12 67h160z"/><glyph glyph-name="Agrave" unicode="À" horiz-adv-x="660" d="M457 737L181 865l48 106 276-128zM329 500l-86-288h170zm74 200L656 0H480l-27 85H204L177 0H4l250 700h149z"/><glyph glyph-name="Aacute" unicode="Á" horiz-adv-x="660" d="M493 855L217 727l-49 106 276 128zM329 500l-86-288h170zm74 200L656 0H480l-27 85H204L177 0H4l250 700h149z"/><glyph glyph-name="Acircumflex" unicode="Â" horiz-adv-x="660" d="M134 829l195 164 197-164-76-84-120 107-120-106zm195-329l-86-288h170zm74 200L656 0H480l-27 85H204L177 0H4l250 700h149z"/><glyph glyph-name="Atilde" unicode="Ã" horiz-adv-x="660" d="M400 884q37 0 70 46l80-70q-52-83-143-83-41 0-88.5 23.5T255 824q-23 0-37.5-11.5T187 778l-78 77q52 76 140 76 41 0 87.5-23.5T400 884zm-71-384l-86-288h170zm74 200L656 0H480l-27 85H204L177 0H4l250 700h149z"/><glyph glyph-name="Adieresis" unicode="Ä" horiz-adv-x="660" d="M114 852q0 39 27.5 66.5T208 946q40 0 68-27.5t28-66.5q0-38-28-65.5T208 759q-39 0-66.5 27.5T114 852zm241 0q0 39 27 66.5t67 27.5 67.5-27.5T544 852q0-38-27.5-65.5T449 759q-39 0-66.5 27.5T355 852zm-26-352l-86-288h170zm74 200L656 0H480l-27 85H204L177 0H4l250 700h149z"/><glyph glyph-name="Aring" unicode="Å" horiz-adv-x="660" d="M330 1002q55 0 94.5-40t39.5-95-39.5-94.5T330 733t-94.5 39.5T196 867q0 56 39 95.5t95 39.5zm0-82q-22 0-36.5-15.5T279 867q0-20 15-35t36-15 36 15 15 36-15 36.5-36 15.5zm-1-420l-86-288h170zm74 200L656 0H480l-27 85H204L177 0H4l250 700h149z"/><glyph glyph-name="AE" unicode="Æ" horiz-adv-x="919" d="M271 213h156v342zm583 357H589V411h265V284H589V130h265V0H427v86H215L177 0H1l336 700h517V570z"/><glyph glyph-name="Ccedilla" unicode="Ç" horiz-adv-x="788" d="M756 428H587q-12 64-58.5 104T409 572q-98 0-155-65t-57-156q0-96 59-159.5T417 128q59 0 106.5 35t61.5 88h172Q737 142 651.5 67T438-16v-40q13 15 45 15 34 0 57-24t23-61q0-40-29-69t-80-29q-37 0-70.5 21T345-135h74q7-26 35-26 15 0 24.5 10t9.5 25q0 14-9.5 24T455-92q-20 0-30-17h-65v94Q209 0 120.5 104.5T32 351q0 150 101 258.5T399 718q156 0 248.5-81.5T756 428z"/><glyph glyph-name="Egrave" unicode="È" horiz-adv-x="555" d="M407 728L131 856l48 106 276-128zm87-158H229V411h265V284H229V130h265V0H67v700h427V570z"/><glyph glyph-name="Eacute" unicode="É" horiz-adv-x="555" d="M442 868L166 740l-48 106 276 128zm52-298H229V411h265V284H229V130h265V0H67v700h427V570z"/><glyph glyph-name="Ecircumflex" unicode="Ê" horiz-adv-x="555" d="M88 829l195 164 197-164-76-84-120 107-119-106zm406-259H229V411h265V284H229V130h265V0H67v700h427V570z"/><glyph glyph-name="Edieresis" unicode="Ë" horiz-adv-x="555" d="M76 852q0 39 27.5 66.5T170 946q40 0 68-27.5t28-66.5q0-38-28-65.5T170 759q-39 0-66.5 27.5T76 852zm241 0q0 39 27 66.5t67 27.5 67.5-27.5T506 852q0-38-27.5-65.5T411 759q-39 0-66.5 27.5T317 852zm177-282H229V411h265V284H229V130h265V0H67v700h427V570z"/><glyph glyph-name="Igrave" unicode="Ì" horiz-adv-x="298" d="M263 727L-13 855l48 106 276-128zM67 0v700h164V0H67z"/><glyph glyph-name="Iacute" unicode="Í" horiz-adv-x="298" d="M311 855L35 727l-48 106 276 128zM67 0v700h164V0H67z"/><glyph glyph-name="Icircumflex" unicode="Î" horiz-adv-x="298" d="M-46 829l195 164 197-164-76-84-120 107L31 746zM67 0v700h164V0H67z"/><glyph glyph-name="Idieresis" unicode="Ï" horiz-adv-x="298" d="M-60 852q0 39 27.5 66.5T34 946q40 0 68-27.5t28-66.5q0-38-28-65.5T34 759q-39 0-66.5 27.5T-60 852zm241 0q0 39 27 66.5t67 27.5 67.5-27.5T370 852q0-38-27.5-65.5T275 759q-39 0-66.5 27.5T181 852zM67 0v700h164V0H67z"/><glyph glyph-name="Eth" unicode="Ð" horiz-adv-x="720" d="M67 700h257q165 0 264.5-104T688 350q0-91-42-170T519.5 50.5 324 0H67v306H-35v89H67v305zm266-305v-89H229V140h87q94 0 150.5 62T523 350t-56.5 148T316 560h-87V395h104z"/><glyph glyph-name="Ntilde" unicode="Ñ" horiz-adv-x="717" d="M420 884q37 0 70 46l80-70q-52-83-143-83-41 0-88.5 23.5T275 824q-23 0-37.5-11.5T207 778l-78 77q52 76 140 76 41 0 87.5-23.5T420 884zM236 700l253-456v456h161V0H481L229 450V0H67v700h169z"/><glyph glyph-name="Ograve" unicode="Ò" horiz-adv-x="805" d="M504 740L228 868l48 106 276-128zM403-18Q235-18 133.5 90.5T32 350t101.5 259.5T403 718q167 0 268.5-108.5T773 350 671.5 90.5 403-18zm0 146q92 0 148.5 66T608 350t-56.5 156T403 572t-148.5-65.5T198 350t56.5-156.5T403 128z"/><glyph glyph-name="Oacute" unicode="Ó" horiz-adv-x="805" d="M574 868L298 740l-48 106 276 128zM403-18Q235-18 133.5 90.5T32 350t101.5 259.5T403 718q167 0 268.5-108.5T773 350 671.5 90.5 403-18zm0 146q92 0 148.5 66T608 350t-56.5 156T403 572t-148.5-65.5T198 350t56.5-156.5T403 128z"/><glyph glyph-name="Ocircumflex" unicode="Ô" horiz-adv-x="805" d="M208 829l195 164 197-164-76-84-120 107-120-106zM403-18Q235-18 133.5 90.5T32 350t101.5 259.5T403 718q167 0 268.5-108.5T773 350 671.5 90.5 403-18zm0 146q92 0 148.5 66T608 350t-56.5 156T403 572t-148.5-65.5T198 350t56.5-156.5T403 128z"/><glyph glyph-name="Otilde" unicode="Õ" horiz-adv-x="805" d="M476 884q37 0 70 46l80-70q-52-83-143-83-41 0-88.5 23.5T331 824q-23 0-37.5-11.5T263 778l-78 77q52 76 140 76 41 0 87.5-23.5T476 884zM403-18Q235-18 133.5 90.5T32 350t101.5 259.5T403 718q167 0 268.5-108.5T773 350 671.5 90.5 403-18zm0 146q92 0 148.5 66T608 350t-56.5 156T403 572t-148.5-65.5T198 350t56.5-156.5T403 128z"/><glyph glyph-name="Odieresis" unicode="Ö" horiz-adv-x="805" d="M427 854q0 39 27 66.5t67 27.5 67.5-27.5T616 854q0-38-27.5-65.5T521 761q-39 0-66.5 27.5T427 854zm-241 0q0 39 27.5 66.5T280 948q40 0 67.5-27.5T375 854t-27.5-66-67.5-27q-39 0-66.5 27.5T186 854zM403-18Q235-18 133.5 90.5T32 350t101.5 259.5T403 718q167 0 268.5-108.5T773 350 671.5 90.5 403-18zM198 350q0-91 56.5-156.5T403 128t148.5 66T608 350t-56.5 156T403 572t-148.5-65.5T198 350z"/><glyph glyph-name="multiply" unicode="×" d="M303 374l108 108 92-92-108-108 106-105-87-86-105 104L201 88l-92 92 108 107-105 105 86 87z"/><glyph glyph-name="Oslash" unicode="Ø" horiz-adv-x="805" d="M198 350q0-110 76-175l169 391q-18 6-40 6-92 0-148.5-65.5T198 350zm410 0q0 54-22 101.5T524 530L353 134q21-6 50-6 92 0 148.5 66T608 350zM403-18q-60 0-111 15l-39-90-81 36 38 88Q126 79 79 164.5T32 350q0 151 101.5 259.5T403 718q51 0 101-13l37 84 81-37-34-79q87-47 136-134.5T773 350q0-151-101.5-259.5T403-18z"/><glyph glyph-name="Ugrave" unicode="Ù" horiz-adv-x="657" d="M452 740L176 868l48 106 276-128zM56 239v461h162V240q0-49 31-83.5t79-34.5q49 0 80 34.5t31 83.5v460h162V239q0-111-75-184T328-18 130.5 55.5 56 239z"/><glyph glyph-name="Uacute" unicode="Ú" horiz-adv-x="657" d="M474 868L198 740l-48 106 276 128zM56 239v461h162V240q0-49 31-83.5t79-34.5q49 0 80 34.5t31 83.5v460h162V239q0-111-75-184T328-18 130.5 55.5 56 239z"/><glyph glyph-name="Ucircumflex" unicode="Û" horiz-adv-x="657" d="M129 829l196 164 196-164-76-84-120 107-119-106zM56 239v461h162V240q0-49 31-83.5t79-34.5q49 0 80 34.5t31 83.5v460h162V239q0-111-75-184T328-18 130.5 55.5 56 239z"/><glyph glyph-name="Udieresis" unicode="Ü" horiz-adv-x="657" d="M111 852q0 39 27.5 66.5T205 946q40 0 67.5-27.5T300 852t-27.5-66-67.5-27q-39 0-66.5 27.5T111 852zm241 0q0 39 27 66.5t67 27.5 67.5-27.5T541 852q0-38-27.5-65.5T446 759t-67 27.5-27 65.5zM56 239v461h162V240q0-49 31-83.5t79-34.5q49 0 80 34.5t31 83.5v460h162V239q0-111-75-184T328-18 130.5 55.5 56 239z"/><glyph glyph-name="Yacute" unicode="Ý" horiz-adv-x="641" d="M522 866L246 738l-48 105 276 128zm127-166L302 0H123l129 263L4 700h189l149-275 128 275h179z"/><glyph glyph-name="Thorn" unicode="Þ" horiz-adv-x="539" d="M64 0v700h148V585h44q121 0 190.5-70T516 345q0-99-70-169.5T256 105h-44V0H64zm192 458h-44V232h44q51 0 81 33t30 80-30 80-81 33z"/><glyph glyph-name="germandbls" unicode="ß" horiz-adv-x="593" d="M241 0v119q32-8 61-8 40 0 68.5 26t28.5 72q0 37-26 66.5T299 305h-29v122h27q47 0 69.5 24.5T389 515q0 38-25.5 60T300 597q-41 0-64.5-29T212 491V0H54v491q0 97 62 160.5T301 715q102 0 173-51.5T545 519q0-58-30.5-98T436 364q51-18 85.5-63.5T556 196q0-100-63.5-154.5T334-13q-50 0-93 13z"/><glyph glyph-name="agrave" unicode="à" horiz-adv-x="635" d="M396 509L120 637l48 106 276-128zm-94-391q51 0 83 36t32 87-32 87-83 36-83-36-32-87 32-87 83-36zm115 364h153V0H417v68q-18-34-59.5-57T270-12q-103 0-169 72T35 241t66 181 169 72q46 0 87.5-23.5T417 413v69z"/><glyph glyph-name="aacute" unicode="á" horiz-adv-x="635" d="M448 637L172 509l-49 106 276 128zM302 118q51 0 83 36t32 87-32 87-83 36-83-36-32-87 32-87 83-36zm115 364h153V0H417v68q-18-34-59.5-57T270-12q-103 0-169 72T35 241t66 181 169 72q46 0 87.5-23.5T417 413v69z"/><glyph glyph-name="acircumflex" unicode="â" horiz-adv-x="635" d="M118 617l195 164 197-164-76-84-120 107-119-106zm184-499q51 0 83 36t32 87-32 87-83 36-83-36-32-87 32-87 83-36zm115 364h153V0H417v68q-18-34-59.5-57T270-12q-103 0-169 72T35 241t66 181 169 72q46 0 87.5-23.5T417 413v69z"/><glyph glyph-name="atilde" unicode="ã" horiz-adv-x="635" d="M397 680q39 0 69 46l81-71q-53-83-143-83-41 0-88.5 23.5T252 619q-37 0-69-46l-78 77q53 76 141 76 41 0 87.5-23t63.5-23zm-95-562q51 0 83 36t32 87-32 87-83 36-83-36-32-87 32-87 83-36zm115 364h153V0H417v68q-18-34-59.5-57T270-12q-103 0-169 72T35 241t66 181 169 72q46 0 87.5-23.5T417 413v69z"/><glyph glyph-name="adieresis" unicode="ä" horiz-adv-x="635" d="M179 537q-39 0-66.5 27.5T85 630q0 39 27.5 66.5T179 724q40 0 67.5-27.5T274 630t-27.5-66-67.5-27zm241 0q-40 0-67 27.5T326 630q0 39 27 66.5t67 27.5 67.5-27.5T515 630q0-38-27.5-65.5T420 537zM302 118q51 0 83 36t32 87-32 87-83 36-83-36-32-87 32-87 83-36zM570 0H417v68q-18-34-59.5-57T270-12q-103 0-169 72T35 241t66 181 169 72q46 0 87.5-23.5T417 413v69h153V0z"/><glyph glyph-name="aring" unicode="å" horiz-adv-x="635" d="M307 528q-57 0-97.5 41T169 666q0 58 40.5 98t97.5 40 97.5-40.5T445 666q0-56-40.5-97T307 528zm0 198q-25 0-41.5-17.5T249 666q0-23 17-40t41-17 41 17 17 42q0 24-16.5 41T307 726zm-5-608q51 0 83 36t32 87-32 87-83 36-83-36-32-87 32-87 83-36zm115 364h153V0H417v68q-18-34-59.5-57T270-12q-103 0-169 72T35 241t66 181 169 72q46 0 87.5-23.5T417 413v69z"/><glyph glyph-name="ae" unicode="æ" horiz-adv-x="961" d="M417 482h138v-12q55 25 119 25 110 0 179-64.5T922 275q0-42-5-71H571q2-107 106-107 69 0 89 55h150q-13-71-76-118T678-13q-68 0-123 26V0H417v68q-18-34-59.5-57T270-12q-103 0-169 72T35 241t66 181 169 72q46 0 87.5-23.5T417 413v69zm255-95q-43 0-71-25t-29-70h199q0 43-27.5 69T672 387zM302 118q51 0 83 36t32 87q0 52-32.5 87.5T302 364q-51 0-83-36t-32-87 32-87 83-36z"/><glyph glyph-name="ccedilla" unicode="ç" horiz-adv-x="575" d="M237-107v99Q140 9 86.5 78.5T33 241q0 106 69 180t190 74q115 0 178-58t71-144H388q-10 72-95 72-52 0-79.5-35.5T186 241q0-54 28-89t85-35q70 0 90 64h153q-12-82-70-134.5T315-12v-42q15 15 46 15 33 0 56-24.5t23-60.5q0-40-28.5-69T331-222q-36 0-69.5 21T223-133h74q7-26 34-26 15 0 25 10t10 25q0 14-9.5 24T333-90q-21 0-31-17h-65z"/><glyph glyph-name="egrave" unicode="è" horiz-adv-x="577" d="M425 509L149 637l48 106 276-128zm108-305H186q6-107 107-107 71 0 89 55h150q-11-71-74.5-118T294-13q-124 0-192 69.5T34 241q0 110 67.5 182T290 495q110 0 179-64.5T538 275q0-42-5-71zM289 393q-46 0-74.5-26.5T186 292h202q0 46-27.5 73.5T289 393z"/><glyph glyph-name="eacute" unicode="é" horiz-adv-x="577" d="M444 637L168 509l-48 106 276 128zm89-433H186q6-107 107-107 71 0 89 55h150q-11-71-74.5-118T294-13q-124 0-192 69.5T34 241q0 110 67.5 182T290 495q110 0 179-64.5T538 275q0-42-5-71zM289 393q-46 0-74.5-26.5T186 292h202q0 46-27.5 73.5T289 393z"/><glyph glyph-name="ecircumflex" unicode="ê" horiz-adv-x="577" d="M97 617l195 164 197-164-76-84-120 107-120-106zm436-413H186q6-107 107-107 71 0 89 55h150q-11-71-74.5-118T294-13q-124 0-192 69.5T34 241q0 110 67.5 182T290 495q110 0 179-64.5T538 275q0-42-5-71zM289 393q-46 0-74.5-26.5T186 292h202q0 46-27.5 73.5T289 393z"/><glyph glyph-name="edieresis" unicode="ë" horiz-adv-x="577" d="M73 630q0 39 27 66.5t67 27.5 67.5-27.5T262 630q0-38-27.5-65.5T167 537q-39 0-66.5 27.5T73 630zm240 0q0 39 27.5 66.5T407 724q40 0 67.5-27.5T502 630t-27.5-66-67.5-27q-39 0-66.5 27.5T313 630zm220-426H186q6-107 107-107 71 0 89 55h150q-11-71-74.5-118T294-13q-124 0-192 69.5T34 241q0 110 67.5 182T290 495q110 0 179-64.5T538 275q0-42-5-71zM289 393q-46 0-74.5-26.5T186 292h202q0 46-27.5 73.5T289 393z"/><glyph glyph-name="igrave" unicode="ì" horiz-adv-x="283" d="M256 522L-20 650l48 106 276-128zM65 0v482h153V0H65z"/><glyph glyph-name="iacute" unicode="í" horiz-adv-x="283" d="M304 650L28 522l-48 106 276 128zM65 0v482h153V0H65z"/><glyph glyph-name="icircumflex" unicode="î" horiz-adv-x="283" d="M-54 617l196 164 196-164-76-84-120 107L23 534zM65 0v482h153V0H65z"/><glyph glyph-name="idieresis" unicode="ï" horiz-adv-x="283" d="M-54 630q0 39 27.5 66.5T40 724q40 0 68-27.5t28-66.5q0-38-28-65.5T40 537q-39 0-66.5 27.5T-54 630zm214 0q0 39 27.5 66.5T254 724q40 0 67.5-27.5T349 630t-27.5-66-67.5-27q-39 0-66.5 27.5T160 630zM65 0v482h153V0H65z"/><glyph glyph-name="eth" unicode="ð" horiz-adv-x="596" d="M297-15q-121 0-194 73.5T30 239q0 100 64.5 172T267 490h6l-33 51-97-47-35 76 85 41-67 106h182l27-45 83 40 35-74-72-36 141-218q43-67 43-145 0-107-73-180.5T297-15zm0 131q51 0 83.5 35.5T413 239t-32.5 87.5T297 362t-82.5-35.5T183 239t31.5-87.5T297 116z"/><glyph glyph-name="ntilde" unicode="ñ" horiz-adv-x="607" d="M381 680q39 0 69 46l81-71q-53-83-143-83-41 0-88.5 23.5T236 619q-37 0-69-46l-78 77q53 76 141 76 41 0 87.5-23t63.5-23zM65 0v482h153v-70q43 82 158 82 93 0 135-55 38-47 38-153V0H396v247q0 117-85 117-45 0-69-32.5T218 242V0H65z"/><glyph glyph-name="ograve" unicode="ò" horiz-adv-x="599" d="M423 509L147 637l48 106 276-128zM299-13q-121 0-194 73.5T32 241t73 180.5T299 495q122 0 195-73.5T567 241 494 60.5 299-13zm0 131q51 0 83.5 35.5T415 241t-32.5 87.5T299 364t-82.5-35.5T185 241t31.5-87.5T299 118z"/><glyph glyph-name="oacute" unicode="ó" horiz-adv-x="599" d="M439 637L163 509l-49 106 276 128zM299-13q-121 0-194 73.5T32 241t73 180.5T299 495q122 0 195-73.5T567 241 494 60.5 299-13zm0 131q51 0 83.5 35.5T415 241t-32.5 87.5T299 364t-82.5-35.5T185 241t31.5-87.5T299 118z"/><glyph glyph-name="ocircumflex" unicode="ô" horiz-adv-x="599" d="M103 617l195 164 197-164-76-84-120 107-119-106zM299-13q-121 0-194 73.5T32 241t73 180.5T299 495q122 0 195-73.5T567 241 494 60.5 299-13zm0 131q51 0 83.5 35.5T415 241t-32.5 87.5T299 364t-82.5-35.5T185 241t31.5-87.5T299 118z"/><glyph glyph-name="otilde" unicode="õ" horiz-adv-x="599" d="M370 680q38 0 70 46l81-71q-54-83-144-83-41 0-88.5 23.5T225 619q-23 0-37.5-11.5T157 573l-78 77q52 76 141 76 41 0 87.5-23t62.5-23zM299-13q-121 0-194 73.5T32 241t73 180.5T299 495q122 0 195-73.5T567 241 494 60.5 299-13zm0 131q51 0 83.5 35.5T415 241t-32.5 87.5T299 364t-82.5-35.5T185 241t31.5-87.5T299 118z"/><glyph glyph-name="odieresis" unicode="ö" horiz-adv-x="599" d="M418 537q-40 0-67 27.5T324 630q0 39 27 66.5t67 27.5 67.5-27.5T513 630q0-38-27.5-65.5T418 537zm-241 0q-39 0-66.5 27.5T83 630q0 39 27.5 66.5T177 724q40 0 67.5-27.5T272 630t-27.5-66-67.5-27zm390-296q0-107-73-180.5T299-13q-121 0-194 73.5T32 241t73 180.5T299 495q122 0 195-73.5T567 241zm-382 0q0-52 31.5-87.5T299 118t83.5 35.5T415 241t-32.5 87.5T299 364t-82.5-35.5T185 241z"/><glyph glyph-name="divide" unicode="÷" d="M212 437q0 39 27.5 66.5T306 531q40 0 67.5-27.5T401 437q0-38-27.5-65.5T306 344q-39 0-66.5 27.5T212 437zm308-247H93v122h427V190zM212 71q0 39 27.5 66t66.5 27q40 0 67.5-27T401 71q0-38-27.5-65.5T306-22q-39 0-66.5 27.5T212 71z"/><glyph glyph-name="oslash" unicode="ø" horiz-adv-x="599" d="M185 241q0-57 35-92l93 213q-10 2-14 2-51 0-82.5-35.5T185 241zm114-123q51 0 83.5 35.5T415 241q0 60-41 96l-95-218q6-1 20-1zm162 417l-30-70q65-32 100.5-91.5T567 241q0-107-73-180.5T299-13q-40 0-76 9l-31-74-61 26 31 72q-62 32-96 91T32 241q0 107 73 180.5T299 495q26 0 70-8l32 74z"/><glyph glyph-name="ugrave" unicode="ù" horiz-adv-x="607" d="M422 509L146 637l48 106 276-128zm120-27V0H389v69q-43-81-158-81-93 0-135 55-37 46-37 153v286h152V235q0-117 85-117 46 0 69.5 32.5T389 240v242h153z"/><glyph glyph-name="uacute" unicode="ú" horiz-adv-x="607" d="M466 637L190 509l-48 106 276 128zm76-155V0H389v69q-43-81-158-81-93 0-135 55-37 46-37 153v286h152V235q0-117 85-117 46 0 69.5 32.5T389 240v242h153z"/><glyph glyph-name="ucircumflex" unicode="û" horiz-adv-x="607" d="M110 617l195 164 197-164-76-84-120 107-119-106zm432-135V0H389v69q-43-81-158-81-93 0-135 55-37 46-37 153v286h152V235q0-117 85-117 46 0 69.5 32.5T389 240v242h153z"/><glyph glyph-name="udieresis" unicode="ü" horiz-adv-x="607" d="M83 630q0 39 27.5 66.5T177 724q40 0 68-27.5t28-66.5q0-38-28-65.5T177 537q-39 0-66.5 27.5T83 630zm241 0q0 39 27 66.5t67 27.5 67.5-27.5T513 630q0-38-27.5-65.5T418 537t-67 27.5-27 65.5zm218-148V0H389v69q-43-81-158-81-93 0-135 55-37 46-37 153v286h152V235q0-117 85-117 46 0 69.5 32.5T389 240v242h153z"/><glyph glyph-name="yacute" unicode="ý" horiz-adv-x="615" d="M470 637L194 509l-49 106 276 128zM303-231q-117 0-178 50-66 54-66 144h153q2-40 28-62t65-22q47 0 70.5 22.5T399-22v99Q357-4 245-4q-95 0-139 58-37 46-37 149v279h152V235q0-117 85-117 46 0 69.5 32.5T399 240v242h153V-12q0-111-66-167-64-52-183-52z"/><glyph glyph-name="thorn" unicode="þ" horiz-adv-x="632" d="M335 118q51 0 83 36t32 87-32 87-83 36-83-36-32-87 32-87 83-36zM220-218H67v918h153V413q18 34 59.5 57.5T367 494q103 0 169-72t66-181-66-181-169-72q-46 0-87.5 23T220 68v-286z"/><glyph glyph-name="ydieresis" unicode="ÿ" horiz-adv-x="615" d="M101 630q0 38 26.5 64.5T192 721q39 0 66-26.5t27-64.5-27-64.5-66-26.5q-38 0-64.5 26.5T101 630zm241 0q0 38 26.5 64.5T433 721q39 0 65.5-26.5T525 630t-26.5-64.5T433 539q-38 0-64.5 26.5T342 630zm-39-861q-117 0-178 50-66 54-66 144h153q2-40 28-62t65-22q47 0 70.5 22.5T399-22v99Q357-4 245-4q-95 0-139 58-37 46-37 149v279h152V235q0-117 85-117 46 0 69.5 32.5T399 240v242h153V-12q0-111-66-167-64-52-183-52z"/><glyph glyph-name="Amacron" unicode="Ā" horiz-adv-x="660" d="M512 909V794H144v115h368zM329 500l-86-288h170zm74 200L656 0H480l-27 85H204L177 0H4l250 700h149z"/><glyph glyph-name="amacron" unicode="ā" horiz-adv-x="635" d="M491 687V573H123v114h368zM302 118q51 0 83 36t32 87-32 87-83 36-83-36-32-87 32-87 83-36zm115 364h153V0H417v68q-18-34-59.5-57T270-12q-103 0-169 72T35 241t66 181 169 72q46 0 87.5-23.5T417 413v69z"/><glyph glyph-name="Abreve" unicode="Ă" horiz-adv-x="660" d="M329 868q72 0 91 72h123q-13-77-72.5-124.5T329 768q-83 0-142.5 47.5T115 940h122q21-72 92-72zm0-368l-86-288h170zm74 200L656 0H480l-27 85H204L177 0H4l250 700h149z"/><glyph glyph-name="abreve" unicode="ă" horiz-adv-x="635" d="M309 652q71 0 92 72h122q-12-77-72-124.5T309 552q-83 0-142 47T95 724h123q19-72 91-72zm-7-534q51 0 83 36t32 87-32 87-83 36-83-36-32-87 32-87 83-36zm115 364h153V0H417v68q-18-34-59.5-57T270-12q-103 0-169 72T35 241t66 181 169 72q46 0 87.5-23.5T417 413v69z"/><glyph glyph-name="Aogonek" unicode="Ą" horiz-adv-x="660" d="M620-119l-2-78q-43-15-95-15-62 0-94 27.5T397-115q0 60 83 115l-27 85H204L177 0H4l250 700h149L656 0h-82q-17-12-27-20t-19.5-24-9.5-34q0-22 12.5-37.5T564-131q28 0 56 12zM329 500l-86-288h170z"/><glyph glyph-name="aogonek" unicode="ą" horiz-adv-x="635" d="M570 482V0h-55q-63-40-63-85 0-19 12-32.5t31-13.5q27 0 56 12l-2-78q-43-15-95-15-63 0-96 27.5T325-115q0 59 92 118v65q-18-34-59.5-57T270-12q-103 0-169 72T35 241t66 181 169 72q46 0 87.5-23.5T417 413v69h153zM302 118q51 0 83 36t32 87-32 87-83 36-83-36-32-87 32-87 83-36z"/><glyph glyph-name="Cacute" unicode="Ć" horiz-adv-x="788" d="M556 868L280 740l-48 105 276 128zm29-617h172Q736 135 642 58.5T408-18Q237-18 134.5 89.5T32 351q0 150 101 258.5T399 718q156 0 248.5-81.5T756 428H587q-12 64-58.5 104T409 572q-98 0-155-65t-57-156q0-96 59-159.5T417 128q59 0 106.5 35t61.5 88z"/><glyph glyph-name="cacute" unicode="ć" horiz-adv-x="575" d="M449 637L173 509l-48 106 276 128zm92-344H388q-10 72-95 72-52 0-79.5-35.5T186 241q0-54 28-89t85-35q70 0 90 64h153q-12-86-76-140T292-13q-121 0-190 74T33 241t69 180 190 74q115 0 178-58t71-144z"/><glyph glyph-name="Ccircumflex" unicode="Ĉ" horiz-adv-x="788" d="M205 829l195 164 197-164-76-84-120 107-119-106zm380-578h172Q736 135 642 58.5T408-18Q237-18 134.5 89.5T32 351q0 150 101 258.5T399 718q156 0 248.5-81.5T756 428H587q-12 64-58.5 104T409 572q-98 0-155-65t-57-156q0-96 59-159.5T417 128q59 0 106.5 35t61.5 88z"/><glyph glyph-name="ccircumflex" unicode="ĉ" horiz-adv-x="575" d="M103 617l195 164 197-164-76-84-120 107-120-106zm438-324H388q-10 72-95 72-52 0-79.5-35.5T186 241q0-54 28-89t85-35q70 0 90 64h153q-12-86-76-140T292-13q-121 0-190 74T33 241t69 180 190 74q115 0 178-58t71-144z"/><glyph glyph-name="Cdotaccent" unicode="Ċ" horiz-adv-x="788" d="M305 860q0 39 27.5 67t66.5 28q40 0 67.5-28t27.5-67q0-38-28-65.5T399 767t-66.5 27.5T305 860zm280-609h172Q736 135 642 58.5T408-18Q237-18 134.5 89.5T32 351q0 150 101 258.5T399 718q156 0 248.5-81.5T756 428H587q-12 64-58.5 104T409 572q-98 0-155-65t-57-156q0-96 59-159.5T417 128q59 0 106.5 35t61.5 88z"/><glyph glyph-name="cdotaccent" unicode="ċ" horiz-adv-x="575" d="M197 629q0 39 27.5 66.5T291 723q40 0 68-27.5t28-66.5q0-38-28-65.5T291 536q-39 0-66.5 27.5T197 629zm344-336H388q-10 72-95 72-52 0-79.5-35.5T186 241q0-54 28-89t85-35q70 0 90 64h153q-12-86-76-140T292-13q-121 0-190 74T33 241t69 180 190 74q115 0 178-58t71-144z"/><glyph glyph-name="Ccaron" unicode="Č" horiz-adv-x="788" d="M393 742L197 907l77 83 119-108 120 108 76-83zm192-491h172Q736 135 642 58.5T408-18Q237-18 134.5 89.5T32 351q0 150 101 258.5T399 718q156 0 248.5-81.5T756 428H587q-12 64-58.5 104T409 572q-98 0-155-65t-57-156q0-96 59-159.5T417 128q59 0 106.5 35t61.5 88z"/><glyph glyph-name="ccaron" unicode="č" horiz-adv-x="575" d="M292 526L97 691l77 82 119-108 120 109 76-83zm249-233H388q-10 72-95 72-52 0-79.5-35.5T186 241q0-54 28-89t85-35q70 0 90 64h153q-12-86-76-140T292-13q-121 0-190 74T33 241t69 180 190 74q115 0 178-58t71-144z"/><glyph glyph-name="Dcaron" unicode="Ď" horiz-adv-x="720" d="M337 742L141 907l77 83 119-108 120 108 76-83zM67 700h257q166 0 265-104t99-246q0-92-41.5-170.5t-126-129T324 0H67v700zm249-140h-87V140h87q94 0 150.5 62T523 350t-56.5 148T316 560z"/><glyph glyph-name="dcaron" unicode="ď" horiz-adv-x="810" d="M615 641q0 41 27.5 69t67.5 28q48 0 77.5-34t29.5-88q0-105-50-151t-147-47v59q57 0 85 25 25 20 30 53-7-7-25-7-42 0-68.5 27T615 641zM302 118q51 0 83 36t32 87-32 87-83 36-83-36-32-87 32-87 83-36zm115 295v287h153V0H417v68q-18-34-59.5-57T270-12q-103 0-169 72T35 241t66 181 169 72q46 0 87.5-23.5T417 413z"/><glyph glyph-name="Dcroat" unicode="Đ" horiz-adv-x="720" d="M67 700h257q166 0 265-104t99-246q0-92-41.5-170.5t-126-129T324 0H67v301H-34v98H67v301zm267-301v-98H229V140h87q94 0 150.5 62T523 350t-56.5 148T316 560h-87V399h105z"/><glyph glyph-name="dcroat" unicode="đ" horiz-adv-x="635" d="M302 118q51 0 83 36t32 87-32 87-83 36-83-36-32-87 32-87 83-36zm313 497v-82h-45V0H417v68q-18-34-59.5-57T270-12q-103 0-169 72T35 241t66 181 169 72q46 0 87.5-23.5T417 413v120H310v82h107v85h153v-85h45z"/><glyph glyph-name="Emacron" unicode="Ē" horiz-adv-x="555" d="M466 909V794H98v115h368zm28-339H229V411h265V284H229V130h265V0H67v700h427V570z"/><glyph glyph-name="emacron" unicode="ē" horiz-adv-x="577" d="M479 687V573H111v114h368zm54-483H186q6-107 107-107 71 0 89 55h150q-11-71-74.5-118T294-13q-124 0-192 69.5T34 241q0 110 67.5 182T290 495q110 0 179-64.5T538 275q0-42-5-71zM289 393q-46 0-74.5-26.5T186 292h202q0 46-27.5 73.5T289 393z"/><glyph glyph-name="Ebreve" unicode="Ĕ" horiz-adv-x="555" d="M283 868q72 0 91 72h123q-13-77-72.5-124.5T283 768q-83 0-142.5 47.5T69 940h122q21-72 92-72zm211-298H229V411h265V284H229V130h265V0H67v700h427V570z"/><glyph glyph-name="ebreve" unicode="ĕ" horiz-adv-x="577" d="M291 652q72 0 91 72h123q-12-77-72-124.5T291 552q-83 0-142.5 47.5T77 724h123q19-72 91-72zm242-448H186q6-107 107-107 71 0 89 55h150q-11-71-74.5-118T294-13q-124 0-192 69.5T34 241q0 110 67.5 182T290 495q110 0 179-64.5T538 275q0-42-5-71zM289 393q-46 0-74.5-26.5T186 292h202q0 46-27.5 73.5T289 393z"/><glyph glyph-name="Edotaccent" unicode="Ė" horiz-adv-x="555" d="M183 860q0 39 27.5 67t66.5 28q40 0 67.5-28t27.5-67q0-38-28-65.5T277 767t-66.5 27.5T183 860zm311-290H229V411h265V284H229V130h265V0H67v700h427V570z"/><glyph glyph-name="edotaccent" unicode="ė" horiz-adv-x="577" d="M194 629q0 39 27 66.5t67 27.5 67.5-27.5T383 629q0-38-27.5-65.5T288 536t-67 27-27 66zm339-425H186q6-107 107-107 71 0 89 55h150q-11-71-74.5-118T294-13q-124 0-192 69.5T34 241q0 110 67.5 182T290 495q110 0 179-64.5T538 275q0-42-5-71zM289 393q-46 0-74.5-26.5T186 292h202q0 46-27.5 73.5T289 393z"/><glyph glyph-name="Eogonek" unicode="Ę" horiz-adv-x="555" d="M350 0H67v700h427V570H229V411h265V284H229V130h265V0h-46q-17-12-27-20t-19.5-24-9.5-34q0-22 12.5-37.5T438-131q28 0 56 12l-2-78q-43-15-95-15-62 0-94 27.5T271-115q0 58 79 115z"/><glyph glyph-name="eogonek" unicode="ę" horiz-adv-x="577" d="M397-119l-2-78q-43-15-95-15-61 0-93 27.5T175-115q0 56 66 106Q142 6 88 74.5T34 241q0 110 67.5 182T290 495q110 0 179-64.5T538 275q0-42-5-71H188q0-48 25-77.5T293 97q69 0 89 55h150q-11-63-62.5-108T336-10q-41-31-41-68 0-22 12.5-37.5T341-131q28 0 56 12zM289 393q-46 0-74.5-26.5T186 292h202q0 46-27.5 73.5T289 393z"/><glyph glyph-name="Ecaron" unicode="Ě" horiz-adv-x="555" d="M276 742L81 907l76 83 120-108 120 108 76-83zm218-172H229V411h265V284H229V130h265V0H67v700h427V570z"/><glyph glyph-name="ecaron" unicode="ě" horiz-adv-x="577" d="M290 526L95 691l77 82 119-108 120 109 76-83zm243-322H186q6-107 107-107 71 0 89 55h150q-11-71-74.5-118T294-13q-124 0-192 69.5T34 241q0 110 67.5 182T290 495q110 0 179-64.5T538 275q0-42-5-71zM289 393q-46 0-74.5-26.5T186 292h202q0 46-27.5 73.5T289 393z"/><glyph glyph-name="Gcircumflex" unicode="Ĝ" horiz-adv-x="835" d="M208 829l195 164 197-164-76-84-120 107-119-106zm247-580v121h363V249h-72Q724 126 634.5 54T399-18q-113 0-198 51.5t-127 134T32 350q0 150 101 259t266 109q134 0 224-71t99-174H549q-8 44-49 74.5T399 578q-92 0-146.5-67.5T198 349q0-99 55-164.5T412 119q70 0 114 37t53 93H455z"/><glyph glyph-name="gcircumflex" unicode="ĝ" horiz-adv-x="633" d="M110 617l195 164 197-164-76-84-120 107-119-106zm192-253q-50 0-82-36t-32-87 32-87 82-36q51 0 83.5 35.5T418 241q0 51-32.5 87T302 364zm269 118V3q0-125-75-182-68-52-196-52-123 0-189 56-67 56-70 138h153q3-33 31-57t75-24q56 0 87 27t31 82v81q-20-33-60.5-54T271-3Q167-3 101 65.5T35 241q0 110 65 181.5T269 494q47 0 88-22t61-59v69h153z"/><glyph glyph-name="Gbreve" unicode="Ğ" horiz-adv-x="835" d="M403 868q71 0 92 72h122q-12-77-72-124.5T403 768q-83 0-142 47t-72 125h123q19-72 91-72zm52-619v121h363V249h-72Q724 126 634.5 54T399-18q-113 0-198 51.5t-127 134T32 350q0 150 101 259t266 109q134 0 224-71t99-174H549q-8 44-49 74.5T399 578q-92 0-146.5-67.5T198 349q0-99 55-164.5T412 119q70 0 114 37t53 93H455z"/><glyph glyph-name="gbreve" unicode="ğ" horiz-adv-x="633" d="M309 652q71 0 92 72h122q-12-77-72-124.5T309 552q-83 0-142 47T95 724h123q19-72 91-72zm-7-288q-50 0-82-36t-32-87 32-87 82-36q51 0 83.5 35.5T418 241q0 51-32.5 87T302 364zm269 118V3q0-125-75-182-68-52-196-52-123 0-189 56-67 56-70 138h153q3-33 31-57t75-24q56 0 87 27t31 82v81q-20-33-60.5-54T271-3Q167-3 101 65.5T35 241q0 110 65 181.5T269 494q47 0 88-22t61-59v69h153z"/><glyph glyph-name="Gdotaccent" unicode="Ġ" horiz-adv-x="835" d="M305 860q0 39 27.5 67t66.5 28q40 0 67.5-28t27.5-67q0-38-28-65.5T399 767t-66.5 27.5T305 860zm150-611v121h363V249h-72Q724 126 634.5 54T399-18q-113 0-198 51.5t-127 134T32 350q0 150 101 259t266 109q134 0 224-71t99-174H549q-8 44-49 74.5T399 578q-92 0-146.5-67.5T198 349q0-99 55-164.5T412 119q70 0 114 37t53 93H455z"/><glyph glyph-name="gdotaccent" unicode="ġ" horiz-adv-x="633" d="M199 628q0 39 27.5 67t66.5 28q40 0 68-28t28-67q0-38-28-65.5T293 535q-39 0-66.5 27.5T199 628zm103-264q-50 0-82-36t-32-87 32-87 82-36q51 0 83.5 35.5T418 241q0 51-32.5 87T302 364zm269 118V3q0-125-75-182-68-52-196-52-123 0-189 56-67 56-70 138h153q3-33 31-57t75-24q56 0 87 27t31 82v81q-20-33-60.5-54T271-3Q167-3 101 65.5T35 241q0 110 65 181.5T269 494q47 0 88-22t61-59v69h153z"/><glyph glyph-name="Gcommaaccent" unicode="Ģ" horiz-adv-x="835" d="M455 249v121h363V249h-72Q724 126 634.5 54T399-18q-113 0-198 51.5t-127 134T32 350q0 150 101 259t266 109q134 0 224-71t99-174H549q-8 44-49 74.5T399 578q-92 0-146.5-67.5T198 349q0-99 55-164.5T412 119q70 0 114 37t53 93H455zM325-103q0 32 22.5 54.5T401-26q38 0 62-27.5t24-70.5q0-84-40-121t-118-38v48q44 0 69 20 21 16 23 42-6-6-20-6-34 0-55 22t-21 54z"/><glyph glyph-name="gcommaaccent" unicode="ģ" horiz-adv-x="633" d="M386 626q0-38-26-64.5T297 535q-46 0-73.5 32T196 650q0 98 46.5 141.5T381 836v-56q-54 0-80-23-25-19-28-50 5 7 24 7 40 0 64.5-25.5T386 626zm-84-262q-50 0-82-36t-32-87 32-87 82-36q51 0 83.5 35.5T418 241q0 51-32.5 87T302 364zm269 118V3q0-125-75-182-68-52-196-52-123 0-189 56-67 56-70 138h153q3-33 31-57t75-24q56 0 87 27t31 82v81q-20-33-60.5-54T271-3Q167-3 101 65.5T35 241q0 110 65 181.5T269 494q47 0 88-22t61-59v69h153z"/><glyph glyph-name="Hcircumflex" unicode="Ĥ" horiz-adv-x="699" d="M154 829l196 164 196-164-76-84-120 107-119-106zM471 0v278H229V0H67v700h162V417h242v283h161V0H471z"/><glyph glyph-name="hcircumflex" unicode="ĥ" horiz-adv-x="597" d="M104 820l195 164 197-164-76-84-120 107-120-106zM65 0v700h148V412q44 82 156 82 89 0 131-55 39-48 39-154V0H391v247q0 117-85 117-45 0-69-32.5T213 242V0H65z"/><glyph glyph-name="Hbar" unicode="Ħ" horiz-adv-x="699" d="M471 417v89H229v-89h242zM67 700h162V594h242v106h161V0H471v278H229V0H67v700z"/><glyph glyph-name="hbar" unicode="ħ" horiz-adv-x="597" d="M347 615v-82H213V412q44 82 156 82 89 0 131-55 39-48 39-154V0H391v247q0 117-85 117-45 0-69-32.5T213 242V0H65v533H-1v82h66v85h148v-85h134z"/><glyph glyph-name="Itilde" unicode="Ĩ" horiz-adv-x="298" d="M219 884q38 0 69 46l81-70q-52-83-143-83-41 0-88.5 23.5T74 824q-37 0-69-46l-78 77q53 76 141 76 41 0 87.5-23.5T219 884zM67 0v700h164V0H67z"/><glyph glyph-name="itilde" unicode="ĩ" horiz-adv-x="283" d="M212 680q38 0 70 46l80-71q-53-83-143-83-41 0-88.5 23.5T67 619q-23 0-37.5-11.5T-1 573l-78 77q52 76 140 76 41 0 87.5-23t63.5-23zM65 0v482h153V0H65z"/><glyph glyph-name="Imacron" unicode="Ī" horiz-adv-x="298" d="M334 909V794H-34v115h368zM67 0v700h164V0H67z"/><glyph glyph-name="imacron" unicode="ī" horiz-adv-x="283" d="M325 687V572H-43v115h368zM65 0v482h153V0H65z"/><glyph glyph-name="Ibreve" unicode="Ĭ" horiz-adv-x="298" d="M150 868q72 0 91 72h123q-13-77-72.5-124.5T150 768q-83 0-142.5 47.5T-64 940H58q21-72 92-72zM67 0v700h164V0H67z"/><glyph glyph-name="ibreve" unicode="ĭ" horiz-adv-x="283" d="M143 652q72 0 91 72h123q-13-77-72.5-124.5T143 552Q60 552 .5 599.5T-71 724H51q21-72 92-72zM65 0v482h153V0H65z"/><glyph glyph-name="Iogonek" unicode="Į" horiz-adv-x="298" d="M231 700V0h-28q-17-12-27-20t-19.5-24-9.5-34q0-22 12.5-37.5T193-131q27 0 56 12l-2-78q-43-15-95-15-61 0-93 27.5T27-115q0 58 79 115H67v700h164z"/><glyph glyph-name="iogonek" unicode="į" horiz-adv-x="283" d="M43 642q0 41 28.5 69t69.5 28q42 0 70.5-28t28.5-69q0-40-28.5-68.5T141 545q-41 0-69.5 28.5T43 642zm196-761l-2-78q-43-15-95-15-62 0-94 27.5T16-115Q16-57 95 0H65v482h153V0h-25q-17-12-27-20t-19.5-24-9.5-34q0-22 12.5-37.5T183-131q27 0 56 12z"/><glyph glyph-name="Idotaccent" unicode="İ" horiz-adv-x="298" d="M54 861q0 39 27.5 66.5T148 955q40 0 68-27.5t28-66.5q0-38-28-65.5T148 768q-39 0-66.5 27.5T54 861zM67 0v700h164V0H67z"/><glyph glyph-name="dotlessi" unicode="ı" horiz-adv-x="258" d="M53 0v482h153V0H53z"/><glyph glyph-name="Jcircumflex" unicode="Ĵ" horiz-adv-x="583" d="M247 829l195 164 197-164-76-84-120 107-119-106zm276-129V241q0-124-67.5-191T267-17Q145-17 78.5 55.5T12 242h162q0-54 24-87t69-33q46 0 70.5 31.5T362 241v459h161z"/><glyph glyph-name="jcircumflex" unicode="ĵ" horiz-adv-x="283" d="M-53 617l195 164 197-164-76-84-120 107L24 534zm271-135V-75q0-87-34.5-121T89-230q-65 0-103 12v114q22-6 39-6 40 0 40 48v544h153z"/><glyph glyph-name="Kcommaaccent" unicode="Ķ" horiz-adv-x="659" d="M650 0H455L229 296V0H67v700h162V403l226 297h195L373 350zM253-93q0 32 22.5 54.5T329-16q38 0 62-27.5t24-70.5q0-84-40-121t-118-38v48q44 0 69 20 19 15 23 42-6-6-20-6-34 0-55 22t-21 54z"/><glyph glyph-name="kcommaaccent" unicode="ķ" horiz-adv-x="554" d="M367 482h182L361 241 548 0H366L218 202V0H65v700h153V278zM197-93q0 32 22 54.5T272-16q38 0 62.5-27.5T359-114q0-84-40.5-121T200-273v48q45 0 70 20 20 16 22 42-6-6-20-6-34 0-54.5 22T197-93z"/><glyph glyph-name="kgreenlandic" unicode="ĸ" horiz-adv-x="554" d="M549 482L361 241 548 0H366L218 202V0H65v482h153V278l149 204h182z"/><glyph glyph-name="Lacute" unicode="Ĺ" horiz-adv-x="453" d="M311 868L35 740l-48 106 276 128zm-82-728h199V0H67v700h162V140z"/><glyph glyph-name="lacute" unicode="ĺ" horiz-adv-x="283" d="M304 875L28 747l-48 106 276 128zM65 0v700h153V0H65z"/><glyph glyph-name="Lcommaaccent" unicode="Ļ" horiz-adv-x="453" d="M67 0v700h162V140h199V0H67zm78-93q0 32 22.5 54.5T221-16q38 0 62-27.5t24-70.5q0-84-40-121t-118-38v48q44 0 69 20 21 16 23 42-6-6-20-6-34 0-55 22t-21 54z"/><glyph glyph-name="lcommaaccent" unicode="ļ" horiz-adv-x="283" d="M65 0v700h153V0H65zm-4-93q0 32 22 54.5T136-16q38 0 62.5-27.5T223-114q0-84-40.5-121T64-273v48q45 0 70 20 20 16 22 42-6-6-20-6-34 0-54.5 22T61-93z"/><glyph glyph-name="Lcaron" unicode="Ľ" horiz-adv-x="453" d="M312 643q0 40 27.5 68.5T406 740q49 0 78.5-34t29.5-88q0-105-50-151t-148-47v59q56 0 86 25 26 21 29 53-5-7-25-7-42 0-68 27t-26 66zm-83-503h199V0H67v700h162V140z"/><glyph glyph-name="lcaron" unicode="ľ" horiz-adv-x="492" d="M280 643q0 40 27.5 68.5T374 740q49 0 78.5-34t29.5-88q0-105-50-151t-148-47v59q56 0 86 25 26 21 29 53-5-7-25-7-42 0-68 27t-26 66zM65 0v700h153V0H65z"/><glyph glyph-name="Ldot" unicode="Ŀ" horiz-adv-x="478" d="M229 140h199V0H67v700h162V140zm66 270q0 41 29 70.5t71 29.5q43 0 72.5-29t29.5-71-29.5-71-72.5-29q-42 0-71 29.5T295 410z"/><glyph glyph-name="ldot" unicode="ŀ" horiz-adv-x="440" d="M65 0v700h153V0H65zm196 344q0 41 29.5 70.5T362 444q43 0 72.5-29.5T464 344t-29.5-70.5T362 244q-42 0-71.5 29.5T261 344z"/><glyph glyph-name="Lslash" unicode="Ł" horiz-adv-x="456" d="M232 140h199V0H70v256l-43-20v96l43 20v348h162V427l137 62v-96l-137-62V140z"/><glyph glyph-name="lslash" unicode="ł" horiz-adv-x="290" d="M66 0v281L2 248v94l64 33v325h164V452l66 35v-96l-66-34V0H66z"/><glyph glyph-name="Nacute" unicode="Ń" horiz-adv-x="717" d="M520 868L244 740l-48 106 276 128zM236 700l253-456v456h161V0H481L229 450V0H67v700h169z"/><glyph glyph-name="nacute" unicode="ń" horiz-adv-x="607" d="M466 637L190 509l-49 106 276 128zM65 0v482h153v-70q43 82 158 82 93 0 135-55 38-47 38-153V0H396v247q0 117-85 117-45 0-69-32.5T218 242V0H65z"/><glyph glyph-name="Ncommaaccent" unicode="Ņ" horiz-adv-x="717" d="M650 0H481L229 450V0H67v700h169l253-456v456h161V0zM277-93q0 32 22.5 54.5T353-16q38 0 62-27.5t24-70.5q0-84-40-121t-118-38v48q44 0 69 20 21 16 23 42-6-6-20-6-34 0-55 22t-21 54z"/><glyph glyph-name="ncommaaccent" unicode="ņ" horiz-adv-x="607" d="M218 0H65v482h153v-70q43 82 158 82 93 0 135-55 38-47 38-153V0H396v247q0 117-85 117-45 0-69-32.5T218 242V0zm15-93q0 32 22 54.5T308-16q38 0 62.5-27.5T395-114q0-84-40.5-121T236-273v48q45 0 70 20 20 16 22 42-6-6-20-6-34 0-54.5 22T233-93z"/><glyph glyph-name="Ncaron" unicode="Ň" horiz-adv-x="717" d="M360 742L165 907l76 83 120-108 120 108 76-83zm-124-42l253-456v456h161V0H481L229 450V0H67v700h169z"/><glyph glyph-name="ncaron" unicode="ň" horiz-adv-x="607" d="M312 526L117 691l77 82 119-108 120 109 76-83zM218 0H65v482h153v-70q43 82 158 82 93 0 135-55 38-47 38-153V0H396v247q0 117-85 117-45 0-69-32.5T218 242V0z"/><glyph glyph-name="napostrophe" unicode="ŉ" horiz-adv-x="607" d="M-83 718q0 34 23.5 58T-2 800q41 0 66.5-29.5T90 695q0-89-43-128t-126-41v52q46 0 73 20 22 18 25 45-6-6-21-6-36 0-58.5 23.5T-83 718zM218 0H65v482h153v-70q43 82 158 82 93 0 135-55 38-47 38-153V0H396v247q0 117-85 117-45 0-69-32.5T218 242V0z"/><glyph glyph-name="Eng" unicode="Ŋ" horiz-adv-x="717" d="M229 700l260-456v456h161V12q0-123-67.5-190T394-245q-101 0-169 76l94 100q16-14 24-20.5t22-12 29-5.5q43 0 67 29t26 79L229 450V0H67v700h162z"/><glyph glyph-name="eng" unicode="ŋ" horiz-adv-x="607" d="M190-171l59 95q34-32 65-32 39 0 60 27.5T396-6v253q0 117-85 117-45 0-69-32.5T218 242V0H65v482h153v-70q43 82 158 82 93 0 135-55 38-47 38-153V-12q0-105-54.5-162T341-231q-89 0-151 60z"/><glyph glyph-name="Omacron" unicode="Ō" horiz-adv-x="805" d="M587 909V794H219v115h368zM403-18Q235-18 133.5 90.5T32 350t101.5 259.5T403 718q167 0 268.5-108.5T773 350 671.5 90.5 403-18zm0 146q92 0 148.5 66T608 350t-56.5 156T403 572t-148.5-65.5T198 350t56.5-156.5T403 128z"/><glyph glyph-name="omacron" unicode="ō" horiz-adv-x="599" d="M484 687V572H116v115h368zM299-13q-121 0-194 73.5T32 241t73 180.5T299 495q122 0 195-73.5T567 241 494 60.5 299-13zm0 131q51 0 83.5 35.5T415 241t-32.5 87.5T299 364t-82.5-35.5T185 241t31.5-87.5T299 118z"/><glyph glyph-name="Obreve" unicode="Ŏ" horiz-adv-x="805" d="M403 868q72 0 91 72h123q-13-77-72.5-124.5T403 768q-83 0-142.5 47.5T189 940h122q21-72 92-72zm0-886Q235-18 133.5 90.5T32 350t101.5 259.5T403 718q167 0 268.5-108.5T773 350 671.5 90.5 403-18zm0 146q92 0 148.5 66T608 350t-56.5 156T403 572t-148.5-65.5T198 350t56.5-156.5T403 128z"/><glyph glyph-name="obreve" unicode="ŏ" horiz-adv-x="599" d="M299 652q72 0 91 72h123q-12-77-72-124.5T299 552q-83 0-142.5 47.5T85 724h123q19-72 91-72zm0-665q-121 0-194 73.5T32 241t73 180.5T299 495q122 0 195-73.5T567 241 494 60.5 299-13zm0 131q51 0 83.5 35.5T415 241t-32.5 87.5T299 364t-82.5-35.5T185 241t31.5-87.5T299 118z"/><glyph glyph-name="Ohungarumlaut" unicode="Ő" horiz-adv-x="805" d="M270 770l-62 28 125 180 106-62zm133 28l125 180 106-62-169-146zm0-816Q235-18 133.5 90.5T32 350t101.5 259.5T403 718q167 0 268.5-108.5T773 350 671.5 90.5 403-18zm0 146q92 0 148.5 66T608 350t-56.5 156T403 572t-148.5-65.5T198 350t56.5-156.5T403 128z"/><glyph glyph-name="ohungarumlaut" unicode="ő" horiz-adv-x="599" d="M549 693L380 547l-62 28 125 179zM123 575l125 179 106-61-169-146zM299-13q-121 0-194 73.5T32 241t73 180.5T299 495q122 0 195-73.5T567 241 494 60.5 299-13zm0 131q51 0 83.5 35.5T415 241t-32.5 87.5T299 364t-82.5-35.5T185 241t31.5-87.5T299 118z"/><glyph glyph-name="OE" unicode="Œ" horiz-adv-x="1097" d="M403 127q92 0 148.5 66T608 349t-56.5 155.5T403 570t-148.5-65.5T198 349q0-91 56.5-156.5T403 127zm633 443H770V411h266V284H770V130h266V0H609v47q-85-66-206-66-168 0-269.5 108.5T32 349q0 72 25.5 138t72 117.5 117.5 82T403 717q119 0 206-67v50h427V570z"/><glyph glyph-name="oe" unicode="œ" horiz-adv-x="958" d="M914 204H569q2-107 106-107 69 0 89 55h150q-13-71-76-118T675-13q-118 0-187 71-74-71-189-71-121 0-194 73.5T32 241t73 180.5T299 495q114 0 188-71 69 71 185 71 110 0 179-64.5T920 275q0-36-6-71zM670 387q-44 0-72-25t-28-70h199q0 43-27 69t-72 26zM299 118q51 0 83.5 35t32.5 88q0 52-32.5 87.5T299 364t-82.5-35.5T185 241t31.5-87.5T299 118z"/><glyph glyph-name="Racute" unicode="Ŕ" horiz-adv-x="654" d="M489 868L213 740l-48 106 276 128zM340 326q50 0 81 35.5t31 85.5-31 85.5-81 35.5H229V326h111zM67 0v700h294q113 0 184-74t71-179q0-74-37-134.5T477 221L617 0H429L305 194h-76V0H67z"/><glyph glyph-name="racute" unicode="ŕ" horiz-adv-x="417" d="M371 650L95 522 47 628l276 128zm40-168V343q-29 7-54 7-139 0-139-162V0H65v482h153v-78q17 36 58 61t89 25q27 0 46-8z"/><glyph glyph-name="Rcommaaccent" unicode="Ŗ" horiz-adv-x="654" d="M67 0v700h294q113 0 184-74t71-179q0-74-37-134.5T477 221L617 0H429L305 194h-76V0H67zm273 568H229V326h111q50 0 81 35.5t31 85.5-31 85.5-81 35.5zM246-93q0 32 22 54.5T321-16q38 0 62.5-27.5T408-114q0-84-40.5-121T249-273v48q44 0 66.5 18t25.5 44q-3-6-20-6-34 0-54.5 22T246-93z"/><glyph glyph-name="rcommaaccent" unicode="ŗ" horiz-adv-x="417" d="M411 482V343q-29 7-54 7-139 0-139-162V0H65v482h153v-78q17 36 58 61t89 25q27 0 46-8zM61-93q0 32 22 54.5T136-16q38 0 62.5-27.5T223-114q0-84-40.5-120.5T64-272v48q46 0 70 19 20 17 22 43-5-7-20-7-34 0-54.5 22T61-93z"/><glyph glyph-name="Rcaron" unicode="Ř" horiz-adv-x="654" d="M304 742L109 907l76 83 120-108 120 108 76-83zm36-416q50 0 81 35.5t31 85.5-31 85.5-81 35.5H229V326h111zM67 0v700h294q113 0 184-74t71-179q0-74-37-134.5T477 221L617 0H429L305 194h-76V0H67z"/><glyph glyph-name="rcaron" unicode="ř" horiz-adv-x="417" d="M232 526L37 691l77 82 119-108 120 109 76-83zm179-44V343q-29 7-54 7-139 0-139-162V0H65v482h153v-78q17 36 58 61t89 25q27 0 46-8z"/><glyph glyph-name="Sacute" unicode="Ś" horiz-adv-x="606" d="M465 868L189 740l-49 106 276 128zM38 232h162q0-56 31-88.5t81-32.5q40 0 66 23t26 59q0 20-7.5 35t-25 27-32.5 18.5-44 17.5q-50 18-75.5 28.5t-62 31.5-54.5 42-31.5 54T58 521q0 92 72 144.5T304 718q119 0 184-64t65-159H391q0 47-22.5 74T304 596q-36 0-60.5-19T219 524q0-32 25.5-53.5T319 432q33-11 50.5-17.5t48-20T465 370t39-28.5 33-36.5 19.5-44.5T565 206q0-106-72.5-165T302-18q-116 0-190 66.5T38 232z"/><glyph glyph-name="sacute" unicode="ś" horiz-adv-x="510" d="M417 637L141 509 93 615l276 128zm-99-353q40-12 61.5-20.5t46.5-24 36-39.5 11-58q0-81-60-118T255-13Q151-13 92 33T33 162l150-1q0-71 77-71 63 0 63 45 0 6-1.5 11t-4.5 9.5-7 8-11 7-13.5 6-18 6.5-20.5 7-25 8-28 9q-31 10-47 15.5T108 240t-34.5 25.5-20 34.5-8.5 48q0 73 56.5 110T258 495q101 0 154.5-45.5T466 332H315q0 63-63 63-25 0-41-11t-16-32q0-7 2-13t8.5-11 12-8.5 18-8.5 22-8l28.5-9 32-10z"/><glyph glyph-name="Scircumflex" unicode="Ŝ" horiz-adv-x="606" d="M110 829l195 164 197-164-76-84-120 107-119-106zM38 232h162q0-56 31-88.5t81-32.5q40 0 66 23t26 59q0 20-7.5 35t-25 27-32.5 18.5-44 17.5q-50 18-75.5 28.5t-62 31.5-54.5 42-31.5 54T58 521q0 92 72 144.5T304 718q119 0 184-64t65-159H391q0 47-22.5 74T304 596q-36 0-60.5-19T219 524q0-32 25.5-53.5T319 432q33-11 50.5-17.5t48-20T465 370t39-28.5 33-36.5 19.5-44.5T565 206q0-106-72.5-165T302-18q-116 0-190 66.5T38 232z"/><glyph glyph-name="scircumflex" unicode="ŝ" horiz-adv-x="510" d="M61 617l195 164 197-164-76-84-120 107-120-106zm257-333q40-12 61.5-20.5t46.5-24 36-39.5 11-58q0-81-60-118T255-13Q151-13 92 33T33 162l150-1q0-71 77-71 63 0 63 45 0 6-1.5 11t-4.5 9.5-7 8-11 7-13.5 6-18 6.5-20.5 7-25 8-28 9q-31 10-47 15.5T108 240t-34.5 25.5-20 34.5-8.5 48q0 73 56.5 110T258 495q101 0 154.5-45.5T466 332H315q0 63-63 63-25 0-41-11t-16-32q0-7 2-13t8.5-11 12-8.5 18-8.5 22-8l28.5-9 32-10z"/><glyph glyph-name="Scedilla" unicode="Ş" horiz-adv-x="606" d="M263-116v100Q162-4 100 60.5T38 232h162q0-56 31-88.5t81-32.5q40 0 66 23t26 59q0 20-7.5 35t-25 27-32.5 18.5-44 17.5q-50 18-75.5 28.5t-62 31.5-54.5 42-31.5 54T58 521q0 92 72 144.5T304 718q119 0 184-64t65-159H391q0 47-22.5 74T304 596q-36 0-60.5-19T219 524q0-32 25.5-53.5T319 432q33-11 50.5-17.5t48-20T465 370t39-28.5 33-36.5 19.5-44.5T565 206q0-97-60.5-154.5T341-16v-43q15 15 42 15 34 0 58.5-25.5T466-133q0-41-28.5-71T357-234q-22 0-43 7t-41 29.5-24 56.5h74q7-30 34-30 15 0 25 10.5t10 27.5q0 15-10 24.5T358-99q-21 0-30-17h-65z"/><glyph glyph-name="scedilla" unicode="ş" horiz-adv-x="510" d="M205-114V-9Q123 2 78 46T33 162l150-1q0-71 77-71 63 0 63 45 0 6-1.5 11t-4.5 9.5-7 8-11 7-13.5 6-18 6.5-20.5 7-25 8-28 9q-31 10-47 15.5T108 240t-34.5 25.5-20 34.5-8.5 48q0 73 56.5 110T258 495q101 0 154.5-45.5T466 332H315q0 63-63 63-25 0-41-11t-16-32q0-7 2-13t8.5-11 12-8.5 18-8.5 22-8l28.5-9 32-10q40-12 61.5-20.5t46.5-24 36-39.5 11-58Q473 0 283-11v-46q15 15 42 15 34 0 58.5-25.5T408-131q0-41-28.5-71T299-232q-22 0-43 7t-41 29.5-24 56.5h74q7-30 34-30 15 0 25 10.5t10 27.5q0 15-10 24.5T300-97q-21 0-30-17h-65z"/><glyph glyph-name="Scaron" unicode="Š" horiz-adv-x="606" d="M308 742L113 907l77 83 119-108 120 108 76-83zM38 232h162q0-56 31-88.5t81-32.5q40 0 66 23t26 59q0 20-7.5 35t-25 27-32.5 18.5-44 17.5q-50 18-75.5 28.5t-62 31.5-54.5 42-31.5 54T58 521q0 92 73 144.5T306 718q119 0 183-64t64-159H391q0 47-22.5 74T304 596q-36 0-60.5-19T219 524q0-32 25.5-53.5T319 432q33-11 50.5-17.5t48-20T465 370t39-28.5 33-36.5 19.5-44.5T565 206q0-106-72.5-165T302-18q-116 0-190 66.5T38 232z"/><glyph glyph-name="scaron" unicode="š" horiz-adv-x="510" d="M256 526L61 691l76 82 120-108 120 109 76-83zm62-242q40-12 61.5-20.5t46.5-24 36-39.5 11-58q0-81-60-118T255-13Q151-13 92 32.5T33 161h150q0-71 77-71 63 0 63 45 0 6-1.5 11t-4.5 9.5-7 8-11 7-13.5 6-18 6.5-20.5 7-25 8-28 9q-31 10-47 15.5T108 240t-34.5 25.5-20 34.5-8.5 48q0 73 56.5 110T258 495q101 0 154.5-45.5T466 332H315q0 63-63 63-25 0-41-11t-16-32q0-7 2-13t8.5-11 12-8.5 18-8.5 22-8l28.5-9 32-10z"/><glyph glyph-name="Tcommaaccent" unicode="Ţ" horiz-adv-x="509" d="M173 0v560H15v140h479V560H335V0H173zm3-93q0 32 22 54.5T251-16q38 0 62.5-27.5T338-114q0-84-40.5-121T179-273v48q44 0 66.5 18t25.5 44q-3-6-20-6-34 0-54.5 22T176-93z"/><glyph glyph-name="tcommaaccent" unicode="ţ" horiz-adv-x="383" d="M17 368v114h76v143h152V482h110V368H245V196q0-49 16.5-65.5T311 114q34 0 55 3V0q-46-8-102-8-27 0-46 2T173.5 5.5t-41.5 27T104.5 83 93 162v206H17zM143-93q0 32 22 54.5T218-16q38 0 62.5-27.5T305-114q0-84-40.5-121T146-273v48q45 0 70 20 20 16 22 42-6-6-20-6-34 0-54.5 22T143-93z"/><glyph glyph-name="Tcaron" unicode="Ť" horiz-adv-x="509" d="M254 742L59 907l76 83 120-108 120 108 76-83zM173 0v560H15v140h479V560H335V0H173z"/><glyph glyph-name="tcaron" unicode="ť" horiz-adv-x="635" d="M379 628q0 40 27.5 68.5T474 725q48 0 77.5-34t29.5-89q0-105-49.5-151T384 404v60q56 0 86 25 26 21 29 53-7-7-25-7-42 0-68.5 27T379 628zM17 368v114h76v143h152V482h110V368H245V196q0-49 16.5-65.5T311 114q34 0 55 3V0q-46-8-102-8-27 0-46 2T173.5 5.5t-41.5 27T104.5 83 93 162v206H17z"/><glyph glyph-name="Tbar" unicode="Ŧ" horiz-adv-x="509" d="M438 457v-89H335V0H173v368H70v89h103v103H15v140h479V560H335V457h103z"/><glyph glyph-name="tbar" unicode="ŧ" horiz-adv-x="383" d="M366 117V0q-46-8-102-8-27 0-46 2T173.5 5.5t-41.5 27T104.5 83 93 162v47H17v82h76v77H17v114h76v143h152V482h110V368H245v-77h91v-82h-89v-19q0-46 16-61t48-15q34 0 55 3z"/><glyph glyph-name="Utilde" unicode="Ũ" horiz-adv-x="657" d="M402 884q37 0 70 46l80-70q-52-83-143-83-41 0-88.5 23.5T257 824q-23 0-37.5-11.5T189 778l-78 77q52 76 140 76 41 0 87.5-23.5T402 884zM56 239v461h162V240q0-49 31-83.5t79-34.5q49 0 80 34.5t31 83.5v460h162V239q0-111-75-184T328-18 130.5 55.5 56 239z"/><glyph glyph-name="utilde" unicode="ũ" horiz-adv-x="607" d="M374 680q38 0 70 46l80-71q-53-83-143-83-41 0-88.5 23.5T229 619q-23 0-37.5-11.5T161 573l-78 77q52 76 140 76 41 0 87.5-23t63.5-23zm168-198V0H389v69q-43-81-158-81-93 0-135 55-37 46-37 153v286h152V235q0-117 85-117 46 0 69.5 32.5T389 240v242h153z"/><glyph glyph-name="Umacron" unicode="Ū" horiz-adv-x="657" d="M515 909V794H147v115h368zM56 239v461h162V240q0-49 31-83.5t79-34.5q49 0 80 34.5t31 83.5v460h162V239q0-111-75-184T328-18 130.5 55.5 56 239z"/><glyph glyph-name="umacron" unicode="ū" horiz-adv-x="607" d="M487 687V572H119v115h368zm55-205V0H389v69q-43-81-158-81-93 0-135 55-37 46-37 153v286h152V235q0-117 85-117 46 0 69.5 32.5T389 240v242h153z"/><glyph glyph-name="Ubreve" unicode="Ŭ" horiz-adv-x="657" d="M326 868q72 0 91 72h123q-12-77-72-124.5T326 768q-83 0-142.5 47.5T112 940h123q19-72 91-72zM56 239v461h162V240q0-49 31-83.5t79-34.5q49 0 80 34.5t31 83.5v460h162V239q0-111-75-184T328-18 130.5 55.5 56 239z"/><glyph glyph-name="ubreve" unicode="ŭ" horiz-adv-x="607" d="M302 652q72 0 91 72h123q-12-77-72-124.5T302 552q-83 0-142.5 47.5T88 724h123q19-72 91-72zm240-170V0H389v69q-43-81-158-81-93 0-135 55-37 46-37 153v286h152V235q0-117 85-117 46 0 69.5 32.5T389 240v242h153z"/><glyph glyph-name="Uring" unicode="Ů" horiz-adv-x="657" d="M328 1002q56 0 95.5-40t39.5-95-39.5-94.5T328 733q-55 0-94.5 39.5T194 867q0 56 39 95.5t95 39.5zm0-82q-22 0-36.5-15.5T277 867q0-20 15-35t36-15 36.5 15 15.5 36-15 36.5-37 15.5zM56 239v461h162V240q0-49 31-83.5t79-34.5q49 0 80 34.5t31 83.5v460h162V239q0-111-75-184T328-18 130.5 55.5 56 239z"/><glyph glyph-name="uring" unicode="ů" horiz-adv-x="607" d="M300 804q57 0 97.5-40.5T438 666q0-56-40.5-97T300 528t-97.5 41-40.5 97q0 58 40.5 98t97.5 40zm0-78q-25 0-41.5-17.5T242 666q0-23 17-40t41-17 41 17 17 42q0 24-16.5 41T300 726zm242-244V0H389v69q-43-81-158-81-93 0-135 55-37 46-37 153v286h152V235q0-117 85-117 46 0 69.5 32.5T389 240v242h153z"/><glyph glyph-name="Uhungarumlaut" unicode="Ű" horiz-adv-x="657" d="M143 798l125 180 106-62-169-146zm195 0l125 180 106-62-169-146zM56 239v461h162V240q0-49 31-83.5t79-34.5q49 0 80 34.5t31 83.5v460h162V239q0-111-75-184T328-18 130.5 55.5 56 239z"/><glyph glyph-name="uhungarumlaut" unicode="ű" horiz-adv-x="607" d="M547 677L378 531l-62 28 125 180zm-195 0L183 531l-62 28 125 180zm37-195h153V0H389v69q-43-81-158-81-93 0-135 55-37 46-37 153v286h152V235q0-117 85-117 46 0 69.5 32.5T389 240v242z"/><glyph glyph-name="Uogonek" unicode="Ų" horiz-adv-x="657" d="M434-119l-2-78q-43-15-95-15-61 0-93 27.5T212-115q0 55 61 101Q173 2 114.5 72T56 239v461h162V240q0-49 31-83.5t79-34.5q49 0 80 34.5t31 83.5v460h162V239q0-101-63.5-172T367-15q-35-28-35-63 0-22 12.5-37.5T378-131q28 0 56 12z"/><glyph glyph-name="uogonek" unicode="ų" horiz-adv-x="607" d="M231-12q-93 0-135 55-37 46-37 153v286h152V235q0-117 85-117 46 0 69.5 32.5T389 240v242h153V0h-55q-63-40-63-85 0-19 12-32.5t31-13.5q27 0 56 12l-2-78q-43-15-95-15-63 0-96 27.5T297-115q0 59 92 118v66q-43-81-158-81z"/><glyph glyph-name="Wcircumflex" unicode="Ŵ" horiz-adv-x="1035" d="M323 829l195 164 197-164-76-84-120 107-120-106zM657 0L518 440 379 0H246L-1 700h171l143-459 142 459h125l143-459 142 459h171L789 0H657z"/><glyph glyph-name="wcircumflex" unicode="ŵ" horiz-adv-x="803" d="M208 617l196 164 196-164-76-84-120 107-119-106zM500 0l-98 307L303 0H179L-1 482h158l89-287 85 287h141l85-287 89 287h158L624 0H500z"/><glyph glyph-name="Ycircumflex" unicode="Ŷ" horiz-adv-x="641" d="M140 829l195 164 197-164-76-84-120 107-120-106zm509-129L302 0H123l129 263L4 700h189l149-275 128 275h179z"/><glyph glyph-name="ycircumflex" unicode="ŷ" horiz-adv-x="615" d="M113 617l196 164 196-164-76-84-120 107-119-106zm190-848q-117 0-178 50-66 54-66 144h153q2-40 28-62t65-22q47 0 70.5 22.5T399-22v99Q357-4 245-4q-95 0-139 58-37 46-37 149v279h152V235q0-117 85-117 46 0 69.5 32.5T399 240v242h153V-12q0-111-66-167-64-52-183-52z"/><glyph glyph-name="Ydieresis" unicode="Ÿ" horiz-adv-x="641" d="M129 852q0 38 27 65t65 27q39 0 65.5-27t26.5-65q0-37-26.5-63.5T221 762q-38 0-65 26.5T129 852zm241 0q0 38 26.5 65t64.5 27q39 0 66-27t27-65q0-37-27-63.5T461 762q-38 0-64.5 26.5T370 852zm279-152L302 0H123l129 263L4 700h189l149-275 128 275h179z"/><glyph glyph-name="Zacute" unicode="Ź" horiz-adv-x="632" d="M482 868L206 740l-48 106 276 128zM45 564v136h572L274 136h332V0H17l342 564H45z"/><glyph glyph-name="zacute" unicode="ź" horiz-adv-x="480" d="M403 636L127 508 78 614l276 128zM31 482h436L255 130h205V0H18l213 352H31v130z"/><glyph glyph-name="Zdotaccent" unicode="Ż" horiz-adv-x="632" d="M224 860q0 39 27.5 67t66.5 28q40 0 67.5-28t27.5-67q0-38-28-65.5T318 767t-66.5 27.5T224 860zM45 564v136h572L274 136h332V0H17l342 564H45z"/><glyph glyph-name="zdotaccent" unicode="ż" horiz-adv-x="480" d="M146 629q0 39 27 66.5t67 27.5 67.5-27.5T335 629q0-38-27.5-65.5T240 536t-67 27-27 66zM31 482h436L255 130h205V0H18l213 352H31v130z"/><glyph glyph-name="Zcaron" unicode="Ž" horiz-adv-x="632" d="M325 742L129 907l77 83 119-108 120 108 76-83zM45 564v136h572L274 136h332V0H17l342 564H45z"/><glyph glyph-name="zcaron" unicode="ž" horiz-adv-x="480" d="M250 526L55 691l77 82 119-108 120 109 76-83zM31 482h436L255 130h205V0H18l213 352H31v130z"/><glyph glyph-name="longs" unicode="ſ" horiz-adv-x="380" d="M368 698V588q-24 6-47 6-32 0-49-11.5T255 533V0H103v368H16v114h87v42q0 50 12 86.5t29.5 55.5 44.5 29.5 47.5 13T285 711q50 0 83-13z"/><glyph glyph-name="florin" unicode="ƒ" horiz-adv-x="476" d="M-55-176l19 110q23-6 46-6 30 0 48 12T87-8l66 376H66l20 114h87l7 42q9 50 27.5 86.5t39 55.5 49.5 29.5 50 13 49 2.5q50 0 80-13l-19-110q-22 6-46 6-31 0-50-11.5T334 533l-9-51h112l-20-114H305L240-2q-9-50-27.5-86.5t-39-55.5-49.5-29.5-50-13-49-2.5q-50 0-80 13z"/><glyph glyph-name="Aringacute" unicode="Ǻ" horiz-adv-x="660" d="M451 922L216 807l-31 66 235 114zM328 784q-12 0-20-8.5t-8-19.5q0-10 8.5-18t19.5-8q10 0 18 8t8 19-7.5 19-18.5 8zm1-284l-86-288h170zm81 257q0-33-24-57h17L656 0H480l-27 85H204L177 0H4l249 699h17q-25 22-25 58 0 34 24.5 58t58.5 24 58-24.5 24-57.5z"/><glyph glyph-name="aringacute" unicode="ǻ" horiz-adv-x="635" d="M189 727l-46 96 257 122 46-97zm116-206q-44 0-75.5 31.5T198 628t31.5 75.5T305 735t75.5-31.5T412 628t-31.5-75.5T305 521zm0 67q17 0 28.5 12t11.5 29-11.5 28.5T305 669t-28-12-11-30q0-16 11.5-27.5T305 588zm112-347q0 51-32 87t-83 36-83-36-32-87 32-87 83-36 83 36 32 87zm0 172v69h153V0H417v68q-18-34-59.5-57T270-12q-103 0-169 72T35 241t66 181 169 72q46 0 87.5-23.5T417 413z"/><glyph glyph-name="AEacute" unicode="Ǽ" horiz-adv-x="919" d="M692 868L416 740l-49 106 276 128zM271 213h156v342zm583 357H589V411h265V284H589V130h265V0H427v86H215L177 0H1l336 700h517V570z"/><glyph glyph-name="aeacute" unicode="ǽ" horiz-adv-x="961" d="M642 626L366 498l-48 105 276 128zM417 482h138v-12q55 25 119 25 110 0 179-64.5T922 275q0-42-5-71H571q2-107 106-107 69 0 89 55h150q-13-71-76-118T678-13q-68 0-123 26V0H417v68q-18-34-59.5-57T270-12q-103 0-169 72T35 241t66 181 169 72q46 0 87.5-23.5T417 413v69zm255-95q-43 0-71-25t-29-70h199q0 43-27.5 69T672 387zM302 118q51 0 83 36t32 87q0 52-32.5 87.5T302 364q-51 0-83-36t-32-87 32-87 83-36z"/><glyph glyph-name="Oslashacute" unicode="Ǿ" horiz-adv-x="805" d="M564 868L288 740l-48 106 276 128zM443 566q-18 6-40 6-92 0-148.5-65.5T198 350q0-110 76-175zm165-216q0 54-22 101.5T524 530L353 134q21-6 50-6 92 0 148.5 66T608 350zM403-18q-60 0-111 15l-39-90-81 36 38 88Q126 79 79 164.5T32 350q0 151 101.5 259.5T403 718q51 0 101-13l37 84 81-37-34-79q87-47 136-134.5T773 350q0-151-101.5-259.5T403-18z"/><glyph glyph-name="oslashacute" unicode="ǿ" horiz-adv-x="599" d="M461 637L185 509l-48 106 276 128zM185 241q0-57 35-92l94 213q-10 2-15 2-51 0-82.5-35.5T185 241zm114-123q51 0 83.5 35.5T415 241q0 59-41 95l-95-217q6-1 20-1zm163 417l-31-70q65-32 100.5-91.5T567 241q0-107-73-180.5T299-13q-41 0-75 9l-32-74-60 26 30 72q-62 32-96 91T32 241q0 107 73 180.5T299 495q35 0 70-8l32 74z"/><glyph glyph-name="Scommaaccent" unicode="Ș" horiz-adv-x="606" d="M38 232h162q0-56 31-88.5t81-32.5q40 0 66 23t26 59q0 20-7.5 35t-25 27-32.5 18.5-44 17.5q-50 18-75.5 28.5t-62 31.5-54.5 42-31.5 54T58 521q0 92 72 144.5T304 718q119 0 184-64t65-159H391q0 47-22.5 74T304 596q-36 0-60.5-19T219 524q0-32 25.5-53.5T319 432q33-11 50.5-17.5t48-20T465 370t39-28.5 33-36.5 19.5-44.5T565 206q0-106-72.5-165T302-18q-116 0-190 66.5T38 232zm187-335q0 32 22 54.5T300-26q38 0 62.5-27.5T387-124q0-84-40.5-121T228-283v48q44 0 66.5 18t25.5 44q-3-6-20-6-34 0-54.5 22T225-103z"/><glyph glyph-name="scommaaccent" unicode="ș" horiz-adv-x="510" d="M33 162l150-1q0-71 77-71 63 0 63 45 0 6-1.5 11t-4.5 9.5-7 8-11 7-13.5 6-18 6.5-20.5 7-25 8-28 9q-31 10-47 15.5T108 240t-34.5 25.5-20 34.5-8.5 48q0 73 56.5 110T258 495q101 0 154.5-45.5T466 332H315q0 63-63 63-25 0-41-11t-16-32q0-7 2-13t8.5-11 12-8.5 18-8.5 22-8l28.5-9 32-10q40-12 61.5-20.5t46.5-24 36-39.5 11-58q0-81-60-118T255-13Q151-13 92 33T33 162zM176-95q0 32 22 54.5T252-18q38 0 62-27t24-71q0-84-40-120.5T180-274v48q45 0 69 19 21 17 23 43-5-7-20-7-34 0-55 22t-21 54z"/><glyph glyph-name="uni021A" unicode="Ț" horiz-adv-x="509" d="M173 0v560H15v140h479V560H335V0H173zm3-93q0 32 22 54.5T251-16q38 0 62.5-27.5T338-114q0-84-40.5-121T179-273v48q44 0 66.5 18t25.5 44q-3-6-20-6-34 0-54.5 22T176-93z"/><glyph glyph-name="uni021B" unicode="ț" horiz-adv-x="383" d="M17 368v114h76v143h152V482h110V368H245V196q0-49 16.5-65.5T311 114q34 0 55 3V0q-46-8-102-8-27 0-46 2T173.5 5.5t-41.5 27T104.5 83 93 162v206H17zM141-93q0 32 22.5 54.5T217-16q38 0 62-27.5t24-70.5q0-84-40-121t-118-38v48q44 0 69 20 19 15 23 42-6-6-20-6-34 0-55 22t-21 54z"/><glyph glyph-name="hsuperior" unicode="ʰ" horiz-adv-x="400" d="M63 315v385h96V546q26 46 87 46 47 0 70-26 24-28 24-92V315h-97v138q0 55-40 55-44 0-44-60V315H63z"/><glyph glyph-name="jsuperior" unicode="ʲ" horiz-adv-x="248" d="M65 670q0 25 17.5 42.5T126 730q25 0 43-17.5t18-42.5q0-24-18-41.5T126 611q-26 0-43.5 17.5T65 670zm112-84V287q0-54-21.5-73.5T93 194t-64 7v72q14-3 23-3 24 0 24 26v290h101z"/><glyph glyph-name="wsuperior" unicode="ʷ" horiz-adv-x="520" d="M306 315l-46 154-45-154h-88L29 586h102l45-154 38 154h91l39-154 45 154h103l-99-271h-87z"/><glyph glyph-name="ysuperior" unicode="ʸ" horiz-adv-x="413" d="M200 194Q60 194 60 300h100q0-38 43-38 25 0 35.5 13t10.5 44v43q-23-47-89-47-47 0-72 28-23 25-23 90v153h100V448q0-55 41-55 43 0 43 60v133h102V326q0-73-33.5-102.5T200 194z"/><glyph glyph-name="apostrophemod" unicode="ʼ" horiz-adv-x="283" d="M60 662q0 32 22.5 55t54.5 23q39 0 62.5-27.5T223 641q0-85-40-122T64 481v49q46 0 69 20 21 16 24 42-5-5-20-5-35 0-56 21.5T60 662z"/><glyph glyph-name="circumflex" unicode="ˆ" horiz-adv-x="488" d="M46 685l196 157 196-157-79-88-117 94-116-93z"/><glyph glyph-name="caron" unicode="ˇ" horiz-adv-x="461" d="M230 604L48 761l73 88 109-98 110 98 73-88z"/><glyph glyph-name="breve" unicode="˘" horiz-adv-x="546" d="M57 855h116q25-74 100-74 73 0 100 74h116q-14-78-74-125t-142-47-142 47-74 125z"/><glyph glyph-name="dotaccent" unicode="˙" horiz-adv-x="496" d="M153 622q0 39 27.5 66.5T247 716q40 0 68-27.5t28-66.5q0-38-28-65.5T247 529q-39 0-66.5 27.5T153 622z"/><glyph glyph-name="ring" unicode="˚" horiz-adv-x="496" d="M248 846q55 0 94.5-39.5T382 712t-39.5-94.5T248 578q-56 0-95.5 39.5T113 712q0 56 39.5 95t95.5 39zm0-88q-19 0-32-14t-13-32q0-17 13.5-30.5T248 668t31 13.5 13 31.5-13 31.5-31 13.5z"/><glyph glyph-name="ogonek" unicode="˛" horiz-adv-x="477" d="M350-119l-2-78q-43-15-95-15-62 0-94 27.5T127-115q0 58 79 115h98q-17-12-27-20t-19.5-24-9.5-34q0-22 12.5-37.5T294-131q28 0 56 12z"/><glyph glyph-name="tilde" unicode="˜" horiz-adv-x="513" d="M111 570l-50 92q63 38 110 38 15 0 75.5-13.5T321 673q26 0 85 27l46-90q-58-45-116-45-16 0-76.5 13T186 591q-22 0-75-21z"/><glyph glyph-name="hungarumlaut" unicode="˝" horiz-adv-x="509" d="M64 568l125 179 106-61-169-146zm195 0l125 179 106-61-169-146z"/><glyph glyph-name="xsuperior" unicode="ˣ" horiz-adv-x="370" d="M245 452l96-137H225l-40 73-40-73H28l97 137-95 134h117l38-71 38 71h117z"/><glyph glyph-name="Delta" unicode="Δ" horiz-adv-x="660" d="M403 700L656 0H4l250 700h149zm-74-200L218 127h220z"/><glyph glyph-name="Omega" unicode="Ω" horiz-adv-x="723" d="M362 567q-76 0-118.5-49T201 398q0-67 32.5-116.5T330 218V0H55v127h150v15q-78 36-122 105.5T39 404q0 127 89 217.5T362 712t233.5-90.5T684 404q0-87-44-157T518 142v-15h150V0H393v218q64 14 96.5 63.5T522 398q0 72-42 120.5T362 567z"/><glyph glyph-name="mu" unicode="μ" d="M65-218v700h152V233q2-115 85-115 46 0 69.5 32.5T395 240v242h153V0H395v69Q356-2 258-10q-23 0-41 6v-214H65z"/><glyph glyph-name="pi" unicode="π" d="M592 482V367h-70V0H369v367H244V0H91v367H21v115h571z"/><glyph glyph-name="Wgrave" unicode="Ẁ" horiz-adv-x="1035" d="M631 740L355 868l49 106 276-128zM657 0L518 440 379 0H246L-1 700h171l143-459 142 459h125l143-459 142 459h171L789 0H657z"/><glyph glyph-name="wgrave" unicode="ẁ" horiz-adv-x="803" d="M515 509L239 637l49 106 276-128zM500 0l-98 307L303 0H179L-1 482h158l89-287 85 287h141l85-287 89 287h158L624 0H500z"/><glyph glyph-name="Wacute" unicode="Ẃ" horiz-adv-x="1035" d="M680 868L404 740l-49 106 276 128zM657 0L518 440 379 0H246L-1 700h171l143-459 142 459h125l143-459 142 459h171L789 0H657z"/><glyph glyph-name="wacute" unicode="ẃ" horiz-adv-x="803" d="M564 637L288 509l-49 106 276 128zM500 0l-98 307L303 0H179L-1 482h158l89-287 85 287h141l85-287 89 287h158L624 0H500z"/><glyph glyph-name="Wdieresis" unicode="Ẅ" horiz-adv-x="1035" d="M305 863q0 38 26.5 65t64.5 27q40 0 66.5-26.5T489 863q0-37-27-63.5T396 773q-38 0-64.5 26.5T305 863zm241 0q0 38 26.5 65t64.5 27q39 0 65.5-27t26.5-65q0-37-26.5-63.5T637 773q-38 0-64.5 26.5T546 863zM657 0L518 440 379 0H246L-1 700h171l143-459 142 459h125l143-459 142 459h171L789 0H657z"/><glyph glyph-name="wdieresis" unicode="ẅ" horiz-adv-x="803" d="M189 629q0 38 26.5 65t64.5 27q40 0 66.5-26.5T373 629q0-37-27-63.5T280 539q-38 0-64.5 26.5T189 629zm241 0q0 38 26.5 65t64.5 27q39 0 65.5-27t26.5-65q0-37-26.5-63.5T521 539q-38 0-64.5 26.5T430 629zM500 0l-98 307L303 0H179L-1 482h158l89-287 85 287h141l85-287 89 287h158L624 0H500z"/><glyph glyph-name="Ygrave" unicode="Ỳ" horiz-adv-x="641" d="M434 740L158 868l48 106 276-128zm215-40L302 0H123l129 263L4 700h189l149-275 128 275h179z"/><glyph glyph-name="ygrave" unicode="ỳ" horiz-adv-x="615" d="M421 509L145 637l48 106 276-128zM303-231q-117 0-178 50-66 54-66 144h153q2-40 28-62t65-22q47 0 70.5 22.5T399-22v99Q357-4 245-4q-95 0-139 58-37 46-37 149v279h152V235q0-117 85-117 46 0 69.5 32.5T399 240v242h153V-12q0-111-66-167-64-52-183-52z"/><glyph glyph-name="thinspace" horiz-adv-x="204"/><glyph glyph-name="endash" unicode="–" horiz-adv-x="503" d="M463 236H40v122h423V236z"/><glyph glyph-name="emdash" unicode="—" horiz-adv-x="1006" d="M961 236H45v122h916V236z"/><glyph glyph-name="quoteleft" unicode="‘" horiz-adv-x="298" d="M252 516q0-40-27.5-68T157 420q-48 0-77.5 33.5T50 542q0 105 50 151t147 47v-60q-57 0-85-25-25-18-30-52 10 7 25 7 43 0 69-27t26-67z"/><glyph glyph-name="quoteright" unicode="’" horiz-adv-x="298" d="M46 643q0 41 27.5 69t67.5 28q48 0 77.5-34t29.5-88q0-105-49.5-151T51 420v59q56 0 86 25 26 21 29 53-7-7-25-7-42 0-68.5 27T46 643z"/><glyph glyph-name="quotesinglbase" unicode="‚" horiz-adv-x="298" d="M46 75q0 41 27.5 69t67.5 28q48 0 77.5-34T248 50q0-105-49.5-151T51-148v59q56 0 86 25 26 20 29 53-5-7-25-7-42 0-68.5 27T46 75z"/><glyph glyph-name="quotedblleft" unicode="“" horiz-adv-x="523" d="M252 516q0-40-27.5-68T157 420q-48 0-77.5 33.5T50 542q0 105 50 151t147 47v-60q-57 0-85-25-25-18-30-52 10 7 25 7 43 0 69-27t26-67zm225 0q0-40-27.5-68T382 420q-48 0-77.5 33.5T275 542q0 105 49.5 151T472 740v-60q-56 0-86-25-26-20-29-52 7 7 25 7 43 0 69-27t26-67z"/><glyph glyph-name="quotedblright" unicode="”" horiz-adv-x="523" d="M271 643q0 41 27.5 69t67.5 28q48 0 77.5-34t29.5-88q0-105-50-151t-147-47v59q57 0 85 25 25 20 30 53-7-7-25-7-42 0-68.5 27T271 643zm-225 0q0 41 27.5 69t67.5 28q48 0 77.5-34t29.5-88q0-105-49.5-151T51 420v59q56 0 86 25 26 21 29 53-5-7-25-7-42 0-68.5 27T46 643z"/><glyph glyph-name="quotedblbase" unicode="„" horiz-adv-x="523" d="M271 75q0 41 27.5 69t67.5 28q48 0 77.5-34T473 50q0-105-50-151t-147-47v59q57 0 85 25 24 18 30 53-7-7-25-7-42 0-68.5 27T271 75zM46 75q0 41 27.5 69t67.5 28q48 0 77.5-34T248 50q0-105-49.5-151T51-148v59q56 0 86 25 26 20 29 53-5-7-25-7-42 0-68.5 27T46 75z"/><glyph glyph-name="dagger" unicode="†" horiz-adv-x="466" d="M295-182H171v531H55v112h116v256h124V461h115V349H295v-531z"/><glyph glyph-name="daggerdbl" unicode="‡" horiz-adv-x="466" d="M171 717h124V482h115V372H295V109h115V0H295v-182H171V0H55v109h116v263H55v110h116v235z"/><glyph glyph-name="bullet" unicode="•" horiz-adv-x="363" d="M47 312q0 56 39 95t95 39q57 0 96-39t39-95q0-55-39-94t-96-39q-56 0-95 39t-39 94z"/><glyph glyph-name="ellipsis" unicode="…" horiz-adv-x="986" d="M50 91q0 42 29 71.5t72 29.5 72-29.5T252 91q0-41-29-70.5T151-9 79 20.5 50 91zm342-1q0 42 29 71.5t72 29.5 72-29.5T594 90t-29-71-72-29-72 29-29 71zm342 0q0 42 29 71t72 29 72-29 29-71-29-71-72-29-72 29-29 71z"/><glyph glyph-name="perthousand" unicode="‰" horiz-adv-x="1315" d="M219 0l399 754 106-53L324-53zM72 445v125q0 58 42.5 98.5T227 709q69 0 112-40.5t43-98.5V445q0-58-43-98.5T227 306q-70 0-112.5 40.5T72 445zm203 0v125q0 22-13.5 37T227 622t-34.5-15-13.5-37V445q0-22 13.5-37t34.5-15 34.5 15 13.5 37zm452-51q69 0 112-40.5t43-98.5V130q0-58-43-98.5T727-9q-70 0-112.5 40.5T572 130v125q0 58 42.5 98.5T727 394zm515-139V130q0-58-43-98.5T1087-9q-70 0-112.5 40.5T932 130v125q0 58 42.5 98.5T1087 394q69 0 112-40.5t43-98.5zm-515 52q-21 0-34.5-15T679 255V130q0-22 13.5-37T727 78t34.5 15 13.5 37v125q0 22-13.5 37T727 307zm312-177q0-22 13.5-37t34.5-15q22 0 35 15t13 37v125q0 22-13 37t-35 15q-21 0-34.5-15t-13.5-37V130z"/><glyph glyph-name="guilsinglleft" unicode="‹" horiz-adv-x="292" d="M250 211V78L37 251v80l213 173V371l-103-80z"/><glyph glyph-name="guilsinglright" unicode="›" horiz-adv-x="292" d="M42 78v133l102 80-102 80v133l213-173v-80z"/><glyph glyph-name="fraction" unicode="⁄" horiz-adv-x="205" d="M-150 0l400 754 105-53L-45-53z"/><glyph glyph-name="zerosuperior" unicode="⁰" horiz-adv-x="413" d="M52 445v125q0 58 42 98.5T206 709q69 0 112.5-40.5T362 570V445q0-58-43.5-98.5T206 306q-70 0-112 40.5T52 445zm203 0v125q0 22-13.5 37T206 622q-21 0-34-15t-13-37V445q0-22 13-37t34-15q22 0 35.5 15t13.5 37z"/><glyph glyph-name="foursuperior" unicode="⁴" horiz-adv-x="416" d="M222 315v100H59v285h107V503h56v100h106V503h43v-88h-43V315H222z"/><glyph glyph-name="fivesuperior" unicode="⁵" horiz-adv-x="420" d="M65 476v224h279v-78H165v-72q21 32 75 32 61 0 93.5-39.5T366 450q0-62-41.5-103T211 306 97 347 55 448h103q0-24 14.5-40.5T211 391t38.5 17 14.5 42q0 23-14.5 39.5T211 506q-33 0-49-30H65z"/><glyph glyph-name="sixsuperior" unicode="⁶" horiz-adv-x="402" d="M200 307q-72 0-113.5 41T45 450q0 46 22 80l112 170h120l-74-110q15-4 33-11 46-13 72-48t26-81q0-61-42-102t-114-41zm0 86q24 0 38.5 16t14.5 41q0 24-14.5 40T200 506t-38.5-16-14.5-40 14.5-40.5T200 393z"/><glyph glyph-name="sevensuperior" unicode="⁷" horiz-adv-x="372" d="M48 700h299L183 315H68l127 297H48v88z"/><glyph glyph-name="eightsuperior" unicode="⁸" horiz-adv-x="410" d="M205 306q-71 0-112.5 33.5T51 424q0 32 19.5 58t46.5 33q-24 8-40 31t-16 52q0 48 38.5 79.5T205 709t105.5-31.5T349 598q0-29-16-52t-40-31q27-9 46.5-34t19.5-57q0-50-41.5-84T205 306zm0 245q20 0 32 12.5t12 29.5-12 29.5-32 12.5-32-12.5-12-29.5 12-29.5 32-12.5zm0-171q23 0 37 14t14 33q0 20-13.5 33.5T205 474t-37.5-13.5T154 427t14-33.5 37-13.5z"/><glyph glyph-name="ninesuperior" unicode="⁹" horiz-adv-x="402" d="M223 315H104l74 110q-61 7-96.5 45.5T46 565q0 61 42 102t114 41q71 0 113.5-41T358 565q0-45-24-80zm-21 307q-24 0-38.5-16.5T149 565t14.5-40 38.5-16 38.5 16 14.5 40-14.5 40.5T202 622z"/><glyph glyph-name="plussuperior" unicode="⁺" horiz-adv-x="410" d="M245 349h-80v84H83v77h82v84h80v-84h82v-77h-82v-84z"/><glyph glyph-name="minussuperior" unicode="⁻" horiz-adv-x="410" d="M327 433H83v77h244v-77z"/><glyph glyph-name="equalsuperior" unicode="⁼" horiz-adv-x="410" d="M327 487H83v77h244v-77zm0-109H83v77h244v-77z"/><glyph glyph-name="parenleftsuperior" unicode="⁽" horiz-adv-x="283" d="M234 733v-88q-33 0-52-21.5T163 570V357q0-31 19-52.5t52-21.5v-89q-79 0-126.5 47T60 357v213q0 69 47.5 116T234 733z"/><glyph glyph-name="parenrightsuperior" unicode="⁾" horiz-adv-x="283" d="M49 645v88q79 0 126-47t47-116V357q0-69-47-116T49 194v89q32 0 51.5 21.5T120 357v213q0 32-19.5 53.5T49 645z"/><glyph glyph-name="nsuperior" unicode="ⁿ" horiz-adv-x="409" d="M63 315v271h101v-40q22 46 89 46 49 0 73-27 23-25 23-90V315H248v138q0 55-40 55-44 0-44-60V315H63z"/><glyph glyph-name="zeroinferior" unicode="₀" horiz-adv-x="413" d="M52-70V55q0 58 42 98.5T206 194q69 0 112.5-40.5T362 55V-70q0-58-43.5-98.5T206-209q-70 0-112 40.5T52-70zm203 0V55q0 22-13.5 37T206 107q-21 0-34-15t-13-37V-70q0-22 13-37t34-15q22 0 35.5 15T255-70z"/><glyph glyph-name="oneinferior" unicode="₁" horiz-adv-x="298" d="M46 43v72q55 0 75 16.5t20 53.5h92v-385H125V43H46z"/><glyph glyph-name="twoinferior" unicode="₂" horiz-adv-x="397" d="M54-200q0 88 24.5 130T155 3q35 20 48 28.5t24.5 22T239 83q0 37-36 37-40 0-40-51H56q0 53 37 89t110 36q60 0 100.5-29T344 77q0-68-98-126-42-25-55.5-37T177-117h164v-83H54z"/><glyph glyph-name="threeinferior" unicode="₃" horiz-adv-x="404" d="M47-70h107q0-58 47-58 20 0 31 13t11 32q0 45-48 45h-41v79h41q45 0 45 40 0 39-37 39-40 0-40-51H56q0 54 34 89.5T203 194q62 0 102.5-27T346 85q0-31-18-55T286-1q27-9 45.5-34T350-94q0-55-42.5-85T205-209q-81 0-119.5 38T47-70z"/><glyph glyph-name="fourinferior" unicode="₄" horiz-adv-x="416" d="M222-200v100H59v285h107V-12h56V88h106V-12h43v-88h-43v-100H222z"/><glyph glyph-name="fiveinferior" unicode="₅" horiz-adv-x="420" d="M65-39v224h279v-78H165V35q21 32 75 32 61 0 93.5-39.5T366-65q0-62-41.5-103T211-209 97-168 55-67h103q0-24 14.5-40.5T211-124t38.5 17T264-65q0 23-14.5 39.5T211-9q-33 0-49-30H65z"/><glyph glyph-name="sixinferior" unicode="₆" horiz-adv-x="402" d="M200-208q-72 0-113.5 41T45-65q0 46 22 80l112 170h120L225 75q15-4 33-11 46-13 72-48t26-81q0-61-42-102t-114-41zm0 86q24 0 38.5 16T253-65q0 24-14.5 40T200-9t-38.5-16T147-65t14.5-40.5T200-122z"/><glyph glyph-name="seveninferior" unicode="₇" horiz-adv-x="372" d="M48 185h299L183-200H68L195 97H48v88z"/><glyph glyph-name="eightinferior" unicode="₈" horiz-adv-x="410" d="M205-209q-71 0-112.5 33.5T51-91q0 32 19.5 58T117 0Q93 8 77 31T61 83q0 48 38.5 79.5T205 194t105.5-31.5T349 83q0-29-16-52T293 0q27-9 46.5-34T359-91q0-50-41.5-84T205-209zm0 245q20 0 32 12.5T249 78t-12 29.5-32 12.5-32-12.5T161 78t12-29.5T205 36zm0-171q23 0 37 14t14 33q0 20-13.5 33.5T205-41t-37.5-13.5T154-88t14-33.5 37-13.5z"/><glyph glyph-name="nineinferior" unicode="₉" horiz-adv-x="402" d="M223-200H104l74 110q-61 7-96.5 45.5T46 50q0 61 42 102t114 41q71 0 113.5-41T358 50q0-46-24-80zm-21 307q-24 0-38.5-16.5T149 50t14.5-40T202-6t38.5 16T255 50t-14.5 40.5T202 107z"/><glyph glyph-name="parenleftinferior" unicode="₍" horiz-adv-x="283" d="M234 218v-88q-33 0-52-21.5T163 55v-213q0-31 19-52.5t52-21.5v-89q-79 0-126.5 47T60-158V55q0 69 47.5 116T234 218z"/><glyph glyph-name="parenrightinferior" unicode="₎" horiz-adv-x="283" d="M49 130v88q79 0 126-47t47-116v-213q0-69-47-116T49-321v89q32 0 51.5 21.5T120-158V55q0 32-19.5 53.5T49 130z"/><glyph glyph-name="Euro" unicode="€" horiz-adv-x="630" d="M442 236h162q0-105-74.5-178T336-15 143.5 58 70 236H8l20 88h42v52H8l20 88h42q0 105 73.5 178T336 715q115 0 188-67t79-166H441q-5 42-33.5 69T336 578q-47 0-75.5-33T232 464h171l-20-88H232v-52h171l-20-88H232q0-48 28.5-81t75.5-33 76.5 33 29.5 81z"/><glyph glyph-name="afii61289" unicode="ℓ" horiz-adv-x="477" d="M309-14q-30 0-49 1.5t-46.5 10-44.5 24T138.5 67 122 140L59 97 2 206l117 77v224q0 99 47.5 154.5T296 717q61 0 101-29t54.5-68 14.5-87q0-89-53.5-158T258 233v-58q0-30 14-46.5t30-20 41-3.5q50 0 80 7V-2q-35-12-114-12zm-4 619q-42 0-46-81-1-8-1-141 45 40 65 74.5t20 75.5q0 72-38 72z"/><glyph glyph-name="afii61352" unicode="№" horiz-adv-x="1159" d="M914 299q-102 0-161.5 59.5T693 505q0 88 59.5 147T914 711t161.5-59 59.5-147q0-87-59.5-146.5T914 299zm0 115q38 0 61.5 26.5T999 505t-23.5 64-61.5 26-61.5-26-23.5-64 23.5-64.5T914 414zM236 700l253-456v456h161V0H481L229 450V0H67v700h169zm899-528H693v109h442V172z"/><glyph glyph-name="trademark" unicode="™" horiz-adv-x="837" d="M32 700h274v-90h-86V293H117v317H32v90zm318-407v407h157l76-259 76 259h155V293H713v302l-88-302h-83l-91 302V293H350z"/><glyph glyph-name="uni2126" unicode="Ω" horiz-adv-x="723" d="M362 567q-76 0-118.5-49T201 398q0-67 32.5-116.5T330 218V0H55v127h150v15q-78 36-122 105.5T39 404q0 127 89 217.5T362 712t233.5-90.5T684 404q0-87-44-157T518 142v-15h150V0H393v218q64 14 96.5 63.5T522 398q0 72-42 120.5T362 567z"/><glyph glyph-name="estimated" unicode="℮" horiz-adv-x="533" d="M494 247H167V37q46-27 108-27 71 0 122 35.5t67 86.5h22q-16-61-72.5-102.5T275-12Q159-12 96.5 61.5T34 242q0 112 63.5 182.5T272 495q93 0 158-63t65-155q0-16-1-30zM272 473q-61 0-105-26V269h198v180q-43 24-93 24z"/><glyph glyph-name="arrowleft" unicode="←" horiz-adv-x="720" d="M270 110L10 350l260 240 70-77-121-108h491V294H220l120-107z"/><glyph glyph-name="arrowup" unicode="↑" horiz-adv-x="540" d="M30 440l240 260 240-260-77-71-108 121V0H214v489L106 369z"/><glyph glyph-name="arrowright" unicode="→" horiz-adv-x="720" d="M450 590l260-240-260-240-71 77 121 108H10v111h489L379 513q70 77 71 77z"/><glyph glyph-name="arrowdown" unicode="↓" horiz-adv-x="540" d="M510 260L270 0 30 260l76 71 109-122v491h110V210l108 121z"/><glyph glyph-name="uni2196" unicode="↖" horiz-adv-x="593" d="M43 244L30 597l353-13-5-105-162 9 347-346-78-79-346 346 9-161z"/><glyph glyph-name="uni2197" unicode="↗" horiz-adv-x="593" d="M210 584l353 13-13-353-105 4 10 162L108 63l-78 79 345 346-160-9q-5 104-5 105z"/><glyph glyph-name="uni2198" unicode="↘" horiz-adv-x="593" d="M550 456l13-353-353 13 5 105 162-9L30 558l78 79 346-346-9 161z"/><glyph glyph-name="uni2199" unicode="↙" horiz-adv-x="593" d="M383 116L30 103l13 353 105-4-9-162 346 347 78-79-345-346 160 9q5-104 5-105z"/><glyph glyph-name="partialdiff" unicode="∂" d="M300-20q-120 0-189 63.5T42 217q0 96 67.5 165T285 451q69 0 127-37-5 108-30 146t-76 38q-46 0-72.5-32.5T207 479H45q0 100 67.5 169.5T306 718q50 0 89-11t73-38 56-71 34.5-112.5T571 326q0-184-69.5-265T300-20zm4 346q-48 0-76.5-33.5T199 214q0-47 26.5-76.5T297 108q56 0 85 39.5T414 291q-47 35-110 35z"/><glyph glyph-name="uni2206" unicode="∆" horiz-adv-x="660" d="M403 700L656 0H4l250 700h149zm-74-200L218 127h220z"/><glyph glyph-name="product" unicode="∏" horiz-adv-x="700" d="M703 794V653h-70v-871H471v871H229v-871H67v871H-3v141h706z"/><glyph glyph-name="summation" unicode="∑" d="M594-218H19v141l357 370L19 659v135h575V654H219l356-346L219-72h375v-146z"/><glyph glyph-name="minus" unicode="−" d="M520 223H93v123h427V223z"/><glyph glyph-name="radical" unicode="√" horiz-adv-x="773" d="M-4 121v136h247l88-285 273 822h177L405-234H256L126 121H-4z"/><glyph glyph-name="infinity" unicode="∞" horiz-adv-x="846" d="M604 503q104 0 162.5-62T825 289t-58.5-152T604 75q-103 0-181 104Q344 75 242 75q-104 0-162.5 63T21 289t58.5 151T242 503q100 0 181-104 79 104 181 104zM243 381q-43 0-67.5-26.5T151 289t24.5-65.5T243 197q28 0 59.5 23.5T360 289q-26 45-57.5 68.5T243 381zm360 0q-29 0-60.5-23.5T486 289q25-46 56.5-69t60.5-23q43 0 67.5 26.5T695 289t-24.5 65.5T603 381z"/><glyph glyph-name="integral" unicode="∫" horiz-adv-x="327" d="M239 626V-89q0-87-34-121t-94-34q-65 0-103 12v114q22-6 39-6 40 0 40 48v715q0 87 34.5 121t94.5 34q65 0 103-12V668q-23 6-39 6-41 0-41-48z"/><glyph glyph-name="approxequal" unicode="≈" d="M78 257v119q46 59 114 59 41 0 120-32 7-3 23.5-9.5t25-10 21.5-8 22.5-6.5 17.5-2q55 0 112 55V303q-44-59-113-59-44 0-110 33-68 35-125 35-49 0-108-55zm0-181v119q46 59 114 59 41 0 120-32 7-3 23.5-9.5t25-10 21.5-8 22.5-6.5 17.5-2q55 0 112 55V122q-44-59-113-59-44 0-110 33-68 35-125 35-49 0-108-55z"/><glyph glyph-name="notequal" unicode="≠" d="M520 132H298L254 28H138l44 104H93v122h142l26 59H93v122h221l44 104h116l-44-104h90V313H377l-26-59h169V132z"/><glyph glyph-name="lessequal" unicode="≤" d="M520 382V247L93 391v120l427 144V520l-233-69zm0-382H93v122h427V0z"/><glyph glyph-name="greaterequal" unicode="≥" d="M93 247v135l233 69-233 69v135l427-144V391zM520 0H93v122h427V0z"/><glyph glyph-name="lozenge" unicode="◊" horiz-adv-x="558" d="M193 0L3 396l190 398h172l189-398L366 0H193zm-26 396l112-246 112 246-112 246z"/><glyph glyph-name="commaaccent" unicode="" horiz-adv-x="243" d="M44 46q0 32 22 54.5t53 22.5q38 0 62.5-27.5T206 25q0-84-40.5-120.5T47-133v48q46 0 70 19 20 17 22 43-5-7-20-7-34 0-54.5 22T44 46z"/><glyph glyph-name="asuperior" unicode="" horiz-adv-x="422" d="M203 392q24 0 39.5 17t15.5 41-15.5 41-39.5 17-39.5-17-15.5-41 15.5-41 39.5-17zm55 194h101V315H258v40q-8-19-31.5-33T175 308q-56 0-91.5 39.5T48 450t35.5 102.5T175 592q27 0 51-14t32-32v40z"/><glyph glyph-name="bsuperior" unicode="" horiz-adv-x="423" d="M164 355v-40H63v385h101V546q8 18 31.5 32t50.5 14q57 0 92.5-39.5T374 450t-35.5-102.5T246 308q-27 0-50.5 14T164 355zm55 37q23 0 38.5 17t15.5 41-15 41-39 17-39.5-17-15.5-41 15.5-41 39.5-17z"/><glyph glyph-name="dsuperior" unicode="" horiz-adv-x="422" d="M203 392q24 0 39.5 17t15.5 41-15.5 41-39.5 17-39.5-17-15.5-41 15.5-41 39.5-17zm55-77v40q-8-19-31.5-33T175 308q-56 0-91.5 39.5T48 450t35.5 102.5T175 592q27 0 51-14t32-32v154h101V315H258z"/><glyph glyph-name="esuperior" unicode="" horiz-adv-x="395" d="M344 428H148q0-53 51-53 35 0 46 29h97q-6-43-43.5-69.5T200 308q-72 0-113 39.5T46 450q0 62 40 103t112 41q68 0 108.5-37t40.5-88q0-17-3-41zM198 528q-23 0-36.5-13T148 479h98q0 22-13 35.5T198 528z"/><glyph glyph-name="isuperior" unicode="" horiz-adv-x="243" d="M61 670q0 25 17.5 42.5T121 730q26 0 43.5-17.5T182 670q0-24-17.5-41.5T121 611q-25 0-42.5 17.5T61 670zm10-84h101V315H71v271z"/><glyph glyph-name="lsuperior" unicode="" horiz-adv-x="227" d="M63 315v385h101V315H63z"/><glyph glyph-name="msuperior" unicode="" horiz-adv-x="559" d="M499 315h-96v143q0 50-35 50-39 0-39-58V315h-96v143q0 50-34 50-40 0-40-60V315H63v271h96v-40q10 20 31 33t49 13q61 0 80-48 26 48 86 48 53 0 73.5-30t20.5-83V315z"/><glyph glyph-name="osuperior" unicode="" horiz-adv-x="402" d="M201 308q-72 0-114 41T45 450q0 62 42 103t114 41q71 0 113.5-41.5T357 450q0-60-42.5-101T201 308zm0 84q24 0 39 16.5t15 41.5-15 41.5-39 16.5-39.5-16.5T146 450q0-24 15.5-41t39.5-17z"/><glyph glyph-name="rsuperior" unicode="" horiz-adv-x="305" d="M273 587v-92q-17 5-35 5-74 0-74-86v-99H63v271h101v-44q10 21 32 35t50 14q15 0 27-4z"/><glyph glyph-name="ssuperior" unicode="" horiz-adv-x="362" d="M218 479q25-7 38.5-11.5t29-13.5 22-22.5T314 398q0-90-132-90-135 0-135 98h100q0-35 37-35 30 0 30 21 0 12-11.5 17.5T149 427q-25 6-37.5 10.5t-29 13.5T59 474t-7 34q0 86 132 86 66 0 96-25t30-66H210q0 30-31 30-27 0-27-20 0-16 57-31z"/><glyph glyph-name="tsuperior" unicode="" horiz-adv-x="283" d="M244 388v-73q-35-5-63-5-22 0-37 2.5T112 324t-25.5 29.5T78 406v108H38v72h40v79h101v-79h61v-72h-61v-86q0-25 9-33.5t26-8.5q14 0 30 2z"/><glyph glyph-name="apple" unicode="" horiz-adv-x="800" d="M400 717q162 0 262-109t100-258T662 92 400-17 138 92 38 350t100 258 262 109zm0-22q-76 0-143-29-60-27-106-76-45-50-67-110-24-63-24-130 0-68 24-129 22-62 67-110 46-50 106-76Q324 6 400 6t142 29q60 26 106 76 45 48 67 110 24 61 24 129 0 67-24 130-22 60-67 110-46 49-106 76-66 29-142 29zM201 500q0 18 12.5 30.5T243 543q18 0 30.5-12.5T286 500q0-17-12.5-30T243 457q-17 0-29.5 13T201 500zm297 0q0 18 12.5 30.5T540 543q18 0 30.5-12.5T583 500q0-17-12.5-30T540 457q-17 0-29.5 13T498 500zm-32-241H219l179 268-110-243h178v-25zm-318-52h-16q0 6 2 20 4 14 9 20 2 3 9 8l11 7q5 3 24 10 1 0 1 1 4 1 9 8 4 6 4 10 0 6-2 18l-3 20 17 2q0-6 2-20 2-12 2-20 0-9-7-20-7-9-14-13h-2l-2-1q-17-7-21-10-4-1-10-5-4-4-6-5-3-5-5-13-2-12-2-17zm468-50l-16 4q2 7 2 18-2 9-4 13-1 3-3 5-1 0-3 2-2 0-4 2l-14 5q-25 13-33 19-10 7-18 20l-4 11q0 1-1.5 6t-1.5 8q-4 20-4 31 3 18 3 19l15-5q0-1-.5-4.5t-.5-5.5v-13q2-20 4-27l5-12q5-9 19-20 4-2 8.5-4.5t9.5-5 8-3.5l15-6q3-1 7-5 6-4 7-9 5-9 6-19 0-16-2-24zm-448 71q82-49 116-60 35-11 72-11 148 0 220 37 1 0 3 2-26-57-107-99-57-31-106-31-102 0-198 162zm62-59q26-39 67.5-58T366 92q71 0 161 63-119-23-169-23-90 0-128 37z"/><glyph glyph-name="CR" horiz-adv-x="250"/><glyph glyph-name="commaturn" horiz-adv-x="243" d="M205 635q0-32-22.5-54.5T129 558q-38 0-62 27.5T43 656q0 84 40 121t118 38v-48q-45 0-68-20-18-13-24-42 6 6 20 6 34 0 55-22t21-54z"/><glyph glyph-name="zero.slash" d="M306-15q-120 0-193 72.5T40 235v230q0 105 73 177.5T306 715q119 0 193.5-73T574 465V235q0-104-74.5-177T306-15zM201 285q0-25 6-40l139 324q-18 9-40 9-45 0-73.5-30.5T202 471zm208 162L271 128q15-6 35-6 47 0 76.5 33t29.5 80v171q0 28-3 41z"/><glyph glyph-name="zero.tlfslash" d="M40 235v230q0 105 73 177.5T306 715q119 0 193.5-73T574 465V235q0-104-74.5-177T306-15q-120 0-193 72.5T40 235zm161 74q0-49 6-64l139 324q-18 9-40 9-45 0-73.5-30.5T202 471q-1-2-1-162zm211-74v171q0 28-3 41L271 128q15-6 35-6 47 0 76.5 33t29.5 80z"/><glyph glyph-name="zero.tlf" d="M40 235v230q0 105 73 177.5T306 715q119 0 193.5-73T574 465V235q0-104-74.5-177T306-15q-120 0-193 72.5T40 235zm372 0v230q0 47-29.5 80T306 578t-76-33-29-80V235q0-47 29-80t76-33 76.5 33 29.5 80z"/><glyph glyph-name="one.tlf" d="M92 463v114h47q145 0 160 123h142V0H277v463H92z"/><glyph glyph-name="two.tlf" d="M67 0q0 82 12.5 141.5T120 242t56.5 66 75.5 54q87 52 108 72 39 35 39 80 0 40-22 59.5T319 593q-40 0-64.5-25T230 491H69q0 98 66.5 161T318 715q104 0 172-53.5T558 503q0-42-17.5-79t-50-66.5T434 311t-59-38q-76-51-99-76.5T253 131h300V0H67z"/><glyph glyph-name="three.tlf" d="M41 235h161q0-56 29-88t77-32q43 0 67.5 27t24.5 65q0 97-103 97h-63v125h63q52 0 73 22.5t21 63.5q0 38-21.5 58T311 593q-49 0-69-26.5T222 491H60q0 97 61.5 160.5T306 715q104 0 174.5-51T551 519q0-57-30-98.5T447 364q51-18 83-62t32-107q0-96-73.5-153T310-15q-127 0-198 68.5T41 235z"/><glyph glyph-name="four.tlf" d="M334 0v193H55v507h161V330h118v193h162V330h84V193h-84V0H334z"/><glyph glyph-name="five.tlf" d="M55 295v405h473V574H204V418q19 31 59.5 47.5T346 482q110 0 169.5-71.5T575 240q0-108-73.5-181.5T306-15q-121 0-194 73.5T39 238h157q0-50 30.5-84.5T306 119q50 0 81 35t31 86q0 49-30.5 84T307 359q-69 0-101-64H55z"/><glyph glyph-name="six.tlf" d="M305-14q-121 0-194 73.5T38 240q0 78 43 145l202 315h182L325 490q3 1 10 1 108-7 173-79t65-172q0-107-73-180.5T305-14zm0 135q50 0 81 34.5t31 84.5q0 51-31 85t-81 34q-49 0-79.5-34T195 240q0-50 30.5-84.5T305 121z"/><glyph glyph-name="seven.tlf" d="M75 700h503L280 0H107l243 564H75v136z"/><glyph glyph-name="eight.tlf" d="M300-15q-121 0-192 61.5T37 200q0 57 31.5 104t81.5 61q-44 17-70 58.5T54 514q0 86 66.5 143.5T300 715t179.5-58T546 514q0-49-26-90.5T450 365q50-16 81.5-63T563 199q0-90-71-152T300-15zm0 434q42 0 67 25.5t25 61.5-25 61.5-67 25.5-67-25-25-62q0-36 25-61.5t67-25.5zm0-312q48 0 77 28.5t29 67.5q0 40-28.5 68.5T300 300q-50 0-78.5-28T193 203q0-40 29-68t78-28z"/><glyph glyph-name="nine.tlf" d="M306 714q121 0 194-73.5T573 460q0-78-43-145L328 0H146l140 209h-10q-108 7-173 79T38 460q0 107 73 180.5T306 714zm0-135q-49 0-80-34.5T195 460q0-51 31-85t80-34 80 34 31 85q0 50-31 84.5T306 579z"/><glyph glyph-name="csuperior" horiz-adv-x="392" d="M345 475H245q-7 35-46 35-26 0-39.5-17T146 450q0-25 14-41.5t41-16.5q33 0 44 30h101q-6-51-44.5-82.5T198 308q-72 0-112.5 41T45 450q0 61 40.5 102.5T198 594q67 0 104.5-34t42.5-85z"/><glyph glyph-name="fsuperior" horiz-adv-x="278" d="M241 700v-68q-12 4-26 4-32 0-32-29v-21h58v-72h-58V315H82v199H38v72h44v17q0 64 29 84.5t77 20.5q29 0 53-8z"/><glyph glyph-name="gsuperior" horiz-adv-x="421" d="M204 508q-24 0-39.5-17T149 450t15.5-41 39.5-17q23 0 38.5 17t15.5 41-15 41-39 17zm156 78V326q0-72-36.5-102T202 194Q52 194 50 300h101q2-16 15-27t36-11q56 0 56 56v39q-23-42-81-42t-93.5 36.5T48 450q0 64 34.5 103t91.5 39q63 0 84-46v40h102z"/><glyph glyph-name="ksuperior" horiz-adv-x="386" d="M355 586L255 450l100-135H236l-72 110V315H63v385h101V475l73 111h118z"/><glyph glyph-name="psuperior" horiz-adv-x="423" d="M219 508q-24 0-39.5-17T164 450t15.5-41 39.5-17q23 0 38.5 17t15.5 41-15 41-39 17zm-55 78v-40q8 18 31.5 32t50.5 14q57 0 92.5-39.5T374 450q0-62-35.5-102T246 308q-27 0-50.5 14.5T164 355V201H63v385h101z"/><glyph glyph-name="qsuperior" horiz-adv-x="423" d="M258 546v40h102V201H258v154q-8-18-31.5-32.5T176 308q-56 0-92 40T48 450q0 63 36 102.5t92 39.5q27 0 50.5-14t31.5-32zm-54-38q-24 0-39.5-17T149 450t15.5-41 39.5-17q23 0 38.5 17t15.5 41-15 41-39 17z"/><glyph glyph-name="usuperior" horiz-adv-x="409" d="M346 586V315H245v40q-23-47-89-47-48 0-73 28-23 25-23 90v160h100V448q0-55 41-55 44 0 44 60v133h101z"/><glyph glyph-name="vsuperior" horiz-adv-x="385" d="M28 586h105l59-164 61 164h104L235 315h-86z"/><glyph glyph-name="zsuperior" horiz-adv-x="341" d="M48 586h255L190 399h107v-84H38l114 187H48v84z"/><glyph glyph-name="plusinferior" horiz-adv-x="410" d="M245-166h-80v84H83v77h82v84h80V-5h82v-77h-82v-84z"/><glyph glyph-name="minusinferior" horiz-adv-x="410" d="M327-82H83v77h244v-77z"/><glyph glyph-name="equalinferior" horiz-adv-x="410" d="M327-28H83v77h244v-77zm0-109H83v77h244v-77z"/><glyph glyph-name="colon.case" horiz-adv-x="303" d="M50 478q0 42 29 71.5t72 29.5 72-29.5 29-71.5-29-71-72-29-72 29-29 71zm0-320q0 41 29.5 70.5T151 258q43 0 72.5-29.5T253 158t-29.5-70.5T151 58q-42 0-71.5 29.5T50 158z"/><glyph glyph-name="at.case" horiz-adv-x="871" d="M470-127q-107 0-194 34.5T134 .5t-84.5 133T20 291q0 126 60 222.5t158 146T453 709q184 0 299.5-98T868 346q0-294-198-294-56 0-94 28.5T522 155q-15-27-49-46.5T402 89q-85 0-140 58t-55 144 56 144.5T402 494q37 0 71-19.5t49-46.5v56h116V249q0-51 12.5-73t39.5-22q63 0 63 195 0 118-83 187t-217 69q-136 0-227-85t-91-229q0-130 87.5-222.5T470-24q114 0 201 47l43-89q-108-61-244-61zm-46 315q43 0 71 30t28 73q0 44-28 74t-71 30q-42 0-68.5-30T329 291q0-43 26.5-73t68.5-30z"/><glyph glyph-name="bar.case" horiz-adv-x="287" d="M208-148H81v998h127v-998z"/><glyph glyph-name="brokenbar.case" horiz-adv-x="287" d="M208 416H80v434h128V416zM80 292h128v-440H80v440z"/><glyph glyph-name="plus.case" d="M372 138H241v152H93v122h148v153h131V412h148V290H372V138z"/><glyph glyph-name="minus.case" d="M520 290H93v122h427V290z"/><glyph glyph-name="multiply.case" d="M303 374l108 108 92-92-108-108 106-105-87-86-105 104L201 88l-92 92 108 107-105 105 86 87z"/><glyph glyph-name="divide.case" d="M212 504q0 38 27.5 65.5T306 597q40 0 67.5-27.5T401 504q0-39-27.5-66.5T306 410q-39 0-66.5 27.5T212 504zm308-247H93v122h427V257zM212 138q0 38 27.5 65.5T306 231q40 0 67.5-27.5T401 138q0-39-27.5-66.5T306 44q-39 0-66.5 27.5T212 138z"/><glyph glyph-name="equal.case" d="M520 380H93v122h427V380zm0-182H93v123h427V198z"/><glyph glyph-name="notequal.case" d="M520 198H298L254 95H138l44 103H93v123h142l26 59H93v122h221l44 104h116l-44-104h90V380H377l-26-59h169V198z"/><glyph glyph-name="approxequal.case" d="M78 323v120q46 59 114 59 41 0 120-32 7-3 23.5-9.5t25-10 21.5-8 22.5-6.5 17.5-2q55 0 112 55V369q-44-58-113-58-46 0-110 32-68 35-125 35-49 0-108-55zm0-181v120q46 59 114 59 41 0 120-32 7-3 23.5-9.5t25-10 21.5-8 22.5-6.5 17.5-2q55 0 112 55V188q-44-59-113-59-44 0-110 33-68 35-125 35-49 0-108-55z"/><glyph glyph-name="logicalnot.case" d="M390 200v180H93v122h427V200H390z"/><glyph glyph-name="parenleft.case" horiz-adv-x="399" d="M362 841V704q-58 0-93.5-40T233 565V112q0-59 35.5-99T362-27v-137q-128 0-207 80T76 112v453q0 116 79 196t207 80z"/><glyph glyph-name="parenright.case" horiz-adv-x="399" d="M36 704v137q129 0 208-80t79-196V112q0-116-79-196T36-164v137q59 0 94.5 40t35.5 99v453q0 59-35.5 99T36 704z"/><glyph glyph-name="hyphen.case" horiz-adv-x="317" d="M285 425V303H32v122h253z"/><glyph glyph-name="bracketleft.case" horiz-adv-x="385" d="M325-157H67v999h258V709H220V-24h105v-133z"/><glyph glyph-name="bracketright.case" horiz-adv-x="385" d="M318-157H60v133h105v732H60v133h258v-998z"/><glyph glyph-name="braceleft.case" horiz-adv-x="477" d="M309 841h101V718h-42q-36 0-52-23.5T300 637V449q0-56-32.5-83.5T201 335q14-2 28.5-7.5t32-18 28-37T300 214V48q0-34 16-57.5T368-33h42v-124H309q-71 0-116.5 42T147 3v179q0 43-27 64t-60 21v134q33 0 60 20.5t27 60.5v200q0 75 45.5 117T309 841z"/><glyph glyph-name="braceright.case" horiz-adv-x="477" d="M67 841h101q71 0 116.5-42T330 682V482q0-40 27-60.5t60-20.5V267q-34 0-60.5-21T330 182V3q0-76-45.5-118T168-157H67v124h41q68 0 68 81v166q0 34 10.5 58.5t28 37 32 18T275 335q-34 3-66.5 30.5T176 449v188q0 81-68 81H67v123z"/><glyph glyph-name="guillemotleft.case" horiz-adv-x="512" d="M250 278V144L37 318v79l213 174V438l-103-80zm220 0V144L257 318v79l213 174V438l-103-80z"/><glyph glyph-name="guillemotright.case" horiz-adv-x="512" d="M262 144v134l102 80-102 80v133l213-174v-79zm-220 0v134l102 80-102 80v133l213-174v-79z"/><glyph glyph-name="endash.case" horiz-adv-x="503" d="M463 303H40v122h423V303z"/><glyph glyph-name="emdash.case" horiz-adv-x="1006" d="M961 303H45v122h916V303z"/><glyph glyph-name="guilsinglleft.case" horiz-adv-x="292" d="M250 278V144L37 318v79l213 174V438l-103-80z"/><glyph glyph-name="guilsinglright.case" horiz-adv-x="292" d="M42 144v134l102 80-102 80v133l213-174v-79z"/><glyph glyph-name="less.case" d="M566 113L41 290v120l525 178V449l-324-98 324-100V113z"/><glyph glyph-name="greater.case" d="M572 290L48 113v138l323 100-323 98v139l524-178V290z"/><glyph glyph-name="Iacute.smcp" horiz-adv-x="308" d="M289 678L56 580l-37 95 233 97zM78 0v560h152V0H78z"/><glyph glyph-name="parenleft.smcp" horiz-adv-x="376" d="M322 611V485q-47 0-75-31.5T219 375V57q0-46 28-77.5T322-52v-126q-112 0-180 68T74 57v318q0 99 68 167.5T322 611z"/><glyph glyph-name="Ibreve.smcp" horiz-adv-x="308" d="M-34 737H74q22-49 80-49 57 0 80 49h108q-11-67-63.5-106T154 592q-71 0-123 39t-65 106zM78 0v560h152V0H78z"/><glyph glyph-name="seven.003" horiz-adv-x="800" d="M400-18Q232-18 130.5 90.5T29 350t101.5 259.5T400 718t269.5-108.5T771 350 669.5 90.5 400-18zm0 86q123 0 198 83t75 199-75 199-198 83-198-83-75-199 75-199 198-83zM272 536h299L407 151H293l127 298H272v87z"/><glyph glyph-name="seven.004" horiz-adv-x="800" d="M400-18Q232-18 130.5 90.5T29 350t101.5 259.5T400 718t269.5-108.5T771 350 669.5 90.5 400-18zM272 536v-87h148L293 151h114l164 385H272z"/><glyph glyph-name="uni0438.002" horiz-adv-x="607" d="M389 482h153V0H389v69q-43-81-158-81-93 0-135 55-37 46-37 153v286h152V235q0-117 85-117 46 0 69.5 32.5T389 240v242z"/><glyph glyph-name="Dcroat.smcp" horiz-adv-x="639" d="M78 560h219q134 0 213-82.5T589 280 510 82.5 297 0H78v229H5v101h73v230zm227-230V229h-76V129h58q67 0 107.5 44.5T435 280t-40.5 106.5T287 431h-58V330h76z"/><glyph glyph-name="Scaron.smcp" horiz-adv-x="556" d="M281 599L125 730l65 75 91-79 92 79 66-75zM55 188h152q0-41 21-64t57-23q28 0 45.5 15t17.5 40q0 26-19.5 40T262 228q-35 13-51 19.5t-44 20-41 25.5-29 30-22 40.5-6 50.5q0 78 62 119.5T281 575q106 0 158-52.5T491 394H340q0 74-62 74-25 0-41.5-12.5T220 419q0-41 78-68 40-14 58.5-21.5t51.5-25 49-34 29-43.5 13-60q0-86-59.5-134T278-15q-101 0-162 53.5T55 188z"/><glyph glyph-name="Nacute.smcp" horiz-adv-x="652" d="M461 686l-233-98-37 94 233 98zM233 560l191-346v346h151V0H420L229 337V0H78v560h155z"/><glyph glyph-name="Udieresis.001.smcp" horiz-adv-x="586" d="M451 696l-69-104h-84l70 104h83zm-116 0l-70-104h-83l70 104h83zM66 193v367h151V195q0-34 21.5-57.5T293 114t55 23.5 22 57.5v365h150V193q0-91-61.5-149.5T293-15 127.5 43.5 66 193z"/><glyph glyph-name="Q.smcp" horiz-adv-x="701" d="M651 280q0-81-39.5-150T502 25l48-63q-86-46-133-68l-67 91q-137 1-218.5 87.5T50 280t82 208 218 87q137 0 219-87t82-208zM350 123q66 0 106.5 46.5T497 280t-40.5 110.5T350 437t-106.5-46.5T203 280t40.5-110.5T350 123z"/><glyph glyph-name="Eth.smcp" horiz-adv-x="639" d="M78 560h219q132 0 212-83t80-197q0-115-79-197.5T297 0H78v225H-6v110h84v225zm230-225V225h-79v-96h58q67 0 107 44.5T434 280t-40 106.5T287 431h-58v-96h79z"/><glyph glyph-name="Tbar.smcp" horiz-adv-x="473" d="M386 363V263h-74V0H161v263H87v100h74v67H41v130h391V430H312v-67h74z"/><glyph glyph-name="Y.smcp" horiz-adv-x="584" d="M566 560L288 0H119l100 203L27 560h177l102-208 92 208h168z"/><glyph glyph-name="Ncaron.smcp" horiz-adv-x="652" d="M326 582L170 714l65 76 91-79 92 79 65-76zm-93-22l191-346v346h151V0H420L229 337V0H78v560h155z"/><glyph glyph-name="six.004" horiz-adv-x="800" d="M400-18Q232-18 130.5 90.5T29 350q0 72 25.5 138t72 117.5 117.5 82T400 718q167 0 268.5-109T770 350q0-151-101.5-259.5T400-18zm-1 169q71 0 113 40.5T554 293q0 46-26 81.5T457 423q-19 7-34 10l74 111H377L266 374q-23-33-23-81 0-61 42-101.5T399 151zm0 86q-24 0-38.5 16T346 293q0 25 14.5 41t38.5 16 38.5-16.5T452 293t-14.5-40-38.5-16z"/><glyph glyph-name="Rcaron.smcp" horiz-adv-x="597" d="M290 586L134 717l65 76 91-79 92 79 65-76zm17-145h-78V267h77q36 0 58 25.5t22 61.5-22 61.5-57 25.5zM78 0v560h255q92 0 149.5-60T540 354q0-59-28-107t-78-74L546 0H369l-90 148h-50V0H78z"/><glyph glyph-name="three.denominator" horiz-adv-x="404" d="M47 130h107q0-58 47-58 20 0 31 13t11 32q0 45-48 45h-41v79h41q45 0 45 40 0 39-37 39-40 0-40-51H56q0 54 34 89.5T203 394q62 0 102.5-27t40.5-82q0-31-18-55t-42-31q27-9 45.5-34t18.5-59q0-55-42.5-85T205-9Q124-9 85.5 29T47 130z"/><glyph glyph-name="Obreve.smcp" horiz-adv-x="701" d="M163 736h107q24-49 80-49 57 0 80 49h108q-11-67-63.5-106T350 591q-71 0-123 39t-64 106zM350-15q-136 0-218 87T50 280t82 208 218 87q137 0 219-87t82-208-82-208-219-87zm0 138q66 0 106.5 46.5T497 280t-40.5 110.5T350 437t-106.5-46.5T203 280t40.5-110.5T350 123z"/><glyph glyph-name="Lacute.smcp" horiz-adv-x="427" d="M288 686L55 588l-37 94 233 98zm-60-556h152V0H78v560h150V130z"/><glyph glyph-name="C.smcp" horiz-adv-x="690" d="M482 212h160q-16-98-92.5-162.5T354-15q-138 0-221 86T50 281q0 120 82 207t216 87q128 0 204-67.5T641 335H483q-9 46-42.5 74.5T354 438q-70 0-110-46t-40-111q0-69 41.5-114T358 122q46 0 80 25.5t44 64.5z"/><glyph glyph-name="ampersand.smcp" horiz-adv-x="576" d="M306 185v111h225V185h-34q-2-90-58-144T271-13q-86 0-150 45T57 157q0 48 26 82t67 51q-37 13-62 46t-25 79q0 78 59 118t146 40q111 0 161.5-52T480 393H328q0 74-61 74-25 0-40-14.5T212 410q0-62 71-62V237q-75 0-75-69 0-26 19-45.5t51-19.5q30 0 50.5 22t21.5 60h-44z"/><glyph glyph-name="J.smcp" horiz-adv-x="542" d="M471 560V199q0-107-56.5-160T254-14Q148-14 92.5 45T37 199h151q0-38 17-61.5t49-23.5 49.5 22 17.5 63v361h150z"/><glyph glyph-name="nine.denominator" horiz-adv-x="402" d="M223 0H104l74 110q-61 7-96.5 45.5T46 250q0 61 42 102t114 41q71 0 113.5-41T358 250q0-46-24-80zm-21 307q-24 0-38.5-16.5T149 250t14.5-40 38.5-16 38.5 16 14.5 40-14.5 40.5T202 307z"/><glyph glyph-name="Idotaccent.smcp" horiz-adv-x="308" d="M72 687q0 34 23.5 58t57.5 24q35 0 59-24t24-58q0-33-24-57t-59-24q-34 0-57.5 24T72 687zM78 0v560h152V0H78z"/><glyph glyph-name="Hcircumflex.smcp" horiz-adv-x="629" d="M150 662l165 131 164-131-69-76-95 77-95-76zM400 0v214H229V0H78v560h151V342h171v218h152V0H400z"/><glyph glyph-name="three.numerator" horiz-adv-x="404" d="M47 445h107q0-58 47-58 20 0 31 13t11 32q0 45-48 45h-41v79h41q45 0 45 40 0 39-37 39-40 0-40-51H56q0 54 34 89.5T203 709q62 0 102.5-27t40.5-82q0-31-18-55t-42-31q27-9 45.5-34t18.5-59q0-55-42.5-85T205 306q-81 0-119.5 38T47 445z"/><glyph glyph-name="uni0437.002" horiz-adv-x="508" d="M7-25h152q1-46 26.5-71t62.5-25q34 0 55.5 27.5T325-12q0 119-101 119h-39v103h40q42 0 65 25.5t23 72.5q0 82-59 82-64 0-64-72H40q0 74 55 122.5T260 489q91 0 146.5-45.5T462 313q0-69-31.5-106.5T349 162q54-5 91-53T477-8q0-107-66-164.5T245-230q-118 0-177.5 54T7-25z"/><glyph glyph-name="Racute.smcp" horiz-adv-x="597" d="M434 686l-234-98-37 94 234 98zM307 441h-78V267h77q36 0 58 25.5t22 61.5-22 61.5-57 25.5zM78 0v560h255q92 0 149.5-60T540 354q0-59-28-107t-78-74L546 0H369l-90 148h-50V0H78z"/><glyph glyph-name="Scommaaccent.smcp" horiz-adv-x="556" d="M55 188h152q0-41 21-64t57-23q28 0 45.5 15t17.5 40q0 26-19.5 40T262 228q-35 13-51 19.5t-44 20-41 25.5-29 30-22 40.5-6 50.5q0 78 61.5 119.5T280 575q106 0 158.5-52.5T491 394H340q0 74-62 74-25 0-41.5-12.5T220 419q0-41 78-68 40-14 58.5-21.5t51.5-25 49-34 29-43.5 13-60q0-86-59.5-134T278-15q-101 0-162 53.5T55 188zM211-89q0 28 19 47.5T276-22q34 0 55-24t21-62q0-73-35-105t-103-33v42q72 0 80 54-5-5-18-5-29 0-47 19t-18 47z"/><glyph glyph-name="Icircumflex.smcp" horiz-adv-x="308" d="M-10 661l164 132 164-132-68-75-96 76-95-76zM78 0v560h152V0H78z"/><glyph glyph-name="four.numerator" horiz-adv-x="416" d="M222 315v100H59v285h107V503h56v100h106V503h43v-88h-43V315H222z"/><glyph glyph-name="A.smcp" horiz-adv-x="623" d="M310 395l-64-216h126zm75 165L593 0H426l-20 66H213L193 0H30l204 560h151z"/><glyph glyph-name="E.smcp" horiz-adv-x="503" d="M431 444H229V334h202V222H229V116h202V0H78v560h353V444z"/><glyph glyph-name="V.smcp" horiz-adv-x="604" d="M584 560L376 0H224L21 560h163l116-388 116 388h168z"/><glyph glyph-name="AEacute.smcp" horiz-adv-x="805" d="M602 686l-233-98-37 94 233 98zM268 179h110v248zm463 265H530V334h201V222H530V116h201V0H378v66H220L192 0H27l266 560h438V444z"/><glyph glyph-name="Adieresis.001.smcp" horiz-adv-x="623" d="M473 696l-69-104h-84l70 104h83zm-116 0l-69-104h-84l70 104h83zm-47-301l-64-216h126zm75 165L593 0H426l-20 66H213L193 0H30l204 560h151z"/><glyph glyph-name="Udieresis.smcp" horiz-adv-x="586" d="M109 680q0 34 24 57.5t58 23.5q35 0 59-23.5t24-57.5q0-33-24-57t-59-24q-34 0-58 24t-24 57zm198 0q0 34 24 57.5t58 23.5q35 0 59-23.5t24-57.5q0-33-24-57t-59-24q-34 0-58 24t-24 57zM66 193v367h151V195q0-34 21.5-57.5T293 114t55 23.5 22 57.5v365h150V193q0-91-61.5-149.5T293-15 127.5 43.5 66 193z"/><glyph glyph-name="Lcommaaccent.smcp" horiz-adv-x="427" d="M78 0v560h151V130h151V0H78zm65-80q0 28 19 47.5T209-13q33 0 54-24t21-61q0-74-35-106t-103-32v42q74 0 80 54 0-1-2.5-2t-7-2.5-7.5-1.5q-29 0-47.5 19T143-80z"/><glyph glyph-name="eight.004" horiz-adv-x="800" d="M400-18Q232-18 130.5 90.5T29 350q0 72 25.5 138t72 117.5 117.5 82T400 718q167 0 268.5-109T770 350q0-151-101.5-259.5T400-18zm0 167q71 0 112.5 34t41.5 84q0 32-19.5 57T488 358q24 8 40 31t16 52q0 48-38.5 79.5T400 552t-105.5-31.5T256 441q0-29 16-52t40-31q-27-7-46.5-33T246 267q0-51 41.5-84.5T400 149zm0 245q-20 0-32 12.5T356 436t12 29.5 32 12.5 32-12.5 12-29.5-12-29.5-32-12.5zm0-171q-23 0-37 13.5T349 270t13.5 33.5T400 317t37.5-13.5T451 270q0-19-14-33t-37-14z"/><glyph glyph-name="eight.003" horiz-adv-x="800" d="M400-18Q232-18 130.5 90.5T29 350q0 72 25.5 138t72 117.5 117.5 82T400 718q167 0 268.5-109T770 350q0-151-101.5-259.5T400-18zm0 86q123 0 197.5 83T672 350t-74.5 199T400 632t-198-83-75-199 75-199 198-83zm0 81q-71 0-112.5 33.5T246 267q0 32 19.5 58t46.5 33q-24 8-40 31t-16 52q0 48 38.5 79.5T400 552t105.5-31.5T544 441q0-29-16-52t-40-31q27-9 46.5-34t19.5-57q0-50-41.5-84T400 149zm0 245q20 0 32 12.5t12 29.5-12 29.5-32 12.5-32-12.5-12-29.5 12-29.5 32-12.5zm0-171q23 0 37 14t14 33q0 20-13.5 33.5T400 317t-37.5-13.5T349 270t14-33.5 37-13.5z"/><glyph glyph-name="six.numerator" horiz-adv-x="402" d="M200 307q-72 0-113.5 41T45 450q0 46 22 80l112 170h120l-74-110q15-4 33-11 46-13 72-48t26-81q0-61-42-102t-114-41zm0 86q24 0 38.5 16t14.5 41q0 24-14.5 40T200 506t-38.5-16-14.5-40 14.5-40.5T200 393z"/><glyph glyph-name="Cacute.smcp" horiz-adv-x="690" d="M480 686l-234-99-37 94 234 99zm2-474h160q-16-98-92.5-162.5T354-15q-138 0-221 86T50 281q0 120 82 207t216 87q128 0 204-67.5T641 335H483q-9 46-42.5 74.5T354 438q-70 0-110-46t-40-111q0-69 41.5-114T358 122q46 0 80 25.5t44 64.5z"/><glyph glyph-name="minus.numerator" horiz-adv-x="410" d="M327 433H83v77h244v-77z"/><glyph glyph-name="nine.plf.smcp" horiz-adv-x="557" d="M305 0H143l109 163q-89 8-141.5 64.5T58 366q0 87 60 146t162 59q101 0 161-59t60-146q0-64-34-117zm-25 453q-37 0-59.5-25T198 366q0-38 22.5-63t59.5-25q36 0 59 25.5t23 62.5-23 62-59 25z"/><glyph glyph-name="one.003" horiz-adv-x="800" d="M400-18Q232-18 130.5 90.5T29 350q0 72 25.5 138t72 117.5 117.5 82T400 718q167 0 268.5-109T770 350q0-151-101.5-259.5T400-18zm0 86q123 0 197.5 83T672 350t-74.5 199T400 632t-198-83-75-199 75-199 198-83zM274 400v72q56 0 76 16.5t20 53.5h92V157H353v243h-79z"/><glyph glyph-name="one.004" horiz-adv-x="800" d="M400-18Q232-18 130.5 90.5T29 350q0 72 25.5 138t72 117.5 117.5 82T400 718q167 0 268.5-109T770 350q0-151-101.5-259.5T400-18zM274 400h79V157h109v385h-92q0-37-20-53.5T274 472v-72z"/><glyph glyph-name="Uacute.smcp" horiz-adv-x="586" d="M419 686l-234-98-37 94 234 98zM66 193v367h151V195q0-34 21.5-57.5T293 114t55 23.5 22 57.5v365h150V193q0-91-61.5-149.5T293-15 127.5 43.5 66 193z"/><glyph glyph-name="Imacron.smcp" horiz-adv-x="308" d="M304 731V631H4v100h300zM77 0v560h153V0H77z"/><glyph glyph-name="equal.denominator" horiz-adv-x="410" d="M327 172H83v77h244v-77zm0-109H83v77h244V63z"/><glyph glyph-name="F.smcp" horiz-adv-x="499" d="M431 435H229V300h202V179H229V0H78v560h353V435z"/><glyph glyph-name="one.numerator" horiz-adv-x="298" d="M46 558v72q55 0 75 16.5t20 53.5h92V315H125v243H46z"/><glyph glyph-name="parenleft.denominator" horiz-adv-x="283" d="M234 418v-88q-33 0-52-21.5T163 255V42q0-31 19-52.5T234-32v-89q-79 0-126.5 47T60 42v213q0 69 47.5 116T234 418z"/><glyph glyph-name="exclamdown.smcp" horiz-adv-x="336" d="M78 476q0 37 26.5 63.5T169 566t64.5-26.5T260 476q0-36-26.5-62.5T169 387t-64.5 26.5T78 476zM93-6v356h153V-6H93z"/><glyph glyph-name="brokenbar.smcp" horiz-adv-x="503" d="M221 318H78v293h143V318zM78 204h143V-97H78v301z"/><glyph glyph-name="D.smcp" horiz-adv-x="639" d="M78 560h219q133 0 212.5-82.5T589 280 510 82.5 297 0H78v560zm209-129h-58V129h58q67 0 107 44.5T434 280t-40 106.5T287 431z"/><glyph glyph-name="Gdotaccent.smcp" horiz-adv-x="720" d="M265 689q0 34 23.5 58t57.5 24q35 0 59-24t24-58q0-33-24-56.5T346 609q-34 0-57.5 23.5T265 689zm112-489v104h305V200h-55q-16-99-89-157T346-15q-137 0-216.5 85T50 280q0 121 81 208t215 87q114 0 188-59t82-145H451q-5 30-33 52t-71 22q-67 0-105-49t-38-118q0-73 39-120.5T356 110q49 0 79.5 25.5T473 200h-96z"/><glyph glyph-name="three.plf.smcp" horiz-adv-x="559" d="M59 189h144q0-42 20-66t55-24q31 0 49 20.5t18 49.5q0 70-76 70h-55v108h55q39 0 54.5 16t15.5 48q0 58-58 58-35 0-49.5-19.5T217 393H73q0 77 49.5 128.5T279 573q87 0 145-40t58-118q0-45-25-79t-60-46q40-14 66-49.5t26-86.5q0-77-60.5-122T282-13q-111 0-167 55T59 189z"/><glyph glyph-name="Itilde.smcp" horiz-adv-x="308" d="M33 615l-42 83q53 30 92 30 13 0 63-11t61-11q21 0 71 22l39-81q-48-36-97-36-13 0-63.5 10T95 631q-20 0-62-16zM78 0v560h152V0H78z"/><glyph glyph-name="Aringacute.smcp" horiz-adv-x="623" d="M406 738l-181-81-24 59 182 81zm-97-108q-10 0-16.5-7t-6.5-17q0-8 7-15t16-7q10 0 16.5 7t6.5 16q0 10-6.5 16.5T309 630zm63-451l-62 216-64-216h126zM593 0H426l-20 66H213L193 0H30l204 559h17q-15 25-15 48 0 31 21.5 52t51.5 21q31 0 52-21.5t21-51.5q0-25-13-47h16z"/><glyph glyph-name="OE.smcp" horiz-adv-x="922" d="M350 122q66 0 106.5 46.5T497 279q0 65-40.5 111.5T350 437t-106.5-46.5T203 279q0-64 40.5-110.5T350 122zm500 322H649V334h201V222H649V116h201V0H498v43q-54-58-148-58-136 0-218 86.5T50 279t82 208 218 87q46 0 87-15.5t61-36.5v38h352V444z"/><glyph glyph-name="Gcircumflex.smcp" horiz-adv-x="720" d="M182 663l164 131 165-131-69-76-96 77-95-76zm195-463v104h305V200h-55q-16-99-89-157T346-15q-137 0-216.5 85T50 280q0 121 81 208t215 87q114 0 188-59t82-145H451q-5 30-33 52t-71 22q-67 0-105-49t-38-118q0-73 39-120.5T356 110q49 0 79.5 25.5T473 200h-96z"/><glyph glyph-name="equal.numerator" horiz-adv-x="410" d="M327 487H83v77h244v-77zm0-109H83v77h244v-77z"/><glyph glyph-name="Egrave.smcp" horiz-adv-x="503" d="M359 581l-233 98 36 94 234-98zm72-137H229V334h202V222H229V116h202V0H78v560h353V444z"/><glyph glyph-name="three.003" horiz-adv-x="800" d="M400-18Q232-18 130.5 90.5T29 350q0 72 25.5 138t72 117.5 117.5 82T400 718q167 0 268.5-109T770 350q0-151-101.5-259.5T400-18zm0 86q123 0 197.5 83T672 350t-74.5 199T400 632t-198-83-75-199 75-199 198-83zM245 288h107q0-58 47-58 20 0 30.5 13t10.5 32q0 45-47 45h-41v79h40q26 0 36 10t10 30q0 39-37 39-40 0-40-51H254q0 54 34 89.5T400 552q62 0 102.5-27t40.5-82q0-31-18-55t-42-31q28-9 46-33.5t18-59.5q0-55-42-85t-102-30q-81 0-119.5 38T245 288z"/><glyph glyph-name="three.004" horiz-adv-x="800" d="M400-18Q232-18 130.5 90.5T29 350q0 72 25.5 138t72 117.5 117.5 82T400 718q167 0 268.5-109T770 350q0-151-101.5-259.5T400-18zM245 288q0-63 38.5-101T403 149q60 0 102 30t42 85q0 35-18 59.5T483 357q24 7 42 31t18 55q0 55-40.5 82T400 552q-78 0-112-35.5T254 427h107q0 51 40 51 37 0 37-39 0-20-10-30t-36-10h-40v-79h41q47 0 47-45 0-19-10.5-32T399 230q-47 0-47 58H245z"/><glyph glyph-name="Edotaccent.smcp" horiz-adv-x="503" d="M169 686q0 34 23.5 58t57.5 24q36 0 59.5-24t23.5-58q0-33-24-57t-59-24q-33 0-57 24t-24 57zm262-242H229V334h202V222H229V116h202V0H78v560h353V444z"/><glyph glyph-name="R.smcp" horiz-adv-x="597" d="M306 267q36 0 58 25.5t22 61.5-22 61.5-57 25.5h-78V267h77zM78 0v560h255q92 0 149.5-60T540 354q0-59-28-107t-78-74L546 0H369l-90 139h-50V0H78z"/><glyph glyph-name="P.smcp" horiz-adv-x="579" d="M78 0v560h254q93 0 150.5-60T540 354t-57.5-146T332 148H229V0H78zm228 267q36 0 58 25.5t22 61.5-22 61.5-57 25.5h-78V267h77z"/><glyph glyph-name="six.003" horiz-adv-x="800" d="M400-18Q232-18 130.5 90.5T29 350q0 72 25.5 138t72 117.5 117.5 82T400 718q167 0 268.5-109T770 350q0-151-101.5-259.5T400-18zm0 86q123 0 197.5 83T672 350t-74.5 199T400 632t-198-83-75-199 75-199 198-83zm-1 83q-72 0-114 40.5T243 293q0 48 23 81l111 170h120l-74-111q15-3 34-10 45-13 71-48.5t26-81.5q0-61-42-101.5T399 151zm0 86q24 0 38.5 16t14.5 40-14.5 40.5T399 350t-38.5-16-14.5-41q0-24 14.5-40t38.5-16z"/><glyph glyph-name="Uring.smcp" horiz-adv-x="586" d="M293 803q47 0 80-33.5t33-79.5-33-79-80-33-80 33-33 79q0 47 33 80t80 33zm0-75q-15 0-25.5-11.5T257 690q0-13 11-23.5t25-10.5 25 10.5 11 24.5q0 15-10.5 26T293 728zM66 193v367h151V195q0-34 21.5-57.5T293 114t55 23.5 22 57.5v365h150V193q0-91-61.5-149.5T293-15 127.5 43.5 66 193z"/><glyph glyph-name="M.smcp" horiz-adv-x="786" d="M708 560V0H561v347L452 0H340L224 347V0H78v560h186l131-374 131 374h182z"/><glyph glyph-name="Atilde.smcp" horiz-adv-x="623" d="M192 615l-41 83q52 30 91 30 13 0 63.5-11t61.5-11q20 0 70 22l39-81q-47-36-97-36-14 0-63.5 10T255 631q-21 0-63-16zm118-220l-64-216h126zm75 165L593 0H426l-20 66H213L193 0H30l204 560h151z"/><glyph glyph-name="Wcircumflex.smcp" horiz-adv-x="905" d="M288 658l164 132 165-132-69-75-96 77-95-76zM554 0L453 324 352 0H223L23 560h160l106-348 104 348h119l105-348 105 348h160L682 0H554z"/><glyph glyph-name="questiondown.smcp" horiz-adv-x="501" d="M349 484q0-38-26-64.5T258 393t-66 26.5-27 64.5q0 37 27 64t66 27q38 0 64.5-27t26.5-64zm-16-111q0-52-15.5-83.5T259 231q-20-13-31-22t-21.5-26-10.5-36q0-25 15.5-38.5T253 95q59 0 59 75h149q0-77-52.5-129T253-11q-86 0-145 41T49 148q0 20 5 38.5T65 217t18 26 17.5 19 20 16 15.5 12q26 21 36 37t10 46h151z"/><glyph glyph-name="Dcaron.smcp" horiz-adv-x="639" d="M311 584L155 716l65 75 91-79 92 79 66-75zM78 560h219q133 0 212.5-82.5T589 280 510 82.5 297 0H78v560zm209-129h-58V129h58q67 0 107 44.5T434 280t-40 106.5T287 431z"/><glyph glyph-name="two.denominator" horiz-adv-x="397" d="M54 0q0 88 24.5 130t76.5 73q35 20 48 28.5t24.5 22T239 283q0 37-36 37-40 0-40-51H56q0 53 37 89t110 36q60 0 100.5-29t40.5-88q0-68-98-126-42-25-55.5-37T177 83h164V0H54z"/><glyph glyph-name="Kcommaaccent.smcp" horiz-adv-x="604" d="M573 0H395L229 232V0H78v560h151V327l166 233h178L361 280zM235-80q0 28 19 47.5T300-13q34 0 54.5-23.5T375-98q0-74-35-106t-103-32v42q73 0 81 54-6-6-18-6-29 0-47 19t-18 47z"/><glyph glyph-name="H.smcp" horiz-adv-x="629" d="M400 0v214H229V0H78v560h151V342h171v218h152V0H400z"/><glyph glyph-name="uni021A.smcp" horiz-adv-x="473" d="M161 0v430H41v130h391V430H312V0H161zm6-80q0 28 19.5 47.5T233-13q34 0 54.5-23.5T308-98q0-74-35-106t-103-32v42q73 0 81 54-6-6-18-6-30 0-48 19t-18 47z"/><glyph glyph-name="Otilde.smcp" horiz-adv-x="701" d="M229 615l-41 83q52 30 91 30 13 0 63-11t61-11q21 0 71 22l38-81q-47-36-96-36-13 0-63.5 10T291 631q-20 0-62-16zM350-15q-136 0-218 87T50 280t82 208 218 87q137 0 219-87t82-208-82-208-219-87zm0 138q66 0 106.5 46.5T497 280t-40.5 110.5T350 437t-106.5-46.5T203 280t40.5-110.5T350 123z"/><glyph glyph-name="braceleft.smcp" horiz-adv-x="442" d="M274 611h95V493h-32q-32 0-46.5-20T276 425V305q0-45-26.5-66.5T196 214q11-1 23-5.5t26-14.5 22.5-29.5T276 119V12q0-28 14.5-48T337-56h32v-117h-95q-65 0-103.5 36T132-37V85q0 33-19.5 48.5T65 149v130q28 0 47.5 14.5T132 340v133q0 65 38.5 101.5T274 611z"/><glyph glyph-name="G.smcp" horiz-adv-x="720" d="M377 200v104h305V200h-55q-16-99-89-157T346-15q-137 0-216.5 85T50 280q0 121 81 208t215 87q114 0 188-59t82-145H451q-5 30-33 52t-71 22q-67 0-105-49t-38-118q0-73 39-120.5T356 110q49 0 79.5 25.5T473 200h-96z"/><glyph glyph-name="two.003" horiz-adv-x="800" d="M400-18Q232-18 130.5 90.5T29 350q0 72 25.5 138t72 117.5 117.5 82T400 718q167 0 268.5-109T770 350q0-151-101.5-259.5T400-18zm0 86q123 0 197.5 83T672 350t-74.5 199T400 632t-198-83-75-199 75-199 198-83zm-146 92q0 88 24.5 130t76.5 72q36 21 48 29t24 22 12 30q0 36-36 36-40 0-40-50H256q0 53 37 89t110 36q60 0 100.5-29t40.5-88q0-70-98-126-42-25-55.5-37T377 243h164v-83H254z"/><glyph glyph-name="Umacron.smcp" horiz-adv-x="586" d="M443 754V653H143v101h300zM66 193v367h151V195q0-34 21.5-57.5T293 114t55 23.5 22 57.5v365h150V193q0-91-61.5-149.5T293-15 127.5 43.5 66 193z"/><glyph glyph-name="four.smcp" horiz-adv-x="569" d="M305 0v149H73v411h145V269h87v149h144V269h64V149h-64V0H305z"/><glyph glyph-name="Zcaron.smcp" horiz-adv-x="585" d="M301 576L144 708l66 76 91-79 91 79 66-76zM68 435v125h476L279 125h252V0H42l264 435H68z"/><glyph glyph-name="zero.denominator" horiz-adv-x="413" d="M52 130v125q0 58 42 98.5T206 394q69 0 112.5-40.5T362 255V130q0-58-43.5-98.5T206-9Q136-9 94 31.5T52 130zm203 0v125q0 22-13.5 37T206 307q-21 0-34-15t-13-37V130q0-22 13-37t34-15q22 0 35.5 15t13.5 37z"/><glyph glyph-name="Aogonek.smcp" horiz-adv-x="623" d="M548-95l-2-63q-39-12-78-12-52 0-79 22t-27 56q0 47 64 92l-20 66H213L193 0H30l204 560h151L593 0h-81q-45-29-45-62 0-18 10-30.5t27-12.5q23 0 44 10zM310 395l-64-216h126z"/><glyph glyph-name="Hbar.smcp" horiz-adv-x="628" d="M400 342v66H229v-66h171zM78 560h151v-70h171v70h152V0H400v214H229V0H78v560z"/><glyph glyph-name="Ydieresis.smcp" horiz-adv-x="584" d="M125 680q0 33 23.5 57t56.5 24q35 0 58.5-24t23.5-57-23.5-55.5T205 602q-33 0-56.5 23T125 680zm198 0q0 33 23.5 57t57.5 24 57.5-24 23.5-57q0-32-23.5-55T404 602t-57.5 23-23.5 55zm243-120L288 0H119l100 203L27 560h177l102-208 92 208h168z"/><glyph glyph-name="bracketright.smcp" horiz-adv-x="375" d="M298-173H65v123h90v537H65v124h233v-784z"/><glyph glyph-name="Rcommaaccent.smcp" horiz-adv-x="597" d="M307 441h-78V267h77q36 0 58 25.5t22 61.5-22 61.5-57 25.5zM78 0v560h255q92 0 149.5-60T540 354q0-59-28-107t-78-74L546 0H369l-90 148h-50V0H78zm150-80q0 28 19.5 47.5T294-13q34 0 54.5-23.5T369-98q0-74-35-106t-103-32v42q73 0 81 54-6-6-18-6-30 0-48 19t-18 47z"/><glyph glyph-name="ordfeminine.smcp" horiz-adv-x="577" d="M277 110q36 0 59 25t23 61-23 61.5-59 25.5q-35 0-58-25.5T196 196t23-61 58-25zm82 283h143V0H359v57q-13-26-47-46.5T239-10q-82 0-134 57.5T53 196t52 148.5T239 402q39 0 73-20t47-47v58z"/><glyph glyph-name="Ccaron.smcp" horiz-adv-x="690" d="M345 593L189 724l65 75 91-78 91 78 66-75zm137-381h160q-16-98-92.5-162.5T354-15q-138 0-221 86T50 281q0 120 82 207t216 87q128 0 204-67.5T641 335H483q-9 46-42.5 74.5T354 438q-70 0-110-46t-40-111q0-69 41.5-114T358 122q46 0 80 25.5t44 64.5z"/><glyph glyph-name="five.003" horiz-adv-x="800" d="M400-18Q232-18 130.5 90.5T29 350q0 72 25.5 138t72 117.5 117.5 82T400 718q167 0 268.5-109T770 350q0-151-101.5-259.5T400-18zm0 86q123 0 197.5 83T672 350t-74.5 199T400 632t-198-83-75-199 75-199 198-83zM256 316v224h279v-78H356v-72q21 32 75 32 61 0 93.5-39.5T557 290q0-62-41.5-103T402 146t-114 41-42 101h103q0-24 14.5-40.5T402 231t38.5 17 14.5 42q0 23-14.5 39.5T402 346q-33 0-49-30h-97z"/><glyph glyph-name="Idieresis.smcp" horiz-adv-x="308" d="M-19 680q0 34 24 58t58 24q35 0 59-24t24-58q0-33-24-56.5T63 600q-34 0-58 23.5T-19 680zm198 0q0 34 24 58t58 24 58.5-24 24.5-58q0-32-24.5-56T261 600t-58 23.5-24 56.5zM78 0v560h152V0H78z"/><glyph glyph-name="Eacute.smcp" horiz-adv-x="503" d="M390 686l-234-98-37 94 234 98zm41-242H229V334h202V222H229V116h202V0H78v560h353V444z"/><glyph glyph-name="five.004" horiz-adv-x="800" d="M400-18Q232-18 130.5 90.5T29 350q0 72 25.5 138t72 117.5 117.5 82T400 718q167 0 268.5-109T770 350q0-151-101.5-259.5T400-18zM256 316h97q16 30 49 30 24 0 38.5-16.5T455 290q0-25-14.5-42T402 231t-38.5 16.5T349 288H246q0-60 42-101t114-41 113.5 41T557 290q0 53-32.5 92.5T431 422q-54 0-75-32v72h179v78H256V316z"/><glyph glyph-name="eight.numerator" horiz-adv-x="410" d="M205 306q-71 0-112.5 33.5T51 424q0 32 19.5 58t46.5 33q-24 8-40 31t-16 52q0 48 38.5 79.5T205 709t105.5-31.5T349 598q0-29-16-52t-40-31q27-9 46.5-34t19.5-57q0-50-41.5-84T205 306zm0 245q20 0 32 12.5t12 29.5-12 29.5-32 12.5-32-12.5-12-29.5 12-29.5 32-12.5zm0-171q23 0 37 14t14 33q0 20-13.5 33.5T205 474t-37.5-13.5T154 427t14-33.5 37-13.5z"/><glyph glyph-name="Udieresis.001" horiz-adv-x="657" d="M519 870l-87-130h-96l87 130h96zm-137 0l-87-130h-96l87 130h96zM56 239v461h162V240q0-49 31-83.5t79-34.5q49 0 80 34.5t31 83.5v460h162V239q0-111-75-184T328-18 130.5 55.5 56 239z"/><glyph glyph-name="Tcommaaccent.smcp" horiz-adv-x="473" d="M161 0v430H41v130h391V430H312V0H161zm6-80q0 28 19.5 47.5T233-13q34 0 54.5-23.5T308-98q0-74-35-106t-103-32v42q73 0 81 54-6-6-18-6-30 0-48 19t-18 47z"/><glyph glyph-name="plus.denominator" horiz-adv-x="410" d="M245 34h-80v84H83v77h82v84h80v-84h82v-77h-82V34z"/><glyph glyph-name="six.smcp" horiz-adv-x="568" d="M283-11q-102 0-161.5 59T62 194q0 64 34 117l163 249h161L310 397h7q86-8 136.5-65.5T504 194q0-87-59.5-146T283-11zm0 118q37 0 59.5 25t22.5 62q0 38-22.5 63T283 282t-59.5-25-22.5-63q0-37 22.5-62t59.5-25z"/><glyph glyph-name="four.denominator" horiz-adv-x="416" d="M222 0v100H59v285h107V188h56v100h106V188h43v-88h-43V0H222z"/><glyph glyph-name="eight.smcp" horiz-adv-x="569" d="M280-13q-101 0-160 49.5T61 159q0 46 27.5 84t66.5 48q-35 13-57 46t-22 74q0 69 55 115.5T280 573t149-46.5T484 411q0-41-22-74t-57-46q39-11 66-49t27-84q0-72-59-121.5T280-13zm0 353q31 0 49.5 19t18.5 46q0 26-18.5 45T280 469t-50-18.5-19-45.5 19-46 50-19zm0-249q35 0 57 21.5t22 50.5-21.5 50.5T280 235q-37 0-58-20.5T201 163q0-30 21.5-51T280 91z"/><glyph glyph-name="five.plf.smcp" horiz-adv-x="584" d="M86 235v325h395V451H220V339q33 48 112 48 89 0 136-57.5T515 194q0-88-59.5-147.5T294-13 132.5 46 73 192h139q0-37 22.5-62t59.5-25 59.5 25.5T376 194q0 37-22.5 62.5T294 282q-52 0-75-47H86z"/><glyph glyph-name="Ubreve.smcp" horiz-adv-x="586" d="M105 738h108q21-50 80-50 58 0 80 50h108q-11-67-63.5-106.5T293 592t-123.5 39T105 738zM66 193v367h151V195q0-34 21.5-57.5T293 114t55 23.5 22 57.5v365h150V193q0-91-61.5-149.5T293-15 127.5 43.5 66 193z"/><glyph glyph-name="Ccircumflex.smcp" horiz-adv-x="690" d="M185 675l164 131 164-131-68-75-96 75-95-75zm297-463h160q-16-98-92.5-162.5T354-15q-138 0-221 86T50 281q0 120 82 207t216 87q128 0 204-67.5T641 335H483q-9 46-42.5 74.5T354 438q-70 0-110-46t-40-111q0-69 41.5-114T358 122q46 0 80 25.5t44 64.5z"/><glyph glyph-name="Lcaron.smcp" horiz-adv-x="427" d="M152 586L-4 718l65 75 91-79 92 79 65-75zm77-456h152V0H78v560h151V130z"/><glyph glyph-name="parenleft.numerator" horiz-adv-x="283" d="M234 733v-88q-33 0-52-21.5T163 570V357q0-31 19-52.5t52-21.5v-89q-79 0-126.5 47T60 357v213q0 69 47.5 116T234 733z"/><glyph glyph-name="Aacute.smcp" horiz-adv-x="623" d="M447 678l-234-98-37 95 234 97zM310 395l-64-216h126zm75 165L593 0H426l-20 66H213L193 0H30l204 560h151z"/><glyph glyph-name="IJ.smcp" horiz-adv-x="796" d="M78 0v560h152V0H78zm648 560V199q0-107-57.5-160T508-14q-106 0-161.5 59T291 199h151q0-38 17-61.5t49-23.5q66 0 66 85v361h152z"/><glyph glyph-name="five.smcp" horiz-adv-x="569" d="M77 235v325h394V451H211V339q33 48 112 48 88 0 135.5-57.5T506 194q0-88-60-147.5T284-13q-101 0-161 59T63 192h140q0-37 22-62t59-25 60 25.5 23 63.5q0 37-22.5 62.5T285 282q-53 0-76-47H77z"/><glyph glyph-name="Edieresis.001" horiz-adv-x="555" d="M485 870l-87-130h-97l87 130h97zm-138 0l-87-130h-96l87 130h96zm147-300H229V411h265V284H229V130h265V0H67v700h427V570z"/><glyph glyph-name="multiply.case.copy_1" d="M303 441l108 108 92-92-108-108 106-106-87-86-105 105-108-108-92 92 108 108-105 105 86 87z"/><glyph glyph-name="Cdotaccent.smcp" horiz-adv-x="690" d="M266 689q0 34 24 58t58 24q35 0 59-24t24-58q0-33-24-56.5T348 609q-34 0-58 23.5T266 689zm216-477h160q-16-98-92.5-162.5T354-15q-138 0-221 86T50 281q0 120 82 207t216 87q128 0 204-67.5T641 335H483q-9 46-42.5 74.5T354 438q-70 0-110-46t-40-111q0-69 41.5-114T358 122q46 0 80 25.5t44 64.5z"/><glyph glyph-name="zero.plf.smcp" horiz-adv-x="571" d="M65 189v182q0 85 60.5 143.5T286 573q98 0 159-59t61-143V189q0-84-61-143T286-13q-100 0-160.5 58.5T65 189zm296 0v182q0 34-20.5 58T286 453t-55-24-21-58V189q0-34 21-58t55-24 54.5 24 20.5 58z"/><glyph glyph-name="Abreve.smcp" horiz-adv-x="623" d="M123 737h108q24-49 80-49 58 0 79 49h109q-12-67-64-106t-124-39q-71 0-123 39t-65 106zm187-342l-64-216h126zm75 165L593 0H426l-20 66H213L193 0H30l204 560h151z"/><glyph glyph-name="Uhungarumlaut.smcp" horiz-adv-x="586" d="M136 637l100 150 90-56-136-116zm156 0l100 150 90-56-136-116zM66 193v367h151V195q0-34 21.5-57.5T293 114t55 23.5 22 57.5v365h150V193q0-91-61.5-149.5T293-15 127.5 43.5 66 193z"/><glyph glyph-name="Z.smcp" horiz-adv-x="585" d="M68 435v125h476L279 125h252V0H42l264 435H68z"/><glyph glyph-name="braceright.smcp" horiz-adv-x="442" d="M74 611h94q65 0 103.5-36.5T310 473V340q0-32 19.5-46.5T377 279V149q-28 0-47.5-15.5T310 85V-37q0-64-38.5-100T168-173H74v117h32q31 0 46 20t15 48v107q0 26 8.5 45.5T198 194t25.5 14.5T246 214q-27 3-53 24.5T167 305v120q0 28-15 48t-46 20H74v118z"/><glyph glyph-name="Emacron.smcp" horiz-adv-x="503" d="M401 731V631H102v100h299zm30-287H229V334h202V222H229V116h202V0H78v560h353V444z"/><glyph glyph-name="I.smcp" horiz-adv-x="308" d="M78 0v560h152V0H78z"/><glyph glyph-name="two.smcp" horiz-adv-x="569" d="M83 0q0 66 10 114.5t31.5 81.5 45 53.5T230 293q78 46 96 64 24 24 24 55 0 29-15.5 43T293 469q-64 0-64-76H84q0 77 53.5 128.5T292 573q86 0 143-42.5T492 403q0-33-13-61.5t-37-52-45-38.5-50-32q-61-38-79.5-56.5T249 114h239V0H83z"/><glyph glyph-name="eight.plf.smcp" horiz-adv-x="569" d="M285-13q-101 0-160 49.5T66 159q0 46 27.5 84t66.5 48q-35 13-57.5 46.5T80 411q0 69 55 115.5T285 573q94 0 149-46.5T489 411q0-40-22.5-73.5T409 291q40-11 67-49t27-84q0-72-59-121.5T285-13zm0 353q31 0 49.5 19t18.5 46q0 26-18.5 45T285 469q-32 0-50.5-18.5T216 405t18.5-46 50.5-19zm0-249q35 0 57 21.5t22 50.5-21.5 50.5T285 235q-37 0-58.5-20.5T205 163q0-30 22-51t58-21z"/><glyph glyph-name="K.smcp" horiz-adv-x="604" d="M395 0L229 232V0H78v560h151V327l166 233h178L361 280 573 0H395z"/><glyph glyph-name="Ccedilla.smcp" horiz-adv-x="690" d="M642 212q-15-91-83.5-154T383-13v-26q13 13 36 13 29 0 48.5-21.5T487-99q0-34-23.5-58T397-181q-34 0-60.5 19T307-105h64q4-23 26-23 11 0 18.5 8t7.5 21q0 11-7 18.5T398-73q-16 0-23-13h-58v73Q194-1 122 83T50 281q0 120 82 207t216 87q128 0 204-67.5T641 335H483q-9 46-42.5 74.5T354 438q-70 0-110-46t-40-111q0-69 41.5-114T358 122q46 0 80 25.5t44 64.5h160z"/><glyph glyph-name="Wdieresis.smcp" horiz-adv-x="905" d="M273 688q0 33 23.5 56.5T353 768q34 0 57.5-23.5T434 688t-23.5-56.5T353 608q-33 0-56.5 23.5T273 688zm197 0q0 33 23.5 56.5T551 768t57.5-23.5T632 688t-23.5-56.5T551 608t-57.5 23.5T470 688zM554 0L453 324 352 0H223L23 560h160l106-348 104 348h119l105-348 105 348h160L682 0H554z"/><glyph glyph-name="Odieresis.001" horiz-adv-x="805" d="M583 870l-87-130h-96l87 130h96zM359 740h-97l87 130h97zm334-390q0-123-79.5-211T403 51t-210.5 88T113 350t79.5 211T403 649t210.5-88T693 350zm-532 46q-22-99 33-186t164-105q108-17 185.5 41.5T644 304q22 99-33 186T447 595q-108 17-185.5-41.5T161 396z"/><glyph glyph-name="germandbls.smcp" horiz-adv-x="541" d="M232 0v106q26-6 41-6 27 0 46 18.5t19 51.5q0 28-18 48t-50 20h-18v109h17q33 0 48.5 17.5T333 410q0 27-17 43t-43 16q-28 0-44-21t-16-55V0H64v393q0 76 49.5 128T274 573q88 0 147-40t59-118q0-46-26-80t-63-45q40-14 68-51t28-86q0-78-48-121T313-11q-48 0-81 11z"/><glyph glyph-name="four.004" horiz-adv-x="800" d="M400-18Q232-18 130.5 90.5T29 350t101.5 259.5T400 718t269.5-108.5T771 350 669.5 90.5 400-18zm5 173h107v100h42v88h-42v100H405V343h-56v197H242V255h163V155z"/><glyph glyph-name="four.003" horiz-adv-x="800" d="M400-18Q232-18 130.5 90.5T29 350t101.5 259.5T400 718t269.5-108.5T771 350 669.5 90.5 400-18zm0 86q123 0 198 83t75 199-75 199-198 83-198-83-75-199 75-199 198-83zm5 87v100H242v285h107V343h56v100h107V343h42v-88h-42V155H405z"/><glyph glyph-name="Igrave.smcp" horiz-adv-x="308" d="M252 581L19 679l37 94 233-98zM78 0v560h152V0H78z"/><glyph glyph-name="Odieresis.001.smcp" horiz-adv-x="701" d="M501 696l-70-104h-83l70 104h83zm-116 0l-70-104h-83l70 104h83zM350-15q-136 0-218 87T50 280t82 208 218 87q137 0 219-87t82-208-82-208-219-87zm147 295q0 64-40.5 110.5T350 437t-106.5-46.5T203 280t40.5-110.5T350 123t106.5 46.5T497 280z"/><glyph glyph-name="Gbreve.smcp" horiz-adv-x="720" d="M158 738h108q21-50 80-50 58 0 80 50h108q-11-67-63.5-106.5T346 592q-71 0-123 39t-65 107zm219-538v104h305V200h-55q-16-99-89-157T346-15q-137 0-216.5 85T50 280q0 121 81 208t215 87q114 0 188-59t82-145H451q-5 30-33 52t-71 22q-67 0-105-49t-38-118q0-73 39-120.5T356 110q49 0 79.5 25.5T473 200h-96z"/><glyph glyph-name="minus.denominator" horiz-adv-x="410" d="M327 118H83v77h244v-77z"/><glyph glyph-name="AE.smcp" horiz-adv-x="805" d="M268 179h110v248zm463 265H530V334h201V222H530V116h201V0H378v66H220L192 0H27l266 560h438V444z"/><glyph glyph-name="Ucircumflex.smcp" horiz-adv-x="586" d="M127 661l164 132 164-132-68-75-96 76-95-76zM66 193v367h151V195q0-34 21.5-57.5T293 114t55 23.5 22 57.5v365h150V193q0-91-61.5-149.5T293-15 127.5 43.5 66 193z"/><glyph glyph-name="L.smcp" horiz-adv-x="427" d="M229 130h151V0H78v560h151V130z"/><glyph glyph-name="parenright.smcp" horiz-adv-x="376" d="M54 485v126q112 0 180-68.5T302 375V57q0-99-68-167T54-178v126q47 0 75 31.5T157 57v318q0 47-28 78.5T54 485z"/><glyph glyph-name="Agrave.smcp" horiz-adv-x="623" d="M416 584l-234 99 37 94 234-99zM310 395l-64-216h126zm75 165L593 0H426l-20 66H213L193 0H30l204 560h151z"/><glyph glyph-name="Aring.smcp" horiz-adv-x="623" d="M312 803q46 0 79-33.5t33-79.5-33-79-79-33q-47 0-80.5 33T198 690q0 47 33.5 80t80.5 33zm0-75q-15 0-26-11.5T275 690q0-14 11-24t26-10q14 0 24.5 10.5T347 691q0 15-10 26t-25 11zm-2-333l-64-216h126zm75 165L593 0H426l-20 66H213L193 0H30l204 560h151z"/><glyph glyph-name="Gcommaaccent.smcp" horiz-adv-x="720" d="M377 200v104h305V200h-55q-16-99-89-157T346-15q-137 0-216.5 85T50 280q0 121 81 208t215 87q114 0 188-59t82-145H451q-5 30-33 52t-71 22q-67 0-105-49t-38-118q0-73 39-120.5T356 110q49 0 79.5 25.5T473 200h-96zM283-88q0 28 19.5 47.5T349-21q34 0 54.5-23.5T424-106q0-73-35-105t-103-33v42q73 0 81 54-5-5-18-5-30 0-48 18.5T283-88z"/><glyph glyph-name="Yacute.smcp" horiz-adv-x="584" d="M459 683l-234-98-37 94 234 98zm107-123L288 0H119l100 203L27 560h177l102-208 92 208h168z"/><glyph glyph-name="slash.smcp" horiz-adv-x="465" d="M36-1l274 638 136-57L171-59z"/><glyph glyph-name="Thorn.smcp" horiz-adv-x="502" d="M214 560v-85h26q103 0 162-57.5T461 276t-59-141.5T240 77h-26V0H73v560h141zm0-203V195h26q36 0 58 23.5t22 57.5-22 57.5-58 23.5h-26z"/><glyph glyph-name="parenright.denominator" horiz-adv-x="283" d="M49 330v88q79 0 126-47t47-116V42q0-69-47-116T49-121v89q32 0 51.5 21.5T120 42v213q0 32-19.5 53.5T49 330z"/><glyph glyph-name="plus.numerator" horiz-adv-x="410" d="M245 349h-80v84H83v77h82v84h80v-84h82v-77h-82v-84z"/><glyph glyph-name="Wacute.smcp" horiz-adv-x="905" d="M588 686l-234-98-37 94 234 98zM554 0L453 324 352 0H223L23 560h160l106-348 104 348h119l105-348 105 348h160L682 0H554z"/><glyph glyph-name="Zdotaccent.smcp" horiz-adv-x="585" d="M213 686q0 34 24 58t58 24 58.5-24 24.5-58q0-33-24.5-57T295 605t-58 24-24 57zM68 435v125h476L279 125h252V0H42l264 435H68z"/><glyph glyph-name="Zacute.smcp" horiz-adv-x="585" d="M433 686l-234-98-37 94 234 98zM68 435v125h476L279 125h252V0H42l264 435H68z"/><glyph glyph-name="Tcaron.smcp" horiz-adv-x="473" d="M236 585L79 717l65 75 92-78 92 78 65-75zM161 0v430H41v130h391V430H312V0H161z"/><glyph glyph-name="Oslash.smcp" horiz-adv-x="701" d="M203 280q0-73 46-117l117 273q-70 6-116.5-41T203 280zm294 0q0 70-47 117L332 124q66-11 115.5 38.5T497 280zM166-28l23 55Q123 65 86.5 133T50 280q0 121 82 208t218 87q37 0 74-8l26 60 85-37-25-56q67-40 104-107.5T651 280q0-121-82-208T350-15q-40 0-76 9l-24-58z"/><glyph glyph-name="nine.numerator" horiz-adv-x="402" d="M223 315H104l74 110q-61 7-96.5 45.5T46 565q0 61 42 102t114 41q71 0 113.5-41T358 565q0-45-24-80zm-21 307q-24 0-38.5-16.5T149 565t14.5-40 38.5-16 38.5 16 14.5 40-14.5 40.5T202 622z"/><glyph glyph-name="Ldot.smcp" horiz-adv-x="459" d="M229 130h151V0H78v560h151V130zm39 150q0 37 26.5 63.5T359 370t64.5-26.5T450 280t-26.5-63-64.5-26-64.5 26-26.5 63z"/><glyph glyph-name="one.denominator" horiz-adv-x="298" d="M46 243v72q55 0 75 16.5t20 53.5h92V0H125v243H46z"/><glyph glyph-name="seven.numerator" horiz-adv-x="372" d="M48 700h299L183 315H68l127 297H48v88z"/><glyph glyph-name="U.smcp" horiz-adv-x="586" d="M66 193v367h151V195q0-34 21.5-57.5T293 114t55 23.5 22 57.5v365h150V193q0-91-61.5-149.5T293-15 127.5 43.5 66 193z"/><glyph glyph-name="Oslashacute.smcp" horiz-adv-x="701" d="M251 588l-37 94 234 98 37-94zm-48-308q0-73 46-117l117 273q-70 6-116.5-41T203 280zm294 0q0 70-47 117L332 124q66-11 115.5 38.5T497 280zM166-28l23 55Q123 65 86.5 133T50 280q0 121 82 208t218 87q37 0 74-8l26 60 85-37-25-56q67-40 104-107.5T651 280q0-121-82-208T350-15q-40 0-76 9l-24-58z"/><glyph glyph-name="Eng.smcp" horiz-adv-x="652" d="M357-196q-82 0-136 59l83 93q2-2 9-6.5t9-6 7.5-5 9-4.5 8.5-2 10-1q29 0 46 19t19 52L229 337V0H78v560h151l195-346v346h151V16q0-107-57-159.5T357-196z"/><glyph glyph-name="Lslash.smcp" horiz-adv-x="431" d="M233 130h151V0H81v198l-32-12v107l32 12v255h152V359l95 37V289l-95-37V130z"/><glyph glyph-name="T.smcp" horiz-adv-x="473" d="M161 0v430H41v130h391V430H312V0H161z"/><glyph glyph-name="Ecircumflex.smcp" horiz-adv-x="503" d="M92 661l163 132 165-132-68-75-96 76-95-76zm339-217H229V334h202V222H229V116h202V0H78v560h353V444z"/><glyph glyph-name="seven.plf.smcp" horiz-adv-x="509" d="M60 560h421L242 0H88l189 440H60v120z"/><glyph glyph-name="Ycircumflex.smcp" horiz-adv-x="584" d="M128 662l164 131 165-131-70-76-95 77-95-76zm438-102L288 0H119l100 203L27 560h177l102-208 92 208h168z"/><glyph glyph-name="Ugrave.smcp" horiz-adv-x="586" d="M397 588l-234 98 37 94 234-98zM66 193v367h151V195q0-34 21.5-57.5T293 114t55 23.5 22 57.5v365h150V193q0-91-61.5-149.5T293-15 127.5 43.5 66 193z"/><glyph glyph-name="Ecaron.smcp" horiz-adv-x="503" d="M251 586L94 718l65 75 92-79 92 79 65-75zm180-142H229V334h202V222H229V116h202V0H78v560h353V444z"/><glyph glyph-name="question.smcp" horiz-adv-x="501" d="M168 189q1 52 17 83.5t58 59.5q20 12 31 21t21.5 25.5T306 415q0 25-16 38.5T248 467t-42.5-18-16.5-56H40q0 77 52.5 128.5T248 573q86 0 145.5-41T453 414q0-20-5-38.5T437 345t-17.5-25-18.5-19-19.5-16.5T366 272q-27-22-36.5-37.5T320 189H168zM152 79q0 37 26.5 63.5T244 169t66-26.5T337 79q0-38-27-65t-66-27-65.5 27T152 79z"/><glyph glyph-name="nine.003" horiz-adv-x="800" d="M400-18Q232-18 130.5 90.5T29 350q0 72 25.5 138t72 117.5 117.5 82T400 718q167 0 268.5-109T770 350q0-151-101.5-259.5T400-18zm0 86q123 0 197.5 83T672 350t-74.5 199T400 632t-198-83-75-199 75-199 198-83zm3 479q71 0 113.5-40.5T559 405q0-47-24-81L424 154H305l74 110q-61 7-96.5 46T247 405q0 61 42 101.5T403 547zm0-86q-24 0-38.5-16T350 405t14.5-40.5T403 348t38.5 16.5T456 405t-14.5 40-38.5 16z"/><glyph glyph-name="nine.004" horiz-adv-x="800" d="M400-18Q232-18 130.5 90.5T29 350q0 72 25.5 138t72 117.5 117.5 82T400 718q167 0 268.5-109T770 350q0-151-101.5-259.5T400-18zm3 565q-72 0-114-40.5T247 405q0-56 35.5-95t96.5-46l-74-110h119l111 170q24 35 24 81 0 61-42.5 101.5T403 547zm0-86q24 0 38.5-16t14.5-40-14.5-40.5T403 348t-38.5 16.5T350 405t14.5 40 38.5 16z"/><glyph glyph-name="Edieresis.smcp" horiz-adv-x="503" d="M78 680q0 34 24.5 58t58.5 24 58.5-24 24.5-58q0-32-24.5-56T161 600t-58.5 24T78 680zm199 0q0 34 23.5 58t57.5 24q35 0 59-24t24-58q0-33-24-56.5T358 600q-34 0-57.5 23.5T277 680zm154-236H229V334h202V222H229V116h202V0H77v560h354V444z"/><glyph glyph-name="X.smcp" horiz-adv-x="561" d="M281 391l88 169h165L368 280 534 0H369l-88 168L193 0H27l166 280L27 560h166z"/><glyph glyph-name="Ohungarumlaut.smcp" horiz-adv-x="701" d="M242 615l-55 22 100 150 90-56zm101 22l100 150 90-56-135-116zm7-652q-136 0-218 87T50 280t82 208 218 87q137 0 219-87t82-208-82-208-219-87zm0 138q66 0 106.5 46.5T497 280t-40.5 110.5T350 437t-106.5-46.5T203 280t40.5-110.5T350 123z"/><glyph glyph-name="Edieresis.001.smcp" horiz-adv-x="503" d="M422 696l-69-104h-84l70 104h83zm-116 0l-70-104h-83l70 104h83zm125-252H229V334h202V222H229V116h202V0H78v560h353V444z"/><glyph glyph-name="seven.smcp" horiz-adv-x="569" d="M89 560h421L271 0H117l189 440H89v120z"/><glyph glyph-name="Odieresis.smcp" horiz-adv-x="701" d="M365 682q0 35 23.5 58.5T446 764q35 0 59-23.5t24-58.5q0-33-24-56.5T446 602q-34 0-57.5 23.5T365 682zm-116-80q-34 0-58 23.5T167 682q0 34 23.5 58t58.5 24 58.5-23.5T331 682q0-33-23.5-56.5T249 602zM350-15q-136 0-218 87T50 280t82 208 218 87q137 0 219-87t82-208-82-208-219-87zm0 138q66 0 106.5 46.5T497 280t-40.5 110.5T350 437t-106.5-46.5T203 280t40.5-110.5T350 123z"/><glyph glyph-name="parenright.numerator" horiz-adv-x="283" d="M49 645v88q79 0 126-47t47-116V357q0-69-47-116T49 194v89q32 0 51.5 21.5T120 357v213q0 32-19.5 53.5T49 645z"/><glyph glyph-name="three.smcp" horiz-adv-x="569" d="M65 189h145q0-42 20-66t54-24q31 0 49 20.5t18 49.5q0 70-75 70h-56v108h56q38 0 54 16.5t16 47.5q0 58-58 58-35 0-49.5-19.5T224 393H79q0 77 49.5 128.5T285 573q87 0 145-40t58-118q0-45-24.5-79T403 290q40-14 66.5-49.5T496 154q0-77-61-122T289-13q-111 0-167.5 55T65 189z"/><glyph glyph-name="two.numerator" horiz-adv-x="397" d="M54 315q0 88 24.5 130t76.5 73q35 20 48 28.5t24.5 22T239 598q0 37-36 37-40 0-40-51H56q0 53 37 89t110 36q60 0 100.5-29t40.5-88q0-68-98-126-42-25-55.5-37T177 398h164v-83H54z"/><glyph glyph-name="one.smcp" horiz-adv-x="569" d="M125 361v99q80 0 108 23.5t28 76.5h126V0H240v361H125z"/><glyph glyph-name="Ygrave.smcp" horiz-adv-x="584" d="M390 588l-233 98 37 94 233-98zm176-28L288 0H119l100 203L27 560h177l102-208 92 208h168z"/><glyph glyph-name="two.004" horiz-adv-x="800" d="M400-18Q232-18 130.5 90.5T29 350q0 72 25.5 138t72 117.5 117.5 82T400 718q167 0 268.5-109T770 350q0-151-101.5-259.5T400-18zM254 160h287v83H377q0 19 13.5 31t55.5 37q98 56 98 126 0 59-40.5 88T403 554q-73 0-110-36t-37-89h107q0 50 40 50 36 0 36-36 0-16-12-30t-24-22-48-29q-52-30-76.5-72T254 160z"/><glyph glyph-name="two.plf.smcp" horiz-adv-x="546" d="M69 0q0 87 20.5 146t49 87.5T217 293q78 46 95 63 25 25 25 56 0 28-16 42.5T280 469q-64 0-64-76H71q0 77 53.5 128.5T279 573q86 0 142.5-42.5T478 403q0-33-13-61.5t-37-52-44.5-38.5-49.5-32q-61-38-79.5-56.5T236 114h238V0H69z"/><glyph glyph-name="O.smcp" horiz-adv-x="701" d="M350-15q-136 0-218 87T50 280t82 208 218 87q137 0 219-87t82-208-82-208-219-87zm0 138q66 0 106.5 46.5T497 280t-40.5 110.5T350 437t-106.5-46.5T203 280t40.5-110.5T350 123z"/><glyph glyph-name="Amacron.smcp" horiz-adv-x="623" d="M459 731V631H160v100h299zM310 395l-64-216h126zm75 165L593 0H426l-20 66H213L193 0H30l204 560h151z"/><glyph glyph-name="seven.denominator" horiz-adv-x="372" d="M48 385h299L183 0H68l127 297H48v88z"/><glyph glyph-name="Adieresis.001" horiz-adv-x="660" d="M525 870l-87-130h-96l87 130h96zm-137 0l-87-130h-97l87 130h97zm-59-370l-86-288h170zm74 200L656 0H480l-27 85H204L177 0H4l250 700h149z"/><glyph glyph-name="Scircumflex.smcp" horiz-adv-x="556" d="M117 663l164 132 164-132-69-75-95 77-95-76zM55 188h152q0-41 21-64t57-23q28 0 45.5 15t17.5 40q0 26-19.5 40T262 228q-35 13-51 19.5t-44 20-41 25.5-29 30-22 40.5-6 50.5q0 78 61.5 119.5T280 575q106 0 158.5-52.5T491 394H340q0 74-62 74-25 0-41.5-12.5T220 419q0-41 78-68 40-14 58.5-21.5t51.5-25 49-34 29-43.5 13-60q0-86-59.5-134T278-15q-101 0-162 53.5T55 188z"/><glyph glyph-name="zero.plfslash.smcp" horiz-adv-x="568" d="M64 189v182q0 85 60 143.5T284 573q98 0 159-59t61-143V189q0-84-61-143T284-13q-100 0-160 58.5T64 189zm144 75q0-32 4-48l99 231q-14 6-27 6-32 0-53-22t-22-54q-1-1-1-113zm152-75v117q0 18-2 32l-97-227q12-4 23-4 34 0 55 24t21 58z"/><glyph glyph-name="four.plf.smcp" horiz-adv-x="572" d="M308 0v149H77v411h144V269h87v149h145V269h64V149h-64V0H308z"/><glyph glyph-name="Oacute.smcp" horiz-adv-x="701" d="M477 686l-233-98-37 94 233 98zM350-15q-136 0-218 87T50 280t82 208 218 87q137 0 219-87t82-208-82-208-219-87zm0 138q66 0 106.5 46.5T497 280t-40.5 110.5T350 437t-106.5-46.5T203 280t40.5-110.5T350 123z"/><glyph glyph-name="Ebreve.smcp" horiz-adv-x="503" d="M64 736h108q22-49 80-49t79 49h109q-12-67-64.5-106T252 591q-72 0-123.5 39T64 736zm366-292H229V334h201V222H229V116h201V0H78v560h352V444z"/><glyph glyph-name="nine.smcp" horiz-adv-x="568" d="M283 571q102 0 161.5-59T504 366q0-64-34-117L308 0H146l110 163h-7q-86 8-136.5 65.5T62 366q0 87 59.5 146T283 571zm0-118q-37 0-59.5-25T201 366q0-38 22.5-63t59.5-25 59.5 25 22.5 63q0 37-22.5 62T283 453z"/><glyph glyph-name="Utilde.smcp" horiz-adv-x="586" d="M172 615l-42 83q53 30 91 30 13 0 63.5-11t61.5-11q21 0 71 22l38-81q-47-36-96-36-13 0-63.5 10T234 631q-20 0-62-16zM66 193v367h151V195q0-34 21.5-57.5T293 114t55 23.5 22 57.5v365h150V193q0-91-61.5-149.5T293-15 127.5 43.5 66 193z"/><glyph glyph-name="Sacute.smcp" horiz-adv-x="556" d="M412 686l-233-98-37 94 233 98zM55 188h152q0-41 21-64t57-23q28 0 45.5 15t17.5 40q0 26-19.5 40T262 228q-35 13-51 19.5t-44 20-41 25.5-29 30-22 40.5-6 50.5q0 78 61.5 119.5T280 575q106 0 158.5-52.5T491 394H340q0 74-62 74-25 0-41.5-12.5T220 419q0-41 78-68 40-14 58.5-21.5t51.5-25 49-34 29-43.5 13-60q0-86-59.5-134T278-15q-101 0-162 53.5T55 188z"/><glyph glyph-name="exclam.smcp" horiz-adv-x="337" d="M92 202v358h153V202H92zM76 75q0 38 26.5 64.5T168 166t65.5-26.5T260 75t-26.5-64.5T168-16t-65.5 26.5T76 75z"/><glyph glyph-name="ordmasculine.smcp" horiz-adv-x="548" d="M274-11q-103 0-163.5 59.5T50 196q0 89 60.5 148.5T274 404t163.5-59.5T498 196q0-88-60.5-147.5T274-11zm0 121q37 0 59 24.5t22 61.5-22 62-59 25q-36 0-58.5-25T193 196t22.5-61.5T274 110z"/><glyph glyph-name="W.smcp" horiz-adv-x="905" d="M554 0L453 324 352 0H223L23 560h160l106-348 104 348h119l105-348 105 348h160L682 0H554z"/><glyph glyph-name="eight.denominator" horiz-adv-x="410" d="M205-9Q134-9 92.5 24.5T51 109q0 32 19.5 58t46.5 33q-24 8-40 31t-16 52q0 48 38.5 79.5T205 394t105.5-31.5T349 283q0-29-16-52t-40-31q27-9 46.5-34t19.5-57q0-50-41.5-84T205-9zm0 245q20 0 32 12.5t12 29.5-12 29.5-32 12.5-32-12.5-12-29.5 12-29.5 32-12.5zm0-171q23 0 37 14t14 33q0 20-13.5 33.5T205 159t-37.5-13.5T154 112t14-33.5T205 65z"/><glyph glyph-name="zero.smcp" horiz-adv-x="568" d="M64 189v182q0 85 60 143.5T284 573q98 0 159-59t61-143V189q0-84-61-143T284-13q-100 0-160 58.5T64 189zm296 0v182q0 34-21 58t-55 24-55-24-21-58V189q0-34 21-58t55-24 55 24 21 58z"/><glyph glyph-name="Ocircumflex.smcp" horiz-adv-x="701" d="M186 661l164 132 165-132-69-75-95 76-96-76zM350-15q-136 0-218 87T50 280t82 208 218 87q137 0 219-87t82-208-82-208-219-87zm0 138q66 0 106.5 46.5T497 280t-40.5 110.5T350 437t-106.5-46.5T203 280t40.5-110.5T350 123z"/><glyph glyph-name="Jcircumflex.smcp" horiz-adv-x="542" d="M232 658l164 132 164-132-67-74-97 75-97-74zm239-98V199q0-107-56.5-160T254-14Q148-14 92.5 45T37 199h151q0-38 17-61.5t49-23.5 49.5 22 17.5 63v361h150z"/><glyph glyph-name="uni0423.002" horiz-adv-x="612" d="M607 700L260 0H134l139 280L11 700h133l187-301 150 301h126z"/><glyph glyph-name="bracketleft.smcp" horiz-adv-x="375" d="M310-173H78v784h232V488h-89V-50h89v-123z"/><glyph glyph-name="Uogonek.smcp" horiz-adv-x="586" d="M383-95l-2-63q-39-12-78-12-52 0-79 22t-27 56q0 42 48 81-83 13-131 68.5T66 193v367h151V195q0-34 21.5-57.5T293 114t55 23.5 22 57.5v365h150V193q0-83-51.5-139.5T329-12q-28-21-28-50 0-18 10-30.5t27-12.5q24 0 45 10z"/><glyph glyph-name="Ntilde.smcp" horiz-adv-x="652" d="M202 615l-42 83q53 30 91 30 13 0 63.5-10.5T376 707q23 0 70 21l39-81q-47-36-96-36-13 0-64 10.5T264 632q-17 0-62-17zm31-55l191-346v346h151V0H420L229 337V0H78v560h155z"/><glyph glyph-name="Ncommaaccent.smcp" horiz-adv-x="652" d="M575 0H420L229 337V0H78v560h155l191-346v346h151V0zM255-80q0 28 19.5 47.5T321-13q34 0 55-23.5T397-98q0-74-35-106t-103-32v42q74 0 80 54-6-6-18-6-29 0-47.5 19T255-80z"/><glyph glyph-name="five.numerator" horiz-adv-x="420" d="M65 476v224h279v-78H165v-72q21 32 75 32 61 0 93.5-39.5T366 450q0-62-41.5-103T211 306 97 347 55 448h103q0-24 14.5-40.5T211 391t38.5 17 14.5 42q0 23-14.5 39.5T211 506q-33 0-49-30H65z"/><glyph glyph-name="Scedilla.smcp" horiz-adv-x="556" d="M55 188h152q0-41 21-64t57-23q28 0 45.5 15t17.5 40q0 26-19.5 40T262 228q-35 13-51 19.5t-44 20-41 25.5-29 30-22 40.5-6 50.5q0 78 61.5 119.5T280 575q106 0 158.5-52.5T491 394H340q0 74-62 74-25 0-41.5-12.5T220 419q0-41 78-68 40-14 58.5-21.5t51.5-25 49-34 29-43.5 13-60q0-79-50.5-125.5T310-13v-32q13 13 36 13 29 0 48.5-21.5T414-105q0-34-24-58t-66-24q-34 0-60.5 19.5T233-110h65q3-23 26-23 11 0 18.5 7.5T350-105q0 11-7.5 18.5T324-79q-16 0-23-12h-57v78q-87 9-138 61T55 188z"/><glyph glyph-name="Adieresis.smcp" horiz-adv-x="623" d="M129 680q0 34 23.5 58t57.5 24q36 0 59.5-24t23.5-58q0-33-24-56.5T210 600q-34 0-57.5 24T129 680zm198 0q0 34 23.5 58t57.5 24q35 0 59-24t24-58q0-33-24-56.5T408 600q-34 0-57.5 23.5T327 680zm-17-285l-64-216h126zm75 165L593 0H426l-20 66H213L193 0H30l204 560h151z"/><glyph glyph-name="six.plf.smcp" horiz-adv-x="557" d="M277-11q-101 0-161 59T56 194q0 62 34 117l163 249h161L305 397q3-1 12.5-3.5t18-5T347 384q70-14 111-67t41-123q0-87-60-146T277-11zm0 118q37 0 60 25t23 62-23 62.5-60 25.5q-36 0-58.5-25T196 194q0-37 22.5-62t58.5-25z"/><glyph glyph-name="uni0427.002" horiz-adv-x="524" d="M451 0H337v222H185q-101 0-145 63-30 46-30 138v277h114V464q0-141 101-141h112v377h114V0z"/><glyph glyph-name="Omacron.smcp" horiz-adv-x="701" d="M500 731V631H201v100h299zM350-15q-136 0-218 87T50 280t82 208 218 87q137 0 219-87t82-208-82-208-219-87zm0 138q66 0 106.5 46.5T497 280t-40.5 110.5T350 437t-106.5-46.5T203 280t40.5-110.5T350 123z"/><glyph glyph-name="Acircumflex.smcp" horiz-adv-x="623" d="M147 674l164 132 165-132-69-75-95 77-96-76zm163-279l-64-216h126zm75 165L593 0H426l-20 66H213L193 0H30l204 560h151z"/><glyph glyph-name="six.denominator" horiz-adv-x="402" d="M200-8Q128-8 86.5 33T45 135q0 46 22 80l112 170h120l-74-110q15-4 33-11 46-13 72-48t26-81q0-61-42-102T200-8zm0 86q24 0 38.5 16t14.5 41q0 24-14.5 40T200 191t-38.5-16-14.5-40 14.5-40.5T200 78z"/><glyph glyph-name="one.plf.smcp" horiz-adv-x="403" d="M57 361v99q80 0 108 23.5t28 76.5h125V0H172v361H57z"/><glyph glyph-name="backslash.smcp" horiz-adv-x="464" d="M157 637L432-1 296-59 22 580z"/><glyph glyph-name="Eogonek.smcp" horiz-adv-x="502" d="M467-95l-3-63q-39-12-77-12-52 0-79 22t-27 56q0 47 63 92H78v560h353V444H229V334h202V222H229V116h202V0q-45-29-45-62 0-18 10-30.5t27-12.5q23 0 44 10z"/><glyph glyph-name="five.denominator" horiz-adv-x="420" d="M65 161v224h279v-78H165v-72q21 32 75 32 61 0 93.5-39.5T366 135q0-62-41.5-103T211-9 97 32 55 133h103q0-24 14.5-40.5T211 76t38.5 17 14.5 42q0 23-14.5 39.5T211 191q-33 0-49-30H65z"/><glyph glyph-name="zero.slash.smcp" horiz-adv-x="568" d="M64 189v182q0 85 60 143.5T284 573q98 0 159-59t61-143V189q0-84-61-143T284-13q-100 0-160 58.5T64 189zm144 75q0-32 4-48l99 231q-14 6-27 6-32 0-53-22t-22-54q-1-1-1-113zm152-75v117q0 18-2 32l-97-227q12-4 23-4 34 0 55 24t21 58z"/><glyph glyph-name="B.smcp" horiz-adv-x="577" d="M72 0v560h257q54 0 92.5-15.5T478 504t25.5-49 7.5-50q0-50-27.5-81T422 283q34-8 64-39t30-86q0-25-7.5-49.5T483 58t-56.5-42T334 0H72zm151 337h65q38 0 55 18t17 43q0 23-16 41.5T288 458h-65V337zm67-104h-67V110h67q38 0 55 18.5t17 43.5q0 23-16.5 42T290 233z"/><glyph glyph-name="Wgrave.smcp" horiz-adv-x="905" d="M551 588l-234 98 37 94 234-98zm3-588L453 324 352 0H223L23 560h160l106-348 104 348h119l105-348 105 348h160L682 0H554z"/><glyph glyph-name="N.smcp" horiz-adv-x="652" d="M233 560l191-346v346h151V0H420L229 337V0H78v560h155z"/><glyph glyph-name="S.smcp" horiz-adv-x="556" d="M55 188h152q0-41 21-64t57-23q28 0 45.5 15t17.5 40q0 26-19.5 40T262 228q-35 13-51 19.5t-44 20-41 25.5-29 30-22 40.5-6 50.5q0 78 61.5 119.5T280 575q106 0 158.5-52.5T491 394H340q0 74-62 74-25 0-41.5-12.5T220 419q0-41 78-68 40-14 58.5-21.5t51.5-25 49-34 29-43.5 13-60q0-86-59.5-134T278-15q-101 0-162 53.5T55 188z"/><glyph glyph-name="Ograve.smcp" horiz-adv-x="701" d="M455 588l-234 98 37 94 234-98zM350-15q-136 0-218 87T50 280t82 208 218 87q137 0 219-87t82-208-82-208-219-87zm0 138q66 0 106.5 46.5T497 280t-40.5 110.5T350 437t-106.5-46.5T203 280t40.5-110.5T350 123z"/><glyph glyph-name="zero.numerator" horiz-adv-x="413" d="M52 445v125q0 58 42 98.5T206 709q69 0 112.5-40.5T362 570V445q0-58-43.5-98.5T206 306q-70 0-112 40.5T52 445zm203 0v125q0 22-13.5 37T206 622q-21 0-34-15t-13-37V445q0-22 13-37t34-15q22 0 35.5 15t13.5 37z"/><glyph glyph-name="Iogonek.smcp" horiz-adv-x="308" d="M165 0q-45-29-45-62 0-18 10-30.5t27-12.5q23 0 44 10l-2-63q-39-12-78-12-52 0-79 22T15-92q0 48 63 92v560h152V0h-65z"/><glyph glyph-name="bar.smcp" horiz-adv-x="298" d="M221-97H78v708h143V-97z"/><glyph glyph-name="exclamdown.case" horiz-adv-x="338" d="M68 612q0 42 30 71.5t72 29.5 72-29.5 30-71.5-30-71.5-72-29.5-72 29.5T68 612zM88 0v455h164V0H88z"/><glyph glyph-name="questiondown.case" horiz-adv-x="542" d="M390 616q0-42-30-72.5T286 513q-43 0-73.5 30.5T182 616t30.5 72.5T286 719q44 0 74-30.5t30-72.5zm-24-132q-1-68-19-108t-69-75q-27-19-40.5-30t-29-35.5T193 185q0-37 23-56t61-19 62 25 24 76h160q0-98-65.5-160.5T277-12q-102 0-172 52.5T35 186q0 16 2 31.5t7.5 28.5 10 24T68 292t14 18 16.5 17 15.5 13.5 15.5 12.5 12.5 10q40 32 52 54t12 67h160z"/></font>
</defs>
</svg>
