<svg xmlns="http://www.w3.org/2000/svg" viewBox="0 0 102.7 50"><path d="M37.9 3.7c.8 0 1.6.1 2.1.3h.2c.6.1 1.2.5 1.8 1.1.7.7 1.1 1.4 1.5 2.4.4 1.3.6 2.7.6 4.3v2.6H40V10c0-.3 0-1.1-.5-1.5l-.1-.1-.1-.1c-.5-.2-.9-.3-1.4-.3H36c-.3 0-1.1 0-1.5.5-.5.4-.5 1.2-.5 1.5v28.6c0 .3 0 1.1.5 1.5.4.4 1.2.5 1.5.5h1.9c.3 0 1.1 0 1.5-.5.4-.4.5-1.2.5-1.5V23.2H38V19h6.2v25.9h-8.3c-.7 0-1.4-.2-2.2-.4-.8-.3-1.4-.7-1.9-1.2s-1-1.3-1.5-2.4c-.4-1.1-.5-2.5-.5-4.1V11.9c0-1.9.2-3.2.6-4.2.3-1 .8-1.7 1.5-2.4.5-.5 1.1-.8 1.9-1.2.8-.2 1.5-.4 2.2-.4h1.9m0-1H36c-.8 0-1.7.2-2.5.4-.8.3-1.6.7-2.3 1.4-.7.7-1.3 1.6-1.7 2.8-.5 1.2-.7 2.7-.7 4.6v24.9c0 1.8.2 3.3.6 4.5.5 1.2 1 2.1 1.7 2.8.7.7 1.5 1.1 2.3 1.4.8.2 1.7.4 2.5.4h9.3V18H37v6.2h1.9v14.4c0 .4-.1.7-.2.8-.1.1-.4.2-.8.2H36c-.4 0-.7-.1-.8-.2-.1-.1-.2-.4-.2-.8V10c0-.4.1-.7.2-.8.1-.1.4-.2.8-.2h1.9c.4 0 .7.1.9.2.1.1.2.4.2.8v5.5h6.1v-3.6c0-1.9-.3-3.4-.7-4.6-.4-1.2-1-2.1-1.7-2.8-.7-.7-1.4-1.2-2.3-1.4-.8-.3-1.7-.4-2.5-.4zm20.3.7c.8 0 1.5.1 2.2.3.6.1 1.2.5 1.9 1.1.5.4.9 1.1 1.4 2.3.4 1 .5 2.4.5 4.1v33.7h-4.1V22.8h-5.8v22.1h-4V11.2c0-1.7.2-3.1.5-4.1.3-.9.8-1.7 1.4-2.3.6-.5 1.2-.9 1.9-1.1.8-.2 1.6-.4 2.3-.4h1.8m-3.9 15.4h5.8V9.4c0-.3 0-1.1-.5-1.5-.4-.4-1.2-.5-1.5-.5h-1.8c-.3 0-1.1 0-1.5.5-.4.4-.5 1.2-.5 1.5v9.3m3.9-16.3h-1.8c-.8 0-1.7.2-2.5.4-.9.2-1.6.7-2.3 1.3-.7.7-1.3 1.6-1.7 2.7-.4 1.1-.6 2.6-.6 4.4v34.7h6V23.8h3.9v22.1h6.1V11.2c0-1.8-.2-3.3-.6-4.4-.5-1.2-1-2.1-1.7-2.7-.7-.6-1.5-1.1-2.3-1.3-.9-.3-1.7-.4-2.5-.4zm-2.9 15.3V9.4c0-.4.1-.7.2-.8.1-.1.4-.2.8-.2h1.8c.4 0 .7.1.8.2.1.1.2.4.2.8v8.3h-3.8zM73.7 3.8v41h-4.2v-41h4.2m1-1h-6.2v43.1h.8v-.1h5.4v-43zm20.2 1v41h-5.2l-4.8-21-2-8.7v29.8h-4.2V3.8h5.1l4.9 23 2 9.4V3.8h4.2m1-1h-6.2v23.8L84.8 3.4l-.1-.6h-6.9v43.1H84V24l4.8 21.2.2.6h6.9v-43z" fill="#d7df23"/><path d="M25.6 2.6h.9l-.2.9L20.1 45l-.1.6h-6.8l-.1-.6L6.8 2.6H13l.1.6 3.6 30 3.5-30 .1-.6h5.3z" fill="#33b1ef"/></svg>