<svg viewBox="0 0 640 480" xmlns="http://www.w3.org/2000/svg"><path d="M276.4 425.32c-1.907-1.277-5.518-1.417-3.964-4.31.188-2.856-.327-7.125-.348-9.956.188-2.14-.385-4.136-.614-6.16-1.296-3.004 3.855-3.799 6.057-5.038 3.205-.942 6.891-1.88 10.155-1.244 3.888.266 7.91-.027 11.849.128 2.793.229 5.43 1.052 8.15 1.446 2.77.569 5.585 1.147 8.145 2.272 2.52.78 4.598 2.498 5.644 4.505-.3 2.122-1.475 4.243-1.152 6.487-.159 2.572.03 6.618.64 9.138-.529.796-1.447 1.385-2.35 1.985-7.923 2.581-12.59 3.788-18.758 3.804-8.54.022-15.4-.816-23.454-3.057zm222.46 11.96c-10.796 2.965-22.159-.554-32.957-1.675-9.954-2.461-21.708-2.15-29.607-8.242-8.373-4.077-10.544-7.806-8.403-15.43.113-15.772.778-31.65-1.238-47.319-1.024-11.482-2.08-22.993-4.107-34.444-2.27-16.388-4.676-32.845-7.057-49.223.07-13.242-28.492-9.054-20.188-24.51.752-11.422-1.306-22.555-1.391-33.878.752-8.56-1.541-16.543-2.458-24.639-5.182-12.01 15.419-15.19 24.226-20.147 12.818-3.765 27.56-7.52 40.613-4.974 15.552 1.063 31.636-.108 47.389.512 11.17.915 21.719 4.206 32.597 5.781 11.073 2.278 22.334 4.588 32.574 9.09 10.077 3.115 18.388 9.991 22.573 18.017-1.202 8.488-5.898 16.97-4.607 25.944-.636 10.286.12 20.529 2.56 30.61-5.601 8.427-22.126 11.059-19.49 24.027-2.107 11.578-3.943 23.153-4.083 34.8.042 9.15-2.44 18.083-1.25 27.284-.467 10.434-2.056 20.78-1.478 31.257-1.436 9.316-1.77 18.715-4.082 27.946 1.315 10.899-6.625 17.303-17.232 21.54-10.225 3.543-20.535 6.19-31.316 7.405-3.822.546-7.734.148-11.588.27z"/><path d="M500.18 435c-10.306-.237-20.787.96-30.82-1.753-10.104-1.337-19.806-4.345-29.045-8.05-11.955-2.505-5.432-12.661-7.15-20.257.131-12.104.244-24.217-.028-36.322-1.797-6.528-1.437-13.455-2.314-20.005-1.323-8.203-3.37-16.296-4.256-24.564-1.103-8.797-3.208-17.417-3.637-26.278-.749-5.203-5-15.676 5.813-13.11 9.888 1.907 20.002 3.38 30.16 3.772 9.719 1.153 19.476 2.233 29.287 1.94 10.354 1.62 20.903 1.655 31.282.157 9.225-2.566 18.795-.81 28.117.371 9.213 1.876 4.682 12.7-3.7 11.833-16.14 5.66-33.666 6.804-50.782 8.234-14.117.177-28.382-.706-42.144-3.472-7.087-.088-14.883-6.025-21.622-2.646 1.605 11.688 5.48 23.161 5.167 35.006 1.386 6.815 2.01 13.678 1.212 20.581-.572 3.455 2.458 4.555 1.572.57-.624 6.597 2.768 12.38 1.945 19.183.582 9.546 1.374 19.082 1.911 28.63 6.362 4.505 14.87 6.734 22.593 8.437 8.599 2.264 17.478 1.966 26.344 1.808 9.422.98 16.612-1.388 25.347-1.018 8.245-1.652 16.825-3.757 24.58-7.268 9.366-4.372 2.261 9.182.926 12.417-5.434 6.957-15.702 8.684-24.514 10.38-5.41.485-10.847.957-16.242 1.426z" fill="#ff7f00"/><path d="M506.73 415.65c-7.987-.069-15.976.135-23.96-.1-5.707-1.897-12.104-.395-17.827-2.472-6.51-1.48-14.373-1.788-18.958-6.606-2.505-4.54-1.76-9.945-2.33-14.956.266-6.21.468-12.464-1.094-18.566-.71-6.498 1.077-13.231-1.427-19.545.384-6.39-1.205-12.775-2.074-19.078-1.703-7.462-2.067-15.105-4.317-22.457-.686-6.62 9.425-.387 13.745-.65 8.072 2.14 16.471 2.665 24.77 3.764 8.817.712 18.02.96 26.757-.125 6.69-.604 13.423-.537 20-1.893 14.744-1.988 29.063-5.758 43.125-10.011-1.308 6.658-1.014 13.477-2.213 20.086-.873 6.505.204 13.088-1.574 19.5-.27 6.606.038 13.232-1.4 19.768.188 6.583-1.645 13.01-1.456 19.62.788 5.151-.019 10.458-3.43 14.85-3.57 7.372-13.592 8.654-20.711 12.355-6.201 1.883-12.112 4.495-18.686 5.38-2.436.017-4.638.833-6.94 1.136z" fill="red"/><path d="M506.73 282.46c-9.27-.267-18.69.55-27.864-.438-5.598-1.228-11.505-.221-17.059-1.738-8.038-.892-15.949-1.977-23.996-3.018-5.508-2.142-11.538-2.44-17.075-4.24-6.06-2.51-12.7-3.339-18.576-6.424-7.568-2.422-.86-10.346-3.015-15.78.022-8.92.114-17.841-.117-26.76-.828-4.758-3.953-14.97-2.278-16.835 5.224 3.732 10 8.153 16.412 9.976 5.661 3.76 13.086 4.134 19.59 6.384 7.048-.62 13.412 2.537 20.433 3.151 6.363 1.47 13.558 1.997 19.955 3.348 9.142-.039 18.288.146 27.428-.104 6.179-1.668 12.859-1.583 18.969-3.289 6.575-.595 12.998-1.756 19.516-2.843 6.095-1.286 12.77-1.282 18.709-2.888 7.521-.194 14.62-2.063 21.588-3.895 3.921-1.83 6.212-1.498 3.377 2.504-.121 6.037-3.66 11.686-2.532 18.027-.371 6.584 1.18 13.109 2.127 19.332 3.983 6.849-4.726 8.65-9.891 10.998-5.294 3.072-11.5 4.536-17.22 6.883-8.051 1.769-15.967 4.484-24.374 4.454-7.477 2.01-15.194 2.219-22.836 3.277l-1.268-.083z" fill="#bfbfbf"/><path d="M545.59 271.97v-9.856 9.856zm-3.44.25l1.312-26.182V244.9v27.32h-1.312zm6.56-1.14l-1.312-1.138v-2.277l1.312-29.597v33.012zm6.56 0l1.312-15.937-1.312 15.937zm6.56-2.28l1.312-28.458 1.312 26.182-2.624 2.277zm-145.61-1.13l-1.312-20.49 1.312 20.49z"/><ellipse transform="matrix(-1.3119 0 0 1.1383 504.29 139.47)" cx="-48.864" cy="97.622" rx="1" ry="13"/><path d="M426.71 263.11v-29.597l1.312 29.597h-1.312zm-4.64-4.69v-36.96 36.96zm-12.41.14h-1.312v-37.565l1.312 37.565zm-5.25-1.14v-19.352l1.312 18.213-1.312 2.277v-1.139z"/><ellipse transform="matrix(-1.3119 0 0 1.1383 504.29 139.47)" cx="-52.864" cy="94.622" rx="1" ry="8"/><path d="M414.97 241.17v-24.64 24.64z"/><path d="M489.68 225.55c-5.951 1.943-12.767 1.407-18.742.09-7.835.333-15.005-2.293-22.858-2.584-5.598-2.392-11.94-2.592-17.873-3.53-5.498-1.067-9.856-4.328-15.149-5.64-5.394-2.555-10.884-5.355-15.119-9.288-4.58-2.607-7.712-11.88-2.103-13.835 5.965-4.14 13.68-5.626 20.291-9.004 7.101-2.074 14.292-4.33 21.705-5.257 5.308-2.013 13.051.29 17.311-2.08 6.078 1.936 12.7.059 19.066.103 7.613.901 15.553.98 23.222 2.077 7.804-.733 14.941 2.263 22.56 2.248 6.374.235 12.315 2.092 18.465 3.464 6.381.513 12.198 3.562 18.22 5.391 5.912 1.126 10.118 4.845 15.361 6.893 3.961 3.182 12.027 5.483 11.407 11.204-.654 6.682-11.826 6.2-17.56 8.903-5.703 1.269-11.108 2.407-16.903 3.944-5.114 1.332-10.59 2.762-16.102 2.317-6.964-.095-13.233 2.933-20.27 2.296-8.18 1.403-16.384 2.505-24.93 2.288z" fill="#3f3f3f"/><path d="M526.41 218.72l-27.549-1.138c2.468-3.28 7.474-2.67 11.307-3.508 5.08-1.11 10.451-1.285 15.297-3.133 3.682-.176 6.979 3.486 10.647 1.588 3.888-.872 8.029-1.304 11.87-2.501 4.448-.864 8.973-2.103 12.408-4.816 3.068-1.175 7.403-5.985 2.801-7.771-3.648-.927-7.184-2.055-10.597-3.523-12.43-4.038-25.786-5.07-38.491-8.267-3.99-.935-8.132-1.29-12.185-2.004-4.188-.618-9.143-.002-12.356-2.95-.056-3.663 6.16-1.267 8.842-1.145 4.459.829 8.512 3.132 13.19 3.057 6.534.915 12.734 3.1 19.285 3.943 3.6 1.225 7.237 2.408 11.164 2.376 4.483.301 9 .982 13.043 2.753 3.827 1.161 7.426 2.843 11.013 4.43 3.335 2.395 3.383 7.428.51 10.106-5.255 3.585-11.423 6.577-18.213 7.06-5.782 1.019-11.623 1.755-17.453 2.53-1.736.683-3.038 1.926-4.532 2.913zm-44.6 0c-4.615-1.92-10.027-.569-14.692-2.376-5.072-1.252-10.452-1.08-15.496-2.469-7.875-1.698-15.758-3.475-23.377-5.903-6.245-2.506-11.746-6.141-17.29-9.625-2.3-3.006-1.721-7.038-.095-10.16 2.504-2.893 6.772-3.808 10.312-5.387 5.126-1.345 10.477-1.896 15.695-2.869 3.579-.23 7.182.5 10.741-.06 2.573-2.714 6.694-1.994 10.045-1.236 5.186.469 10.4.784 15.54 1.572 3.652 1.618-.466 5.577-3.347 4.129-5.394.932-10.743 2.164-16.244 2.524-.434-3.714-5.452-4.652-9.016-4.601-4.324-.223-8.64.267-12.808 1.252-5.627 1.019-11.907 1.607-16.317 5.117-2.549 2.55-3.906 6.38-2.534 9.61 2.47 2.989 6.815 3.975 10.54 5.292 5.246 1.153 9.725 4.053 15.023 5.113 9.92 2.5 20.166 3.812 30.189 5.946 5.25 1.003 10.502 2.006 15.757 2.993-1.409-.911-1.214 1.99-2.624 1.138z"/><g fill="red"><path d="M300 425.88c-2.151-.062-4.338.128-6.467-.102-1.3-.285-2.67-.051-3.96-.403-1.865-.207-3.7-.459-5.568-.7-1.279-.498-2.678-.567-3.963-.985-1.407-.582-2.948-.774-4.312-1.49-1.756-.563-.2-2.402-.7-3.662.006-2.07.027-4.141-.027-6.211-.192-1.105-.917-3.474-.528-3.907 1.212.866 2.32 1.892 3.809 2.315 1.314.873 3.037.96 4.547 1.482 1.635-.144 3.237 2.105 4.866 2.247 1.477.341 3.022-1.053 4.507-.74 2.122-.008 4.244.035 6.365-.023 1.434-.387 2.985-.368 4.403-.763 1.526-.139 3.016-.408 4.529-.66 1.415-.299 2.964-.298 4.342-.67 1.746-.046 3.393-.48 5.01-.905.91-.424 1.442-.347.784.582-.028 1.4-.85 2.712-.587 4.183-.087 1.528.273 3.043.493 4.487.925 1.59-1.097 2.008-2.295 2.553-1.229.713-2.67 1.053-3.997 1.597-1.868.41-3.706 1.04-5.657 1.034-1.735.466-3.526.515-5.3.76l-.294-.019z"/><path d="M296.05 411.84c-1.381.45-2.963.327-4.35.02-1.818.078-3.482-.531-5.304-.599-1.3-.555-2.772-.601-4.148-.82-1.277-.247-2.288-1.003-3.516-1.308-1.252-.593-2.526-1.243-3.51-2.156-1.062-.605-1.79-2.757-.487-3.21 1.384-.961 3.175-1.306 4.709-2.09 1.648-.481 3.317-1.005 5.038-1.22 1.231-.468 3.028.067 4.017-.483 1.41.45 2.948.014 4.425.024 1.72.06 4.007.093 4.835.271 2.063.444.907 1.22 2.177 1.402 1.811-.17 1.845-.666 3.613-.67 1.48.055 2.858.486 4.286.804 1.48.12 2.83.827 4.228 1.252 1.372.261 2.349 1.124 3.565 1.6.92.738 2.792 1.272 2.648 2.6-.152 1.55-2.745 1.439-4.076 2.066-1.323.295-2.578.559-3.923.916-1.186.309-2.458.64-3.736.537-1.617-.022-3.072.681-4.705.533-1.898.326-3.802.581-5.786.531z"/></g><path d="M299.03 400.17c-12.732 10.723-12.732 11.481-12.732 11.481M302.53 400.5c-12.732 10.723-12.732 11.481-12.732 11.481" fill="none" stroke="#000" stroke-width="1.419"/><path d="M367.49 402.34c1.706-1.079 4.938-1.197 3.547-3.641-.168-2.413.292-6.018.311-8.41-.168-1.807.345-3.494.55-5.203 1.16-2.537-3.45-3.209-5.42-4.256-2.868-.795-6.166-1.588-9.086-1.05-3.48.224-7.078-.023-10.602.108-2.5.193-4.86.888-7.293 1.221-2.477.481-4.997.969-7.288 1.92-2.254.658-4.114 2.11-5.05 3.805.269 1.793 1.32 3.584 1.03 5.48.143 2.172-.026 5.59-.572 7.719.473.672 1.295 1.17 2.103 1.676 7.089 2.18 11.265 3.2 16.784 3.214 7.641.018 13.779-.69 20.987-2.583z"/><g fill="#fff"><path d="M346.37 402.82c1.925-.052 3.881.108 5.787-.086 1.162-.24 2.389-.043 3.542-.34 1.67-.175 3.312-.388 4.983-.592 1.144-.42 2.397-.479 3.546-.832 1.259-.492 2.638-.654 3.858-1.259 1.572-.475.179-2.028.626-3.093-.005-1.749-.024-3.498.024-5.246.172-.933.821-2.935.473-3.3-1.084.73-2.076 1.598-3.408 1.955-1.176.737-2.717.81-4.068 1.251-1.464-.121-2.897 1.779-4.355 1.899-1.321.288-2.704-.89-4.032-.625-1.899-.007-3.798.03-5.696-.02-1.283-.327-2.67-.31-3.94-.645-1.365-.116-2.698-.344-4.052-.557-1.266-.252-2.652-.251-3.885-.566-1.562-.038-3.036-.405-4.483-.764-.815-.359-1.29-.293-.701.491.025 1.184.76 2.291.525 3.534.077 1.29-.245 2.57-.441 3.79-.828 1.343.981 1.696 2.054 2.156 1.099.602 2.388.89 3.576 1.35 1.671.346 3.315.879 5.061.873 1.553.394 3.156.435 4.743.642l.263-.016z"/><path d="M349.91 390.96c1.236.38 2.651.276 3.892.018 1.627.065 3.116-.45 4.747-.507 1.162-.469 2.48-.508 3.711-.692 1.142-.21 2.047-.848 3.146-1.106 1.12-.5 2.26-1.05 3.14-1.82.95-.511 1.602-2.33.436-2.713-1.238-.811-2.84-1.103-4.213-1.765-1.475-.406-2.968-.849-4.508-1.03-1.102-.395-2.71.056-3.595-.408-1.262.38-2.637.011-3.959.02-1.539.05-3.586.079-4.326.229-1.846.375-.811 1.03-1.948 1.184-1.62-.143-1.65-.562-3.233-.565-1.324.046-2.558.41-3.835.679-1.325.1-2.533.698-3.783 1.057-1.228.22-2.102.95-3.19 1.351-.823.624-2.498 1.075-2.37 2.197.137 1.31 2.457 1.215 3.647 1.745 1.185.249 2.307.472 3.51.773 1.063.261 2.2.542 3.344.454 1.447-.018 2.748.576 4.21.45 1.698.276 3.402.492 5.177.45z"/></g><path d="M347.24 381.1c11.392 9.057 11.392 9.698 11.392 9.698m-14.522-9.418c11.392 9.057 11.392 9.698 11.392 9.698" fill="none" stroke="#000" stroke-width="1.234"/><path d="M349.62 427.42c-2.033-1.361-5.883-1.511-4.226-4.595.2-3.045-.348-7.595-.37-10.613.2-2.282-.411-4.41-.656-6.568-1.38-3.201 4.11-4.05 6.458-5.37 3.416-1.004 7.346-2.005 10.826-1.326 4.145.283 8.432-.029 12.632.136 2.977.244 5.789 1.122 8.688 1.541 2.952.607 5.954 1.223 8.683 2.423 2.686.83 4.901 2.663 6.017 4.803-.32 2.262-1.572 4.523-1.228 6.915-.17 2.742.032 7.055.682 9.742-.564.849-1.543 1.477-2.505 2.116-8.446 2.751-13.422 4.039-19.996 4.055-9.104.024-16.417-.87-25.004-3.259z"/><g fill="#ff0"><path d="M374.78 428.02c-2.294-.066-4.624.136-6.894-.108-1.385-.304-2.847-.055-4.22-.43-1.99-.221-3.947-.49-5.938-.747-1.363-.53-2.855-.604-4.225-1.05-1.499-.62-3.142-.825-4.596-1.588-1.872-.6-.212-2.56-.746-3.904.006-2.207.029-4.415-.029-6.621-.204-1.178-.978-3.704-.563-4.166 1.292.924 2.474 2.018 4.06 2.469 1.401.93 3.238 1.022 4.847 1.579 1.744-.153 3.452 2.244 5.189 2.396 1.574.364 3.22-1.122 4.804-.788 2.262-.01 4.525.036 6.786-.026 1.529-.412 3.181-.391 4.693-.813 1.627-.148 3.216-.435 4.829-.704 1.508-.318 3.16-.317 4.628-.714 1.861-.048 3.618-.51 5.342-.964.97-.453 1.537-.37.835.62-.03 1.493-.905 2.89-.626 4.46-.092 1.629.292 3.243.526 4.783.985 1.694-1.17 2.14-2.447 2.72-1.31.76-2.845 1.123-4.26 1.704-1.993.437-3.951 1.11-6.031 1.102-1.85.497-3.76.549-5.65.81l-.314-.02z"/><path d="M370.56 413.06c-1.472.48-3.159.348-4.637.022-1.938.083-3.712-.567-5.655-.639-1.385-.592-2.954-.641-4.422-.874-1.36-.263-2.439-1.07-3.748-1.395-1.335-.632-2.693-1.325-3.741-2.298-1.133-.645-1.908-2.939-.52-3.423 1.475-1.024 3.384-1.392 5.02-2.227 1.757-.514 3.536-1.072 5.37-1.301 1.313-.498 3.23.071 4.283-.515 1.504.48 3.142.015 4.717.026 1.834.064 4.272.1 5.154.289 2.2.473.967 1.3 2.322 1.495 1.93-.182 1.966-.71 3.851-.714 1.577.058 3.047.517 4.569.857 1.579.127 3.018.881 4.508 1.334 1.462.278 2.503 1.198 3.8 1.705.98.787 2.976 1.357 2.823 2.772-.162 1.653-2.926 1.534-4.345 2.203-1.411.314-2.748.596-4.182.976-1.265.33-2.62.683-3.984.573-1.723-.023-3.274.726-5.015.568-2.024.347-4.054.62-6.168.566z"/></g><path d="M373.74 400.62c-13.573 11.431-13.573 12.239-13.573 12.239m17.303-11.899c-13.573 11.431-13.573 12.239-13.573 12.239" fill="none" stroke="#000" stroke-width="1.513"/></svg>