<?xml version="1.0" encoding="utf-8"?>
<!-- Generator: Adobe Illustrator 22.1.0, SVG Export Plug-In . SVG Version: 6.00 Build 0)  -->
<svg version="1.1" id="Layer_1" xmlns="http://www.w3.org/2000/svg" xmlns:xlink="http://www.w3.org/1999/xlink" x="0px" y="0px"
	 viewBox="0 0 34 50" style="enable-background:new 0 0 34 50;" xml:space="preserve">
<style type="text/css">
	.st0{fill:none;stroke:#D7DF23;stroke-width:0.25;stroke-miterlimit:10;}
</style>
<path class="st0" d="M9.9,46.7H9.1V46V12.1c0-1.8,0.2-3.3,0.6-4.4c0.4-1.1,1-2,1.7-2.7c0.7-0.6,1.4-1.1,2.3-1.3
	c0.8-0.2,1.7-0.4,2.5-0.4H18c0.8,0,1.6,0.1,2.5,0.4c0.8,0.2,1.6,0.7,2.3,1.3s1.2,1.5,1.7,2.7c0.4,1.1,0.6,2.6,0.6,4.4V46v0.8h-0.8
	h-4.5H19V46V24.7h-0.7h-2.4h-0.7V46v0.8h-0.8L9.9,46.7L9.9,46.7z M15.1,18.5h1.7h0.4h1.7v-8.3c0-0.4-0.1-0.7-0.2-0.8
	s-0.4-0.2-0.8-0.2h-1.8c-0.4,0-0.7,0.1-0.8,0.2c-0.1,0.1-0.2,0.4-0.2,0.8C15.1,10.2,15.1,18.5,15.1,18.5z"/>
</svg>
