<?xml version="1.0" encoding="utf-8"?>
<!-- Generator: Adobe Illustrator 22.1.0, SVG Export Plug-In . SVG Version: 6.00 Build 0)  -->
<svg version="1.1" id="Layer_1" xmlns="http://www.w3.org/2000/svg" xmlns:xlink="http://www.w3.org/1999/xlink" x="0px" y="0px"
	 viewBox="0 0 102.7 50" style="enable-background:new 0 0 102.7 50;" xml:space="preserve">
<style type="text/css">
	.st0{fill:#D7DF23;}
	.st1{fill:#33B1EF;}
</style>
<g>
	<path class="st0" d="M37.9,3.7c0.8,0,1.6,0.1,2.1,0.3l0.1,0l0.1,0c0.6,0.1,1.2,0.5,1.8,1.1c0.7,0.7,1.1,1.4,1.5,2.4
		c0.4,1.3,0.6,2.7,0.6,4.3v2.6H40V10c0-0.3,0-1.1-0.5-1.5l-0.1-0.1l-0.1-0.1C38.8,8.1,38.4,8,37.9,8H36c-0.3,0-1.1,0-1.5,0.5
		C34,8.9,34,9.7,34,10v28.6c0,0.3,0,1.1,0.5,1.5c0.4,0.4,1.2,0.5,1.5,0.5h1.9c0.3,0,1.1,0,1.5-0.5c0.4-0.4,0.5-1.2,0.5-1.5V24.2v-1
		h-1H38V19h6.2v25.9h-0.8h-3.6H39h-2.1h-0.8h-0.2c-0.7,0-1.4-0.2-2.2-0.4c-0.8-0.3-1.4-0.7-1.9-1.2c-0.5-0.5-1-1.3-1.5-2.4
		c-0.4-1.1-0.5-2.5-0.5-4.1V11.9c0-1.9,0.2-3.2,0.6-4.2l0,0l0,0c0.3-1,0.8-1.7,1.5-2.4c0.5-0.5,1.1-0.8,1.9-1.2
		c0.8-0.2,1.5-0.4,2.2-0.4H37.9 M37.9,2.7H36c-0.8,0-1.7,0.2-2.5,0.4c-0.8,0.3-1.6,0.7-2.3,1.4c-0.7,0.7-1.3,1.6-1.7,2.8
		c-0.5,1.2-0.7,2.7-0.7,4.6v24.9c0,1.8,0.2,3.3,0.6,4.5c0.5,1.2,1,2.1,1.7,2.8c0.7,0.7,1.5,1.1,2.3,1.4c0.8,0.2,1.7,0.4,2.5,0.4h0.2
		h0.8H39h0.8h3.6h1h0.8v-0.8V18.8V18h-0.8h-6.6H37v0.8v4.6v0.8h0.7h1.2v14.4c0,0.4-0.1,0.7-0.2,0.8c-0.1,0.1-0.4,0.2-0.8,0.2H36
		c-0.4,0-0.7-0.1-0.8-0.2C35.1,39.3,35,39,35,38.6V10c0-0.4,0.1-0.7,0.2-0.8C35.3,9.1,35.6,9,36,9h1.9c0.4,0,0.7,0.1,0.9,0.2
		C38.9,9.3,39,9.6,39,10v5.5h0.7h4.6h0.8v-3.6c0-1.9-0.3-3.4-0.7-4.6c-0.4-1.2-1-2.1-1.7-2.8c-0.7-0.7-1.4-1.2-2.3-1.4
		C39.6,2.8,38.7,2.7,37.9,2.7L37.9,2.7z"/>
	<path class="st0" d="M58.2,3.4c0.8,0,1.5,0.1,2.2,0.3l0,0l0,0c0.6,0.1,1.2,0.5,1.9,1.1c0.5,0.4,0.9,1.1,1.4,2.3
		c0.4,1,0.5,2.4,0.5,4.1v33.7h-4.1V23.8v-1h-1h-0.7H56h-0.7h-1v1v21.1h-4V11.2c0-1.7,0.2-3.1,0.5-4.1c0.3-0.9,0.8-1.7,1.4-2.3
		c0.6-0.5,1.2-0.9,1.9-1.1c0.8-0.2,1.6-0.4,2.3-0.4H58.2 M54.3,18.7h1H57h0.4h1.7h1v-1V9.4c0-0.3,0-1.1-0.5-1.5
		c-0.4-0.4-1.2-0.5-1.5-0.5h-1.8c-0.3,0-1.1,0-1.5,0.5c-0.4,0.4-0.5,1.2-0.5,1.5l0,8.3L54.3,18.7 M58.2,2.4h-1.8
		c-0.8,0-1.7,0.2-2.5,0.4C53,3,52.3,3.5,51.6,4.1c-0.7,0.7-1.3,1.6-1.7,2.7c-0.4,1.1-0.6,2.6-0.6,4.4v33.9v0.8h0.8h4.4h0.8v-0.8
		V23.8H56h2.5h0.7v21.3v0.8H60h4.5h0.8v-0.8V11.2c0-1.8-0.2-3.3-0.6-4.4c-0.5-1.2-1-2.1-1.7-2.7c-0.7-0.6-1.5-1.1-2.3-1.3
		C59.8,2.5,59,2.4,58.2,2.4L58.2,2.4z M55.3,17.7c0,0,0-8.3,0-8.3c0-0.4,0.1-0.7,0.2-0.8c0.1-0.1,0.4-0.2,0.8-0.2h1.8
		c0.4,0,0.7,0.1,0.8,0.2C59,8.7,59.1,9,59.1,9.4v8.3h-1.7H57H55.3L55.3,17.7z"/>
	<path class="st0" d="M73.7,3.8v41h-4.2v-41H73.7 M74.7,2.8h-0.8h-4.6h-0.8v0.8v41.5v0.8h0.8v-0.1h4.6h0.8V45V3.6V2.8L74.7,2.8z"/>
	<path class="st0" d="M94.9,3.8v41h-5.2l-4.8-21l-2-8.7V24v20.9h-4.2V3.8h5.1l4.9,23l2,9.4v-9.6V3.8H94.9 M95.9,2.8h-0.8h-4.6h-0.8
		v0.8v23L84.8,3.4l-0.1-0.6h-0.6h-5.5h-0.8v0.8v41.5v0.8h0.8h4.6H84v-0.8V24l4.8,21.2l0.2,0.6h0.5h5.6h0.8V45V3.6V2.8L95.9,2.8z"/>
	<g>
		<path class="st1" d="M25.6,2.6h0.9l-0.2,0.9L20.1,45L20,45.6h-0.6h-5.5h-0.7L13.1,45L6.8,2.6h0.9h4.6H13l0.1,0.6l3.6,30l3.5-30
			l0.1-0.6H21C21,2.6,25.6,2.6,25.6,2.6z"/>
	</g>
</g>
</svg>
